<svg xmlns="http://www.w3.org/2000/svg" xmlns:xlink="http://www.w3.org/1999/xlink" width="100.018" height="100" viewBox="0 0 100.018 100">
  <defs>
    <linearGradient id="linear-gradient" x1="0.824" y1="-0.239" x2="0.295" y2="1.221" gradientUnits="objectBoundingBox">
      <stop offset="0" stop-color="#09c957"/>
      <stop offset="1" stop-color="#045626"/>
      <stop offset="1" stop-color="#045224"/>
    </linearGradient>
  </defs>
  <g id="document" transform="translate(0 -0.043)">
    <path id="Path_294" data-name="Path 294" d="M77.906,8.043H13.119a5,5,0,0,0-5,5v72.5L27.284,104.7H77.906a5,5,0,0,0,5-5V13.043A5,5,0,0,0,77.906,8.043Z" transform="translate(-6.428 -6.333)" fill="rgba(9,201,87,0.2)"/>
    <path id="Path_296" data-name="Path 296" d="M113.615,141.814v46.83a3.77,3.77,0,0,1-3.771,3.771H64.89a3.77,3.77,0,0,1-3.771-3.771v-46.83a3.77,3.77,0,0,1,3.771-3.771h44.955a3.77,3.77,0,0,1,3.771,3.771Z" transform="translate(-48.387 -109.252)" fill="#fff"/>
    <path id="Path_298" data-name="Path 298" d="M27.284,384.078v15.13L8.119,380.043h15.13A4.035,4.035,0,0,1,27.284,384.078Z" transform="translate(-6.428 -300.839)" fill="#fff"/>
    <path id="Path_299" data-name="Path 299" d="M300.95,216.043h-37.5a3.332,3.332,0,0,0-3.333,3.333V266.04a3.332,3.332,0,0,0,3.333,3.333h37.5a3.332,3.332,0,0,0,3.333-3.333V219.376A3.332,3.332,0,0,0,300.95,216.043Z" transform="translate(-205.931 -171.003)" fill="rgba(9,201,87,0.2)"/>
    <path id="Path_300" data-name="Path 300" d="M329.951,255.71v6.666a1.667,1.667,0,0,1-1.667,1.667h-22.5a1.667,1.667,0,0,1-1.667-1.667V255.71a1.667,1.667,0,0,1,1.667-1.667h22.5A1.667,1.667,0,0,1,329.951,255.71Z" transform="translate(-240.765 -201.087)" fill="#fff"/>
    <path id="Path_301" data-name="Path 301" d="M300.967,220.209H269.7a3.332,3.332,0,0,0-3.332,3.333v42.914a2.916,2.916,0,0,1-2.916,2.916,3.333,3.333,0,0,1-3.333-3.333V219.376a3.333,3.333,0,0,1,3.333-3.333h37.5A2.083,2.083,0,1,1,300.967,220.209Z" transform="translate(-205.931 -171.003)" fill="#fff"/>
    <path id="Path_302" data-name="Path 302" d="M328.3,256.126H309.951a1.665,1.665,0,0,0-1.665,1.667v4.583a1.667,1.667,0,0,1-1.667,1.667h-.833a1.667,1.667,0,0,1-1.667-1.667V255.71a1.667,1.667,0,0,1,1.667-1.667h22.5A1.042,1.042,0,1,1,328.3,256.126Z" transform="translate(-240.766 -201.087)" fill="#fff"/>
    <g id="Group_213" data-name="Group 213" transform="translate(0 0.043)">
      <path id="Path_303" data-name="Path 303" d="M68.117,179.858a1.667,1.667,0,0,0,1.667-1.667v-2.943H87.491a1.667,1.667,0,1,0,0-3.333H69.784V160.666H87.491a1.667,1.667,0,1,0,0-3.333H69.784V146.084h19.6a1.667,1.667,0,0,0,0-3.333h-19.6v-9.374h33.727a2.106,2.106,0,0,1,2.1,2.1v4.166a1.667,1.667,0,1,0,3.333,0V135.48a5.443,5.443,0,0,0-5.437-5.437H58.555a5.443,5.443,0,0,0-5.437,5.437v38.1a1.667,1.667,0,0,0,1.667,1.667H66.45v2.943A1.667,1.667,0,0,0,68.117,179.858Zm-1.667-22.525h-10V146.084h10Zm-7.9-23.957h7.9v9.374h-10V135.48A2.106,2.106,0,0,1,58.555,133.376Zm-2.1,38.539V160.666h10v11.249Z" transform="translate(-42.053 -102.961)" fill="url(#linear-gradient)"/>
      <path id="Path_304" data-name="Path 304" d="M174.094,69.376a1.667,1.667,0,1,0,0-3.333h-25.18a1.667,1.667,0,1,0,0,3.333Z" transform="translate(-116.573 -52.294)" fill="url(#linear-gradient)"/>
      <path id="Path_305" data-name="Path 305" d="M97.428,69.376a1.667,1.667,0,1,0,0-3.333H93.786a1.667,1.667,0,0,0,0,3.333Z" transform="translate(-72.929 -52.294)" fill="url(#linear-gradient)"/>
      <path id="Path_306" data-name="Path 306" d="M95.018,43.373H88.077a1.667,1.667,0,0,0,0,3.333h6.942a1.668,1.668,0,0,1,1.667,1.667V95.037A1.668,1.668,0,0,1,95.018,96.7h-37.5a1.668,1.668,0,0,1-1.667-1.667V48.373a1.669,1.669,0,0,1,1.667-1.667H76.478a1.667,1.667,0,0,0,1.667-1.667V6.709A6.674,6.674,0,0,0,71.478.043H6.691A6.674,6.674,0,0,0,.025,6.709c0,75.793-.153,72.8.3,73.449.149.212,19.4,19.438,19.475,19.5a1.7,1.7,0,0,0,.574.305c.361.11-1.046.071,24.556.071a1.667,1.667,0,0,0,0-3.333H22.523V83.239a5.708,5.708,0,0,0-5.7-5.7H12.941a1.667,1.667,0,0,0,0,3.333h3.881a2.371,2.371,0,0,1,2.368,2.368V94.346L3.358,78.514V6.709A3.337,3.337,0,0,1,6.691,3.376H71.478a3.337,3.337,0,0,1,3.333,3.333V43.373H57.521a5.006,5.006,0,0,0-5,5V81.5h-22.5a1.667,1.667,0,0,0,0,3.333h22.5V95.037a5.006,5.006,0,0,0,5,5h37.5a5.006,5.006,0,0,0,5-5V48.373a5.006,5.006,0,0,0-5-5Z" transform="translate(0 -0.043)" fill="url(#linear-gradient)"/>
      <path id="Path_307" data-name="Path 307" d="M325.284,257.709v-10a1.667,1.667,0,0,0-1.667-1.667H297.786a1.667,1.667,0,0,0-1.667,1.667v10a1.667,1.667,0,0,0,1.667,1.667h17.949a1.667,1.667,0,0,0,0-3.333H299.452v-6.666h22.5v8.333a1.667,1.667,0,1,0,3.333,0Z" transform="translate(-234.432 -194.796)" fill="url(#linear-gradient)"/>
      <path id="Path_308" data-name="Path 308" d="M410.119,339.71v16.666a1.667,1.667,0,1,0,3.333,0V339.71a1.667,1.667,0,0,0-3.333,0Z" transform="translate(-324.683 -267.631)" fill="url(#linear-gradient)"/>
      <path id="Path_309" data-name="Path 309" d="M310.494,418.043h-2.708a1.667,1.667,0,0,0,0,3.333h2.708a1.667,1.667,0,1,0,0-3.333Z" transform="translate(-242.348 -330.966)" fill="url(#linear-gradient)"/>
      <path id="Path_310" data-name="Path 310" d="M360.494,418.043h-2.708a1.667,1.667,0,0,0,0,3.333h2.708a1.667,1.667,0,0,0,0-3.333Z" transform="translate(-281.932 -330.966)" fill="url(#linear-gradient)"/>
      <path id="Path_311" data-name="Path 311" d="M310.494,378.043h-2.708a1.667,1.667,0,0,0,0,3.333h2.708a1.667,1.667,0,1,0,0-3.333Z" transform="translate(-242.348 -299.298)" fill="url(#linear-gradient)"/>
      <path id="Path_312" data-name="Path 312" d="M360.494,378.043h-2.708a1.667,1.667,0,0,0,0,3.333h2.708a1.667,1.667,0,0,0,0-3.333Z" transform="translate(-281.932 -299.298)" fill="url(#linear-gradient)"/>
      <path id="Path_313" data-name="Path 313" d="M310.494,338.043h-2.708a1.667,1.667,0,0,0,0,3.333h2.708a1.667,1.667,0,1,0,0-3.333Z" transform="translate(-242.348 -267.631)" fill="url(#linear-gradient)"/>
      <path id="Path_314" data-name="Path 314" d="M360.494,338.043h-2.708a1.667,1.667,0,0,0,0,3.333h2.708a1.667,1.667,0,0,0,0-3.333Z" transform="translate(-281.932 -267.631)" fill="url(#linear-gradient)"/>
    </g>
  </g>
</svg>
