<svg id="vuesax_bulk_call-incoming" data-name="vuesax/bulk/call-incoming" xmlns="http://www.w3.org/2000/svg" width="30" height="30" viewBox="0 0 30 30">
  <g id="call-incoming">
    <path id="Vector" d="M.956,8.033h6.12a.963.963,0,0,0,.956-.956V.956a.956.956,0,0,0-1.913,0V6.12H.956a.956.956,0,1,0,0,1.913Z" transform="translate(2.869 2.869)" fill="#fff"/>
    <path id="Vector-2" data-name="Vector" d="M0,15.568l4.169,4.169q.689-.612,1.339-1.262a36.228,36.228,0,0,0,3.557-4.169,22.731,22.731,0,0,0,2.5-4.348,10.739,10.739,0,0,0,.918-4.169,6.6,6.6,0,0,0-.459-2.461A5.869,5.869,0,0,0,10.557,1.2,3.736,3.736,0,0,0,7.905,0,2.4,2.4,0,0,0,6.872.23a2.078,2.078,0,0,0-.854.714L3.06,5.113a4.364,4.364,0,0,0-.51.893,2.015,2.015,0,0,0-.179.778,1.731,1.731,0,0,0,.268.905,4.337,4.337,0,0,0,.714.905L4.322,9.6a.682.682,0,0,1,.2.51,1.158,1.158,0,0,1-.038.293c-.038.1-.077.179-.1.255A10.58,10.58,0,0,1,3.2,12.291c-.574.663-1.186,1.339-1.849,2.015C.893,14.752.446,15.186,0,15.568Z" transform="translate(14.967 2.55)" fill="#fff" opacity="0.4"/>
    <path id="Vector-3" data-name="Vector" d="M0,5.47A3.238,3.238,0,0,0,.191,6.554a3.114,3.114,0,0,0,.128.306,5.261,5.261,0,0,0,.867,1.3,5.748,5.748,0,0,0,2.091,1.5c.013,0,.025.013.038.013a6.441,6.441,0,0,0,2.448.472A10.626,10.626,0,0,0,9.92,9.218a22.4,22.4,0,0,0,4.386-2.525c.5-.37.995-.74,1.466-1.135L11.6,1.39A7.163,7.163,0,0,1,10.659,2c-.064.026-.14.064-.23.1a.88.88,0,0,1-.319.051.7.7,0,0,1-.523-.217L8.619.982A3.912,3.912,0,0,0,7.7.268,1.7,1.7,0,0,0,6.8,0a2.035,2.035,0,0,0-.778.166,4.931,4.931,0,0,0-.893.5l-4.22,3a1.934,1.934,0,0,0-.7.816A2.616,2.616,0,0,0,0,5.47Z" transform="translate(2.588 17.301)" fill="#fff"/>
    <path id="Vector-4" data-name="Vector" d="M30,0H0V30H30Z" fill="none" opacity="0"/>
  </g>
</svg>
