<svg xmlns="http://www.w3.org/2000/svg" width="18.925" height="17.92" viewBox="0 0 18.925 17.92">
  <path id="FontAwsome_instagram_" data-name="FontAwsome (instagram)" d="M9.389,36.191a4.6,4.6,0,1,0,0,9.189,4.6,4.6,0,1,0,0-9.189Zm0,7.582a2.991,2.991,0,1,1,0-5.974,2.991,2.991,0,1,1,0,5.974ZM15.57,36a1.133,1.133,0,1,1-1.131-1.072A1.1,1.1,0,0,1,15.57,36Zm3.213,1.088a5.151,5.151,0,0,0-1.528-3.755,5.815,5.815,0,0,0-3.964-1.448c-1.562-.084-6.244-.084-7.806,0A5.807,5.807,0,0,0,1.52,33.332,5.168,5.168,0,0,0-.009,37.086C-.1,38.566-.1,43-.009,44.48A5.151,5.151,0,0,0,1.52,48.235a5.822,5.822,0,0,0,3.964,1.448c1.562.084,6.244.084,7.806,0a5.777,5.777,0,0,0,3.964-1.448,5.185,5.185,0,0,0,1.528-3.755c.089-1.48.089-5.91,0-7.39Zm-2.018,8.977a3.113,3.113,0,0,1-1.8,1.7c-1.245.468-4.2.36-5.577.36s-4.336.1-5.577-.36a3.114,3.114,0,0,1-1.8-1.7c-.494-1.18-.38-3.979-.38-5.282s-.11-4.107.38-5.282a3.113,3.113,0,0,1,1.8-1.7c1.245-.468,4.2-.36,5.577-.36s4.336-.1,5.577.36a3.114,3.114,0,0,1,1.8,1.7c.494,1.18.38,3.979.38,5.282S17.259,44.892,16.765,46.068Z" transform="translate(0.075 -31.825)" fill="#fff"/>
</svg>
