<svg width="164" height="200" viewBox="0 0 164 200" fill="none" xmlns="http://www.w3.org/2000/svg">
<style>
#rotate,#translate_1,#translate_2,#translateY,#bounce_1,#bounce_2,#bounce_3,#bounce_4,#bounce_5{transform-origin:center;transform-box:fill-box}#translate_1,#translate_2{animation:translateY 2s linear infinite alternate}#rotate{animation:bounce-in-fwd 2s linear infinite alternate}#translateY,#bounce_1,#bounce_2,#bounce_3,#bounce_4,#bounce_5{animation:bounce-in-top 2s linear infinite alternate}@keyframes bounce-in-top{0%{transform:translateY(20px);animation-timing-function:ease-in;opacity:0}38%{transform:translateY(0);animation-timing-function:ease-out;opacity:1}55%{transform:translateY(10px);animation-timing-function:ease-in}72%{transform:translateY(0);animation-timing-function:ease-out}81%{transform:translateY(5px);animation-timing-function:ease-in}90%{transform:translateY(0);animation-timing-function:ease-out}95%{transform:translateY(2px);animation-timing-function:ease-in}100%{transform:translateY(0);animation-timing-function:ease-out}}@keyframes bounce-in-fwd{0%{transform:scale(1);animation-timing-function:ease-in}38%{transform:scale(1);animation-timing-function:ease-out}55%{transform:scale(0.7);animation-timing-function:ease-in}72%{transform:scale(1);animation-timing-function:ease-out}81%{transform:scale(0.84);animation-timing-function:ease-in}89%{transform:scale(1);animation-timing-function:ease-out}95%{transform:scale(0.95);animation-timing-function:ease-in}100%{transform:scale(1);animation-timing-function:ease-out}}@keyframes translateY{0%,100%{transform:translateY(0px)}50%{transform:translateY(-5px)}}
</style>
<g id="list_money 1" clip-path="url(#clip0_508_494)">
<g id="Group 470">
<g id="rotate">
<g id="translateY">
<path id="Path 722" d="M114.86 135.39C113.91 137.124 112.728 138.72 111.347 140.135C109.136 137.884 106.619 135.957 103.869 134.409C87.907 125.196 62.849 124.509 45.613 132.355L25.9041 120.886C32.1809 117.804 38.7951 115.464 45.613 113.911V107.598C62.849 99.751 87.907 100.438 103.869 109.652C107.775 111.773 111.156 114.744 113.761 118.346C117.494 123.796 117.86 129.832 114.86 135.39Z" fill="url(#paint0_linear_508_494)"/>
<path id="Path 723" d="M144.631 151.21L144.589 151.185C145.176 161.362 139.349 171.632 127.089 179.785L107.396 168.325C115.117 162.683 118.11 155.582 116.383 148.8L127.089 155.029C130.586 152.746 133.78 150.03 136.596 146.947C138.453 144.898 140.06 142.635 141.383 140.207C143.48 136.418 144.595 132.164 144.628 127.833L144.631 151.21Z" fill="url(#paint1_linear_508_494)"/>
<path id="Path 724" d="M25.905 96.133V120.884L45.614 132.353V107.602L25.905 96.133Z" fill="url(#paint2_linear_508_494)"/>
<path id="Path 725" d="M107.4 143.567V168.318L127.093 179.778V154.64L107.4 143.567Z" fill="url(#paint3_linear_508_494)"/>
<path id="Path 726" d="M144.631 127.828C144.599 132.159 143.483 136.412 141.387 140.202C140.064 142.63 138.457 144.893 136.6 146.942C133.784 150.025 130.59 152.741 127.093 155.024L116.387 148.795L107.4 143.564C108.815 142.539 110.136 141.392 111.349 140.135C112.73 138.72 113.912 137.124 114.862 135.39C117.862 129.832 117.494 123.796 113.762 118.347C111.157 114.745 107.776 111.774 103.87 109.653C87.9081 100.44 62.85 99.753 45.614 107.599L25.905 96.13C54.04 82.079 96.619 82.8 123.438 98.285C136.374 105.755 143.382 115.345 144.48 125.12C144.581 126.019 144.631 126.923 144.631 127.828Z" fill="url(#paint4_linear_508_494)"/>
</g>
<path id="bounce_1" d="M127.092 167.639V179.459C126.036 180.159 124.921 180.859 123.764 181.53C95.822 197.769 50.359 197.769 22.232 181.53C5.49904 171.864 -1.33394 158.63 1.76006 146.076C3.88906 154.719 10.713 163.061 22.232 169.709C50.358 185.948 95.822 185.948 123.764 169.709C124.921 169.039 126.036 168.345 127.092 167.639Z" fill="#DCDCDC"/>
<path id="bounce_2" d="M45.615 120.216V132.037C44.2405 132.649 42.9 133.335 41.599 134.091C35.672 137.536 31.799 141.72 29.999 146.138C26.599 137.83 30.46 128.738 41.599 122.27C42.8999 121.514 44.2405 120.828 45.615 120.216Z" fill="#DCDCDC"/>
<path id="bounce_3" d="M107.401 156.181C106.329 156.958 105.218 157.679 104.073 158.344C86.929 168.304 59.0541 168.304 41.8091 158.344C35.7651 154.857 31.833 150.606 29.997 146.138C26.597 137.83 30.458 128.738 41.597 122.27C42.8979 121.514 44.2385 120.828 45.613 120.216L25.904 108.747C24.5374 109.426 23.204 110.144 21.904 110.901C5.40402 120.492 -1.301 133.601 1.759 146.078C3.888 154.721 10.712 163.063 22.231 169.711C50.357 185.95 95.821 185.95 123.763 169.711C124.92 169.04 126.035 168.344 127.091 167.64L107.401 156.181Z" fill="url(#paint5_linear_508_494)"/>
<path id="bounce_4" d="M78.603 180.81C78.326 180.818 78.041 180.835 77.765 180.835C76.206 180.894 74.6381 180.927 73.0701 180.927C52.8701 180.927 33.7771 176.327 19.2991 167.958C17.6897 167.025 16.1583 166.061 14.705 165.066C8.78181 161.198 3.76685 156.093 0.00505066 150.102L36.959 139.79C39.0602 142.525 41.7138 144.788 44.7471 146.43C52.2081 150.739 62.235 153.112 72.982 153.112C74.466 153.112 75.933 153.07 77.382 152.97L78.603 180.81Z" fill="url(#paint6_linear_508_494)"/>
<path id="bounce_5" d="M78.603 180.81V199.882C76.767 199.957 74.9227 199.997 73.0701 200C52.8701 200 33.7771 195.4 19.2991 187.031C10.5991 182.01 4.06601 175.948 -0.000991821 169.174L-0.000991821 150.104C3.76076 156.095 8.77579 161.2 14.699 165.068C16.149 166.068 17.6803 167.032 19.293 167.96C33.771 176.327 52.869 180.929 73.064 180.929C74.632 180.929 76.199 180.895 77.759 180.837C78.041 180.835 78.326 180.819 78.603 180.81Z" fill="url(#paint7_linear_508_494)"/>
</g>
<g id="Group 461">
<g id="Group 444">
<path id="Path 732" d="M95.347 68.667L163.286 109.694V40.294L95.347 -0.0059967V68.667Z" fill="url(#paint8_linear_508_494)"/>
<path id="Path 733" d="M90.9171 70.628L158.856 111.655V42.255L90.9171 1.95501V70.628Z" fill="#EEF0F2"/>
<path id="Path 734" d="M163.286 40.297L158.857 42.258L90.918 1.95801L95.347 -0.00299072L163.286 40.297Z" fill="url(#paint9_linear_508_494)"/>
<path id="Path 735" d="M158.856 111.655L163.285 109.694V40.294L158.856 42.255V111.655Z" fill="url(#paint10_linear_508_494)"/>
<path id="Path 736" d="M90.9171 1.96001L158.856 42.26V55.552L90.9171 15.252V1.96001Z" fill="url(#paint11_linear_508_494)"/>
<path id="Path 737" d="M158.856 42.257L163.285 40.296V53.588L158.856 55.549V42.257Z" fill="url(#paint12_linear_508_494)"/>
</g>
<g id="Group 446">
<path id="Path 738" d="M99.4251 12.587C99.4251 12.587 99.4251 12.577 99.4251 12.573C99.4251 12.569 99.4251 12.553 99.4251 12.543C99.4251 12.533 99.4251 12.519 99.4251 12.507C99.4251 12.495 99.4251 12.488 99.4251 12.479C99.4251 12.47 99.4251 12.458 99.4251 12.447C99.4251 12.436 99.4251 12.433 99.4251 12.426C99.4251 12.419 99.4251 12.395 99.4201 12.38C99.4151 12.365 99.4201 12.362 99.4201 12.354C99.4201 12.346 99.4201 12.348 99.4201 12.345C99.4201 12.317 99.413 12.289 99.408 12.261C99.408 12.261 99.408 12.253 99.408 12.249C99.408 12.226 99.4 12.202 99.396 12.179V12.166L99.3891 12.133C99.3891 12.119 99.384 12.106 99.381 12.092L99.376 12.069L99.367 12.032C99.367 12.023 99.367 12.013 99.361 12.004L99.3521 11.97C99.3521 11.958 99.3461 11.946 99.3421 11.933V11.915L99.328 11.867L99.319 11.836V11.827C99.31 11.798 99.301 11.77 99.292 11.741V11.733L99.266 11.657V11.645L99.255 11.616L99.24 11.575L99.229 11.549L99.216 11.517L99.207 11.494L99.187 11.448L99.176 11.423V11.414L99.1391 11.334L99.1281 11.311L99.098 11.25L99.093 11.24L99.067 11.19L99.046 11.149V11.142C99.023 11.099 98.999 11.056 98.974 11.014L98.968 11.003L98.948 10.971L98.917 10.919L98.8881 10.873L98.855 10.822L98.844 10.805L98.833 10.79C98.802 10.744 98.771 10.699 98.739 10.655L98.668 10.563L98.615 10.497L98.605 10.485L98.541 10.41L98.521 10.388L98.479 10.342L98.471 10.334L98.443 10.304L98.412 10.271L98.4 10.259L98.369 10.228L98.3421 10.201L98.327 10.187L98.293 10.155L98.2691 10.133L98.25 10.116L98.216 10.086L98.195 10.068L98.172 10.049L98.1381 10.021L98.12 10.007L98.091 9.985L98.0601 9.961L98.047 9.951L98.0081 9.923L97.981 9.90401L97.974 9.899L97.903 9.852L97.838 9.81201L97.822 9.802L97.7691 9.772L97.749 9.76201L97.7221 9.748L97.7011 9.737L97.667 9.72101L97.643 9.71H97.6331L97.5661 9.682L97.499 9.65701H97.49L97.466 9.649L97.432 9.638H97.4151L97.386 9.63L97.3631 9.62401L97.34 9.619L97.3101 9.612H97.2951H97.268L97.234 9.60701H97.2221H97.195H97.1591H97.052H97H96.984H96.973C96.946 9.60701 96.921 9.61301 96.895 9.61801H96.887H96.872L96.825 9.63L96.803 9.63701L96.773 9.64601H96.766L96.7221 9.664L96.7011 9.673C96.6801 9.683 96.6591 9.694 96.6391 9.705L96.402 9.843L96.3831 9.85101C96.3621 9.86101 96.341 9.87201 96.32 9.88301L95.885 10.136C95.905 10.124 95.9257 10.1133 95.947 10.104L95.968 10.095L96.012 10.077L96.049 10.065L96.072 10.058L96.119 10.046H96.134H96.142C96.168 10.046 96.194 10.037 96.22 10.035H96.247H96.299H96.371H96.406H96.442H96.481L96.515 10.041L96.558 10.049L96.5871 10.056L96.6331 10.067L96.662 10.075L96.713 10.091L96.7371 10.099L96.813 10.127L96.8891 10.16L96.913 10.171L96.968 10.198L96.995 10.212L97.068 10.252C97.096 10.268 97.1231 10.284 97.1491 10.301H97.1541L97.2321 10.353L97.259 10.372L97.3111 10.41L97.343 10.434L97.3891 10.47L97.423 10.498L97.4671 10.535L97.501 10.565L97.543 10.603L97.577 10.635L97.619 10.676L97.651 10.707L97.694 10.752L97.723 10.782L97.772 10.836L97.792 10.858C97.815 10.884 97.838 10.911 97.86 10.938L97.87 10.951L97.926 11.021L97.996 11.113C98.029 11.157 98.06 11.202 98.09 11.248L98.1121 11.28L98.145 11.331L98.174 11.377L98.205 11.429L98.231 11.472C98.256 11.514 98.28 11.557 98.303 11.6L98.328 11.647L98.354 11.697L98.3881 11.768L98.4 11.792C98.414 11.823 98.428 11.853 98.442 11.884L98.453 11.909C98.463 11.932 98.4731 11.955 98.4821 11.978L98.495 12.01L98.521 12.077L98.532 12.106C98.543 12.135 98.553 12.165 98.563 12.194V12.202C98.574 12.234 98.584 12.266 98.593 12.302C98.593 12.312 98.5991 12.323 98.6021 12.333C98.6051 12.343 98.615 12.377 98.621 12.399L98.631 12.436L98.646 12.498C98.646 12.51 98.6487 12.5223 98.6541 12.535C98.6591 12.556 98.663 12.577 98.668 12.599C98.673 12.621 98.668 12.621 98.674 12.632C98.6793 12.66 98.6843 12.6877 98.689 12.715C98.689 12.715 98.689 12.723 98.689 12.727C98.6936 12.7583 98.698 12.7897 98.702 12.821V12.848C98.702 12.87 98.707 12.893 98.709 12.915V12.947C98.709 12.968 98.709 12.989 98.709 13.01C98.709 13.031 98.709 13.03 98.709 13.04C98.709 13.07 98.709 13.1 98.709 13.129C98.709 13.158 98.709 13.191 98.709 13.22C98.709 13.228 98.709 13.237 98.709 13.245C98.709 13.253 98.709 13.286 98.709 13.306C98.709 13.326 98.709 13.329 98.709 13.34C98.709 13.351 98.709 13.374 98.703 13.39C98.697 13.406 98.703 13.414 98.698 13.426C98.693 13.438 98.6981 13.456 98.6901 13.471L98.682 13.511C98.682 13.524 98.676 13.538 98.673 13.551C98.67 13.564 98.665 13.582 98.661 13.596L98.651 13.631L98.634 13.684L98.624 13.712C98.613 13.741 98.601 13.769 98.588 13.797C98.575 13.825 98.568 13.839 98.557 13.859C98.546 13.879 98.535 13.898 98.522 13.917L98.5141 13.928C98.5051 13.942 98.495 13.955 98.485 13.969L98.473 13.985L98.444 14.02L98.433 14.033C98.42 14.048 98.406 14.063 98.391 14.076L98.385 14.082L98.3471 14.116L98.332 14.128L98.298 14.154L98.283 14.164L98.234 14.196L98.6281 13.967L98.616 13.976L98.6021 13.986C98.5861 13.997 98.569 14.008 98.552 14.018L98.9871 13.765L99.037 13.734L99.051 13.724L99.085 13.698L99.099 13.686L99.137 13.652L99.143 13.646C99.157 13.632 99.1711 13.6177 99.1851 13.603L99.1961 13.59L99.225 13.555L99.2371 13.539L99.266 13.498L99.2741 13.487C99.2851 13.469 99.296 13.451 99.306 13.433C99.316 13.414 99.3261 13.394 99.3361 13.374C99.3491 13.347 99.36 13.319 99.372 13.29V13.283L99.379 13.262C99.385 13.245 99.391 13.227 99.397 13.209V13.195L99.402 13.174C99.402 13.159 99.4101 13.144 99.4141 13.129C99.4181 13.114 99.4141 13.117 99.4141 13.11C99.4141 13.103 99.4141 13.096 99.4141 13.089L99.422 13.049V13.028C99.422 13.02 99.422 13.011 99.422 13.003C99.422 12.995 99.422 12.979 99.428 12.966V12.948C99.428 12.937 99.428 12.927 99.428 12.916C99.428 12.905 99.428 12.893 99.428 12.882V12.868C99.428 12.853 99.428 12.837 99.428 12.821V12.796C99.428 12.796 99.428 12.796 99.428 12.79C99.428 12.764 99.428 12.737 99.428 12.71C99.4267 12.6513 99.4257 12.6103 99.4251 12.587Z" fill="url(#paint13_linear_508_494)"/>
<g id="Group 445">
<path id="Ellipse 266" d="M98.1853 14.1612C98.8354 13.7839 98.8345 12.5684 98.1833 11.4464C97.5322 10.3243 96.4773 9.72057 95.8271 10.0979C95.177 10.4751 95.1779 11.6906 95.8291 12.8127C96.4803 13.9347 97.5352 14.5385 98.1853 14.1612Z" fill="url(#paint14_linear_508_494)"/>
</g>
</g>
<g id="Group 448">
<path id="Path 739" d="M104.902 15.95C104.902 15.95 104.902 15.94 104.902 15.936C104.902 15.932 104.902 15.916 104.902 15.906C104.902 15.896 104.902 15.882 104.902 15.87C104.902 15.858 104.902 15.851 104.902 15.842C104.902 15.833 104.902 15.821 104.902 15.81C104.902 15.799 104.902 15.796 104.902 15.789C104.902 15.782 104.902 15.758 104.897 15.743C104.892 15.728 104.897 15.725 104.897 15.717C104.897 15.714 104.897 15.711 104.897 15.708C104.897 15.68 104.889 15.652 104.885 15.624C104.885 15.624 104.885 15.616 104.885 15.612C104.885 15.589 104.877 15.565 104.873 15.542V15.529L104.866 15.496L104.858 15.455L104.853 15.432L104.845 15.395C104.845 15.386 104.845 15.376 104.838 15.367L104.829 15.333L104.819 15.296V15.278L104.805 15.23L104.796 15.199C104.796 15.199 104.796 15.193 104.796 15.19C104.787 15.161 104.778 15.133 104.768 15.104V15.096L104.742 15.02V15.008L104.731 14.979L104.716 14.938L104.705 14.912L104.692 14.88L104.683 14.857L104.663 14.811L104.652 14.786V14.777L104.615 14.697L104.604 14.674L104.574 14.613L104.569 14.603L104.543 14.553L104.522 14.512V14.505C104.499 14.462 104.475 14.419 104.45 14.377L104.444 14.366L104.424 14.334L104.393 14.282L104.364 14.236L104.331 14.185L104.32 14.168L104.309 14.153C104.278 14.107 104.247 14.062 104.215 14.018C104.192 13.9867 104.169 13.956 104.145 13.926L104.092 13.86L104.082 13.848L104.018 13.773L103.998 13.751L103.956 13.705L103.948 13.697L103.92 13.667L103.889 13.634L103.877 13.622L103.846 13.591L103.819 13.564L103.804 13.55L103.77 13.518L103.746 13.496L103.727 13.479L103.693 13.449L103.672 13.431L103.649 13.412L103.615 13.384L103.597 13.37L103.568 13.348L103.537 13.324L103.524 13.314L103.485 13.286L103.458 13.267L103.451 13.262L103.38 13.215L103.315 13.175L103.299 13.165L103.246 13.135L103.226 13.125L103.198 13.111L103.177 13.1L103.143 13.084L103.119 13.073H103.109L103.042 13.045L102.975 13.02H102.966L102.942 13.012L102.908 13.001H102.891L102.861 12.993L102.838 12.987L102.815 12.982L102.785 12.975H102.77H102.743L102.709 12.97H102.697H102.67H102.634H102.527H102.475H102.459H102.448C102.421 12.97 102.396 12.976 102.37 12.981H102.362H102.347L102.3 12.993L102.278 13L102.248 13.009H102.241L102.197 13.027L102.176 13.036C102.155 13.046 102.134 13.057 102.114 13.068L101.877 13.206L101.858 13.214C101.837 13.224 101.816 13.235 101.795 13.246L101.36 13.499C101.38 13.487 101.401 13.477 101.423 13.467L101.444 13.458L101.488 13.44L101.525 13.428L101.548 13.421L101.595 13.409H101.61H101.618C101.644 13.409 101.67 13.401 101.696 13.398H101.723H101.775H101.847H101.882H101.918H101.957L101.991 13.403L102.034 13.411L102.063 13.418L102.109 13.43L102.139 13.438L102.19 13.454L102.214 13.462L102.289 13.49L102.365 13.523L102.389 13.534L102.444 13.561L102.471 13.575L102.544 13.615C102.572 13.631 102.599 13.647 102.626 13.664L102.704 13.716L102.731 13.735L102.783 13.773L102.814 13.797L102.86 13.833L102.894 13.861L102.938 13.898L102.972 13.928L103.014 13.966L103.048 13.998L103.09 14.039L103.122 14.07L103.165 14.115L103.194 14.145L103.243 14.199L103.263 14.221L103.331 14.301L103.341 14.314L103.397 14.384C103.421 14.414 103.444 14.445 103.467 14.476C103.5 14.52 103.531 14.565 103.561 14.611L103.583 14.643L103.616 14.694L103.645 14.739L103.677 14.791L103.702 14.834C103.727 14.876 103.751 14.919 103.774 14.962L103.799 15.009L103.825 15.059L103.859 15.13L103.871 15.154C103.885 15.185 103.899 15.215 103.913 15.246L103.924 15.271C103.934 15.294 103.944 15.317 103.953 15.34L103.966 15.372L103.992 15.439L104.003 15.468C104.014 15.497 104.024 15.527 104.034 15.556V15.564C104.045 15.596 104.055 15.628 104.065 15.664L104.074 15.695C104.081 15.717 104.087 15.739 104.093 15.761L104.103 15.797L104.118 15.859L104.126 15.896C104.131 15.917 104.135 15.938 104.14 15.96C104.145 15.982 104.14 15.982 104.146 15.993C104.152 16.021 104.156 16.048 104.161 16.076C104.161 16.076 104.161 16.084 104.161 16.088C104.161 16.119 104.17 16.151 104.174 16.182V16.209C104.174 16.231 104.179 16.254 104.181 16.276V16.308C104.181 16.329 104.181 16.35 104.181 16.371C104.181 16.392 104.181 16.391 104.181 16.401C104.181 16.431 104.181 16.461 104.181 16.49C104.181 16.519 104.181 16.552 104.181 16.581C104.181 16.589 104.181 16.598 104.181 16.606C104.181 16.614 104.181 16.647 104.181 16.667V16.701C104.181 16.7177 104.179 16.7343 104.175 16.751C104.175 16.763 104.175 16.775 104.169 16.787C104.163 16.799 104.169 16.817 104.161 16.832C104.153 16.847 104.156 16.859 104.153 16.872C104.15 16.885 104.147 16.899 104.144 16.912C104.141 16.925 104.136 16.943 104.132 16.957L104.122 16.992L104.105 17.045L104.095 17.073C104.084 17.102 104.072 17.13 104.059 17.157C104.046 17.184 104.039 17.199 104.028 17.219C104.017 17.239 104.006 17.258 103.993 17.277L103.985 17.288L103.956 17.329L103.944 17.345L103.915 17.38L103.904 17.393C103.891 17.4083 103.877 17.4227 103.862 17.436L103.856 17.442L103.818 17.476L103.803 17.488L103.769 17.514L103.754 17.524L103.705 17.555L104.099 17.326L104.088 17.335L104.074 17.345C104.058 17.356 104.041 17.367 104.024 17.376L104.459 17.123L104.509 17.091L104.523 17.081L104.557 17.055L104.571 17.043L104.609 17.009L104.615 17.003C104.629 16.989 104.643 16.975 104.657 16.96L104.668 16.947L104.697 16.912L104.709 16.896L104.738 16.855L104.746 16.844C104.757 16.827 104.768 16.808 104.778 16.79C104.788 16.771 104.798 16.751 104.808 16.731C104.82 16.704 104.832 16.676 104.844 16.647V16.64C104.844 16.633 104.844 16.626 104.851 16.619C104.858 16.612 104.863 16.584 104.869 16.566C104.875 16.548 104.869 16.557 104.869 16.552L104.874 16.531C104.874 16.516 104.882 16.501 104.886 16.485C104.89 16.469 104.886 16.473 104.886 16.466C104.886 16.459 104.886 16.452 104.886 16.445C104.886 16.438 104.892 16.419 104.894 16.405V16.384C104.894 16.376 104.894 16.367 104.894 16.359C104.894 16.351 104.894 16.335 104.899 16.323V16.305C104.899 16.295 104.899 16.284 104.899 16.273C104.899 16.262 104.899 16.25 104.899 16.239V16.225C104.899 16.21 104.899 16.194 104.899 16.178V16.153C104.899 16.153 104.899 16.153 104.899 16.147C104.899 16.121 104.899 16.094 104.899 16.067C104.903 16.001 104.902 15.976 104.902 15.95Z" fill="url(#paint15_linear_508_494)"/>
<g id="Group 447">
<path id="Path 740" d="M102.489 13.58C102.973 13.8946 103.376 14.3192 103.665 14.8192C103.953 15.3193 104.12 15.8805 104.15 16.457C104.15 17.514 103.398 17.941 102.478 17.41C101.994 17.0955 101.591 16.6708 101.302 16.1708C101.014 15.6708 100.847 15.1096 100.817 14.533C100.82 13.475 101.568 13.049 102.489 13.58Z" fill="url(#paint16_linear_508_494)"/>
</g>
</g>
<g id="Group 450">
<path id="Path 741" d="M110.379 19.317C110.379 19.317 110.379 19.307 110.379 19.303C110.379 19.299 110.379 19.283 110.379 19.273C110.379 19.263 110.379 19.249 110.379 19.237C110.379 19.225 110.379 19.219 110.379 19.209C110.379 19.199 110.379 19.188 110.379 19.177C110.379 19.166 110.379 19.163 110.379 19.156C110.379 19.149 110.379 19.125 110.374 19.11V19.084C110.374 19.084 110.374 19.078 110.374 19.075C110.371 19.047 110.367 19.019 110.362 18.991V18.979C110.362 18.956 110.354 18.932 110.35 18.909V18.896L110.344 18.863L110.336 18.822L110.331 18.799L110.323 18.763C110.323 18.754 110.323 18.744 110.316 18.735L110.307 18.701C110.307 18.689 110.301 18.677 110.297 18.664V18.646L110.283 18.598L110.274 18.567V18.558C110.265 18.529 110.256 18.501 110.247 18.472V18.465L110.221 18.389V18.377L110.21 18.348L110.195 18.307L110.184 18.281L110.171 18.249L110.162 18.226L110.142 18.18L110.131 18.155V18.146L110.094 18.066L110.083 18.043L110.053 17.982L110.048 17.972L110.023 17.922L110.002 17.881V17.874C109.979 17.831 109.955 17.788 109.93 17.746L109.924 17.735L109.904 17.703L109.873 17.651L109.844 17.605L109.811 17.554L109.8 17.537L109.789 17.522C109.758 17.476 109.727 17.431 109.695 17.387C109.672 17.3557 109.649 17.325 109.625 17.295L109.572 17.229L109.562 17.217L109.498 17.142L109.478 17.12L109.436 17.074L109.428 17.066L109.4 17.036L109.369 17.003L109.357 16.991L109.326 16.96L109.299 16.933L109.284 16.919L109.25 16.887L109.226 16.865L109.207 16.848L109.173 16.818L109.152 16.8L109.129 16.781L109.095 16.753L109.077 16.739L109.048 16.717L109.016 16.693L109.003 16.683L108.964 16.655L108.938 16.636H108.931L108.86 16.589L108.795 16.549L108.779 16.539L108.726 16.509L108.706 16.499L108.679 16.485L108.658 16.474L108.624 16.458L108.6 16.447H108.59L108.523 16.419L108.456 16.394H108.447L108.423 16.386L108.389 16.375H108.372L108.343 16.367L108.32 16.361L108.296 16.356L108.267 16.349H108.252H108.225L108.191 16.344H108.179H108.152H108.116H108.009H107.957H107.941H107.93C107.903 16.344 107.877 16.35 107.852 16.355H107.844H107.829L107.782 16.367L107.76 16.374L107.73 16.383H107.723L107.679 16.401L107.658 16.41C107.637 16.42 107.616 16.431 107.596 16.443L107.359 16.581L107.34 16.589C107.319 16.599 107.298 16.61 107.278 16.621L106.843 16.874C106.863 16.862 106.884 16.851 106.905 16.842L106.926 16.833L106.97 16.815L107.007 16.803L107.029 16.796L107.076 16.784H107.091H107.099C107.125 16.784 107.151 16.776 107.177 16.773H107.204H107.257H107.329H107.363H107.399H107.438L107.472 16.778L107.515 16.786L107.544 16.793L107.59 16.805L107.619 16.813L107.67 16.829L107.694 16.837L107.77 16.865L107.847 16.898L107.871 16.909L107.925 16.936L107.952 16.95L108.025 16.99C108.052 17.006 108.08 17.022 108.106 17.039H108.111L108.189 17.091L108.216 17.11L108.268 17.148L108.3 17.172L108.346 17.208L108.38 17.236L108.424 17.273L108.458 17.303L108.5 17.341L108.534 17.373L108.577 17.414L108.608 17.445L108.651 17.49L108.68 17.52L108.729 17.574L108.749 17.596L108.818 17.676L108.828 17.689L108.884 17.759C108.908 17.789 108.931 17.82 108.954 17.851C108.986 17.895 109.018 17.94 109.048 17.986L109.07 18.018L109.103 18.069L109.132 18.114L109.163 18.166L109.189 18.209C109.214 18.251 109.238 18.294 109.261 18.337L109.286 18.384L109.312 18.434L109.347 18.504L109.358 18.528C109.372 18.559 109.386 18.589 109.4 18.62L109.411 18.645C109.421 18.668 109.431 18.691 109.44 18.714L109.453 18.746L109.479 18.813L109.49 18.842C109.501 18.871 109.511 18.901 109.521 18.93V18.938C109.532 18.97 109.542 19.0033 109.551 19.038C109.551 19.048 109.557 19.059 109.56 19.069L109.579 19.135L109.589 19.172L109.604 19.234L109.613 19.271L109.627 19.335C109.627 19.346 109.627 19.357 109.634 19.368C109.639 19.396 109.644 19.423 109.649 19.451V19.463C109.654 19.4943 109.658 19.5257 109.662 19.557C109.662 19.566 109.662 19.575 109.662 19.584C109.662 19.593 109.662 19.629 109.669 19.651V19.683C109.669 19.704 109.669 19.725 109.669 19.746C109.669 19.767 109.669 19.766 109.669 19.776C109.669 19.806 109.669 19.836 109.669 19.865C109.669 19.894 109.669 19.927 109.669 19.957C109.669 19.965 109.669 19.974 109.669 19.982C109.669 19.99 109.669 20.023 109.669 20.043C109.669 20.063 109.669 20.066 109.669 20.077C109.669 20.088 109.669 20.111 109.663 20.127C109.657 20.143 109.663 20.151 109.658 20.163C109.653 20.175 109.653 20.193 109.65 20.208C109.647 20.223 109.645 20.235 109.642 20.248C109.639 20.261 109.636 20.275 109.633 20.288C109.63 20.301 109.625 20.319 109.621 20.334L109.611 20.369L109.594 20.422L109.584 20.45C109.573 20.479 109.561 20.507 109.548 20.535C109.535 20.563 109.528 20.577 109.517 20.597C109.506 20.617 109.495 20.6363 109.482 20.655L109.474 20.666L109.446 20.707L109.434 20.723L109.405 20.758L109.394 20.771C109.381 20.786 109.367 20.801 109.352 20.814L109.346 20.82L109.308 20.854L109.293 20.866L109.259 20.892L109.244 20.902L109.195 20.934L109.589 20.705L109.578 20.714L109.564 20.724L109.514 20.756L109.949 20.503L109.999 20.472L110.013 20.462L110.047 20.436L110.061 20.424L110.099 20.39L110.105 20.384C110.119 20.37 110.133 20.3557 110.146 20.341L110.157 20.328L110.186 20.293L110.198 20.277L110.227 20.236L110.235 20.225C110.246 20.2077 110.257 20.1897 110.267 20.171C110.277 20.152 110.287 20.132 110.297 20.112C110.31 20.085 110.321 20.057 110.333 20.028V20.021L110.34 20C110.346 19.983 110.352 19.965 110.358 19.947V19.933L110.363 19.912C110.363 19.897 110.371 19.882 110.375 19.866C110.379 19.85 110.375 19.854 110.375 19.847C110.375 19.84 110.375 19.833 110.375 19.826C110.375 19.819 110.38 19.8 110.383 19.786V19.765V19.74L110.388 19.704V19.686C110.388 19.675 110.388 19.665 110.388 19.654C110.388 19.643 110.388 19.631 110.388 19.62V19.606C110.388 19.591 110.388 19.575 110.388 19.559V19.534C110.388 19.534 110.388 19.534 110.388 19.528C110.388 19.502 110.388 19.475 110.388 19.448C110.38 19.368 110.38 19.343 110.379 19.317Z" fill="url(#paint17_linear_508_494)"/>
<g id="Group 449">
<path id="Ellipse 267" d="M109.139 20.8942C109.789 20.5169 109.789 19.3014 109.137 18.1794C108.486 17.0573 107.431 16.4536 106.781 16.8309C106.131 17.2081 106.132 18.4236 106.783 19.5457C107.434 20.6677 108.489 21.2715 109.139 20.8942Z" fill="url(#paint18_linear_508_494)"/>
</g>
</g>
<g id="Group 460">
<path id="Path 742" d="M99.263 66.162L146.046 93.911C146.31 94.0673 146.61 94.1511 146.917 94.1537C147.224 94.1564 147.525 94.0779 147.792 93.9261C148.058 93.7744 148.28 93.5549 148.434 93.2899C148.588 93.0248 148.67 92.7237 148.67 92.417V57.938C148.67 57.3069 148.506 56.6867 148.194 56.1382C147.881 55.5898 147.432 55.1321 146.889 54.81L100.312 27.184C100.045 27.0259 99.7414 26.9411 99.4313 26.9384C99.1212 26.9357 98.816 27.0152 98.5465 27.1686C98.277 27.3221 98.0529 27.5442 97.8971 27.8122C97.7412 28.0803 97.6591 28.3849 97.659 28.695V63.345C97.6591 63.9133 97.8069 64.4719 98.0881 64.9658C98.3693 65.4597 98.7743 65.8719 99.263 66.162V66.162Z" fill="url(#paint19_linear_508_494)"/>
<path id="Path 743" d="M97.39 67.009L144.173 94.758C144.437 94.9147 144.737 94.9987 145.044 95.0015C145.351 95.0043 145.653 94.9258 145.92 94.774C146.186 94.6223 146.408 94.4026 146.562 94.1373C146.716 93.8721 146.797 93.5708 146.797 93.264V58.785C146.797 58.1539 146.633 57.5336 146.321 56.9852C146.008 56.4367 145.559 55.979 145.016 55.657L98.439 28.03C98.1723 27.8719 97.8684 27.7871 97.5583 27.7844C97.2482 27.7817 96.9429 27.8612 96.6734 28.0146C96.404 28.1681 96.18 28.3902 96.0241 28.6583C95.8683 28.9263 95.786 29.2309 95.786 29.541V64.191C95.7858 64.7595 95.9337 65.3183 96.2149 65.8124C96.4962 66.3064 96.9011 66.7189 97.39 67.009V67.009Z" fill="#FEFEFE"/>
<g id="Group 459">
<g id="Group 452">
<path id="Path 744" d="M106.369 43.004L99.838 39.078V34.191L106.369 38.117V43.004Z" fill="url(#paint20_linear_508_494)"/>
<g id="Group 451">
<path id="Path 745" d="M144.821 62.172L109.721 41.077C109.59 40.9954 109.48 40.885 109.398 40.7541C109.316 40.6232 109.266 40.4754 109.25 40.322V40.322C109.25 40.063 109.462 39.978 109.721 40.134L144.821 61.234C144.952 61.3156 145.062 61.426 145.144 61.5569C145.226 61.6878 145.276 61.8355 145.292 61.989V61.989C145.293 62.243 145.08 62.325 144.821 62.172Z" fill="url(#paint21_linear_508_494)"/>
<path id="Path 746" d="M144.821 64.145L109.721 43.045C109.59 42.9634 109.48 42.853 109.398 42.7221C109.316 42.5912 109.266 42.4434 109.25 42.29V42.29C109.25 42.031 109.462 41.946 109.721 42.102L144.821 63.197C144.952 63.2786 145.062 63.389 145.144 63.5199C145.226 63.6508 145.276 63.7986 145.292 63.952V63.952C145.293 64.216 145.08 64.3 144.821 64.145Z" fill="url(#paint22_linear_508_494)"/>
<path id="Path 747" d="M135.215 60.342L109.724 45.021C109.593 44.9394 109.483 44.829 109.401 44.6981C109.319 44.5673 109.269 44.4194 109.253 44.266V44.266C109.253 44.007 109.465 43.922 109.724 44.078L135.215 59.399C135.346 59.4806 135.456 59.591 135.538 59.7219C135.62 59.8527 135.67 60.0006 135.686 60.154V60.154C135.686 60.414 135.474 60.498 135.215 60.342Z" fill="url(#paint23_linear_508_494)"/>
</g>
</g>
<g id="Group 454">
<path id="Path 748" d="M106.369 50.563L99.838 46.637V41.75L106.369 45.676V50.563Z" fill="url(#paint24_linear_508_494)"/>
<g id="Group 453">
<path id="Path 749" d="M144.821 69.736L109.721 48.636C109.59 48.5544 109.48 48.444 109.398 48.3131C109.316 48.1823 109.266 48.0344 109.25 47.881V47.881C109.25 47.622 109.462 47.537 109.721 47.693L144.821 68.793C144.952 68.8746 145.062 68.9851 145.144 69.1159C145.226 69.2468 145.276 69.3945 145.292 69.548V69.548C145.293 69.802 145.08 69.887 144.821 69.736Z" fill="url(#paint25_linear_508_494)"/>
<path id="Path 750" d="M144.821 71.704L109.721 50.604C109.59 50.5224 109.48 50.412 109.398 50.2811C109.316 50.1502 109.266 50.0024 109.25 49.849V49.849C109.25 49.59 109.462 49.505 109.721 49.661L144.821 70.756C144.952 70.8376 145.062 70.948 145.144 71.0789C145.226 71.2098 145.276 71.3575 145.292 71.511V71.511C145.293 71.775 145.08 71.859 144.821 71.704Z" fill="url(#paint26_linear_508_494)"/>
<path id="Path 751" d="M135.215 67.902L109.724 52.581C109.593 52.4994 109.483 52.3889 109.401 52.2581C109.319 52.1272 109.269 51.9794 109.253 51.826V51.826C109.253 51.567 109.465 51.482 109.724 51.638L135.215 66.959C135.346 67.0406 135.456 67.151 135.538 67.2819C135.62 67.4127 135.67 67.5606 135.686 67.714V67.714C135.686 67.973 135.474 68.058 135.215 67.902Z" fill="url(#paint27_linear_508_494)"/>
</g>
</g>
<g id="Group 456">
<path id="Path 752" d="M106.369 58.122L99.838 54.196V49.309L106.369 53.235V58.122Z" fill="url(#paint28_linear_508_494)"/>
<g id="Group 455">
<path id="Path 753" d="M144.821 77.29L109.721 56.19C109.59 56.1084 109.48 55.998 109.398 55.8671C109.316 55.7363 109.266 55.5884 109.25 55.435V55.435C109.25 55.176 109.462 55.091 109.721 55.247L144.821 76.347C144.952 76.4286 145.062 76.539 145.144 76.6699C145.226 76.8007 145.276 76.9486 145.292 77.102V77.102C145.293 77.361 145.08 77.447 144.821 77.29Z" fill="url(#paint29_linear_508_494)"/>
<path id="Path 754" d="M144.821 79.262L109.721 58.162C109.59 58.0804 109.48 57.9699 109.398 57.8391C109.316 57.7082 109.266 57.5604 109.25 57.407V57.407C109.25 57.148 109.462 57.063 109.721 57.219L144.821 78.319C144.952 78.4006 145.062 78.511 145.144 78.6419C145.226 78.7727 145.276 78.9206 145.292 79.074V79.074C145.293 79.333 145.08 79.418 144.821 79.262Z" fill="url(#paint30_linear_508_494)"/>
<path id="Path 755" d="M135.215 75.461L109.724 60.14C109.593 60.0584 109.483 59.9479 109.401 59.8171C109.319 59.6862 109.269 59.5384 109.253 59.385V59.385C109.253 59.126 109.465 59.041 109.724 59.197L135.215 74.518C135.346 74.5996 135.456 74.71 135.538 74.8409C135.62 74.9717 135.67 75.1196 135.686 75.273V75.273C135.686 75.532 135.474 75.617 135.215 75.461Z" fill="url(#paint31_linear_508_494)"/>
</g>
</g>
<g id="Group 458">
<path id="Path 756" d="M106.369 65.681L99.838 61.755V56.868L106.369 60.794V65.681Z" fill="url(#paint32_linear_508_494)"/>
<g id="Group 457">
<path id="Path 757" d="M144.821 84.849L109.721 63.754C109.59 63.6724 109.48 63.5619 109.398 63.4311C109.316 63.3002 109.266 63.1525 109.25 62.999V62.999C109.25 62.74 109.462 62.655 109.721 62.811L144.821 83.906C144.952 83.9876 145.062 84.098 145.144 84.2289C145.226 84.3597 145.276 84.5076 145.292 84.661V84.661C145.293 84.92 145.08 85.004 144.821 84.849Z" fill="url(#paint33_linear_508_494)"/>
<path id="Path 758" d="M144.821 86.821L109.721 65.726C109.59 65.6444 109.48 65.534 109.398 65.4031C109.316 65.2722 109.266 65.1244 109.25 64.971V64.971C109.25 64.712 109.462 64.627 109.721 64.783L144.821 85.883C144.952 85.9646 145.062 86.075 145.144 86.2059C145.226 86.3368 145.276 86.4846 145.292 86.638V86.638C145.293 86.892 145.08 86.977 144.821 86.821Z" fill="url(#paint34_linear_508_494)"/>
<path id="Path 759" d="M135.215 83.02L109.724 67.699C109.593 67.6174 109.483 67.507 109.401 67.3761C109.319 67.2452 109.269 67.0974 109.253 66.944V66.944C109.253 66.685 109.465 66.6 109.724 66.756L135.215 82.077C135.346 82.1586 135.456 82.269 135.538 82.3999C135.62 82.5308 135.67 82.6785 135.686 82.832V82.832C135.686 83.091 135.474 83.176 135.215 83.02Z" fill="url(#paint35_linear_508_494)"/>
</g>
</g>
</g>
</g>
</g>
<g id="translate_2">
<path id="Path 760" d="M79.064 36.061C79.064 36.061 83.0181 35.254 83.4161 35.861C83.719 36.3812 83.9342 36.9478 84.053 37.538C84.144 37.838 84.203 38.578 85.21 38.625C86.217 38.672 87.877 38.609 87.9 39.382C87.923 40.155 81.4431 39.482 81.4431 39.482C81.6683 39.7149 81.9373 39.901 82.2347 40.0295C82.5321 40.1581 82.852 40.2265 83.176 40.231C84.253 40.231 84.4171 40.863 84.4171 40.957C83.5405 41.3673 82.5545 41.4824 81.607 41.285C80.5196 40.9723 79.5015 40.4558 78.607 39.763C78.607 39.763 77.692 37.294 79.064 36.061Z" fill="url(#paint36_linear_508_494)"/>
<path id="Path 761" d="M56.7759 25.282C56.7759 25.282 68.176 32.874 69.624 33.412C71.072 33.95 79.36 35.833 79.36 35.833C79.36 35.833 78.446 36.317 78.446 38.038C78.374 38.8877 78.582 39.7375 79.038 40.458C79.038 40.458 68.711 39.058 67.043 38.358C65.375 37.658 60.212 34.869 60.212 34.869L56.7759 25.282Z" fill="url(#paint37_linear_508_494)"/>
<g id="Group 465">
<g id="Group 464">
<g id="Group 462">
<path id="Path 762" d="M56.0611 87.372C56.0611 87.372 55.3211 89.9779 56.0611 90.6649C57.9751 92.4399 59.077 91.3349 61.127 92.8729C63.177 94.4109 63.919 95.415 66.072 94.851C68.225 94.287 68.236 91.6509 65.641 90.4089C63.134 89.2089 61.1291 87.538 60.5651 85.794C60.0011 84.05 56.0611 87.372 56.0611 87.372Z" fill="#3E3E3E"/>
<path id="Path 763" d="M61.3929 52.514C61.3929 52.514 62.612 67.695 62.402 70.49C62.192 73.285 61.6419 76.01 61.3929 80.413C61.2287 82.6459 61.2287 84.888 61.3929 87.121C61.3929 87.121 61.424 87.959 59.677 88.449C57.93 88.939 56.043 87.401 56.043 87.401C56.043 87.401 54.077 80.483 54.606 76.57C55.135 72.657 56.183 71.119 56.183 71.119L54.37 63.712C54.37 63.712 53.326 64.376 52.759 60.637C52.4485 58.8348 52.2617 57.0136 52.2 55.186L61.3929 52.514Z" fill="url(#paint38_linear_508_494)"/>
<path id="Path 764" d="M41.903 92.683C41.7175 93.0645 41.621 93.4832 41.621 93.9075C41.621 94.3317 41.7175 94.7504 41.903 95.132C42.544 96.414 43.775 97.439 45.003 99.032C46.231 100.625 47.203 101.442 48.284 101.544C49.365 101.646 52.693 101.031 51.514 99.083C50.335 97.135 49.065 96.109 47.982 94.571C47.2927 93.5028 46.8509 92.2939 46.689 91.033L41.903 92.683Z" fill="#3E3E3E"/>
<path id="Path 765" d="M43.909 53.832C43.909 53.832 43.092 57.798 43.604 59.59C43.9167 60.681 44.3016 61.75 44.756 62.79L44.096 73.671C42.9039 76.8494 42.0943 80.1583 41.684 83.528C41.364 87.88 41.364 92.105 41.364 92.105C41.7385 92.627 42.2669 93.0187 42.8752 93.2253C43.4834 93.4319 44.1411 93.443 44.756 93.257C47.056 92.681 47.444 91.529 47.444 91.529C47.444 91.529 47.892 80.072 50.772 75.016C53.652 69.96 56.629 62.503 55.733 54.439C54.837 46.375 43.909 53.832 43.909 53.832Z" fill="url(#paint39_linear_508_494)"/>
</g>
<path id="Path 766" d="M46.137 27.217C46.137 27.217 39.837 31.256 39.879 32.276C39.921 33.296 43.43 44.476 43.873 48.076C44.093 50.5744 43.8987 53.0919 43.298 55.527C43.298 55.527 46.847 59.394 54.125 58.727C61.403 58.06 61.759 52.78 61.759 52.78C61.759 52.78 60.516 32.187 59.096 29.08C57.676 25.973 56.833 24.686 55.19 24.775C53.547 24.864 46.137 27.217 46.137 27.217Z" fill="url(#paint40_linear_508_494)"/>
<path id="Path 767" d="M52.688 24.071V27.553C52.688 27.553 52.873 28.724 51.271 28.94C49.669 29.156 46.071 27.296 46.071 27.296L46.408 19.973L52.688 24.071Z" fill="url(#paint41_linear_508_494)"/>
<path id="Path 768" d="M45.825 26.313L50.632 28.067L49.382 30.767L44.925 28.02L45.825 26.313Z" fill="url(#paint42_linear_508_494)"/>
<path id="Path 769" d="M52.6939 26.735L52.353 27.872L53.587 28.957L54.098 25.921L52.6939 26.735Z" fill="url(#paint43_linear_508_494)"/>
<g id="Group 463">
<path id="Path 770" d="M54.089 18.002C54.26 18.9159 54.3325 19.8456 54.305 20.775C54.12 20.96 53.843 21.206 53.843 21.206C53.843 21.206 54.372 21.915 54.354 22.223C54.336 22.531 54.17 25.797 54.099 25.923C53.5072 26.468 52.7973 26.8688 52.025 27.094C51.286 27.186 47.2799 24.66 46.5099 24.013C45.7399 23.366 46.017 19.453 46.017 19.453C46.8782 18.9126 47.7738 18.4289 48.698 18.005L54.089 18.002Z" fill="url(#paint44_linear_508_494)"/>
<path id="Path 771" d="M55.579 17.501C55.579 17.501 53.7319 19.976 51.7789 19.831C50.9449 19.7971 50.1146 19.7005 49.295 19.542C49.295 19.542 49.895 20.893 49.416 21.303C48.937 21.713 49.271 22.919 48.837 22.919C48.403 22.919 48.4749 20.819 47.7029 20.796C46.9309 20.773 47.003 21.927 47.317 22.543C47.631 23.159 47.172 24.703 46.256 24.703C45.34 24.703 44.2119 22.343 43.4639 20.803C43.0213 19.8436 42.9434 18.7557 43.2449 17.743C43.2449 17.743 44.217 12.916 48.583 13.712C51.2484 14.2274 53.6909 15.5502 55.579 17.501V17.501Z" fill="#3E3E3E"/>
</g>
</g>
<path id="Path 772" d="M45.17 57.95C45.17 57.95 46.611 59.085 46.829 59.829C46.9599 60.2696 47.0164 60.7288 46.996 61.188C46.996 61.188 46.677 61.444 46.548 60.944L46.419 60.444C46.2795 60.9623 46.2576 61.5052 46.355 62.033C46.547 62.661 46.824 63.708 46.363 63.541C45.5025 63.0349 44.7645 62.3447 44.202 61.52C43.856 60.866 42.724 58.805 42.724 58.805C43.5706 58.6188 44.3918 58.3318 45.17 57.95V57.95Z" fill="url(#paint45_linear_508_494)"/>
</g>
<path id="Path 773" d="M40.472 32.391C38.858 32.283 37.672 37.555 36.814 40.405C35.956 43.255 35.577 44.705 35.846 45.838C36.115 46.971 42.221 59.393 42.221 59.393C42.5272 59.6227 42.8997 59.7469 43.2825 59.7469C43.6653 59.7469 44.0378 59.6227 44.344 59.393C45.0452 58.867 45.5793 58.1496 45.882 57.327C45.882 57.327 40.848 46.645 41.063 45.247C41.278 43.849 43.806 38.9 43.752 36.211C43.698 33.522 40.472 32.391 40.472 32.391Z" fill="url(#paint46_linear_508_494)"/>
</g>
<g id="translate_1">
<path id="Union 2" d="M5.15501 111.938C4.52648 110.831 4.0798 109.63 3.83201 108.382C3.68556 108.058 3.59218 107.713 3.55516 107.359C3.32816 105.548 4.97308 101.112 6.54808 96.4749C7.46861 93.7257 9.12616 91.2819 11.3401 89.41L12.761 95.7581L8.86107 107.152C8.84924 107.372 8.80621 107.588 8.73314 107.796L12.4822 116.656C11.6666 116.727 10.9037 117.089 10.334 117.677C10.0933 117.903 9.91754 118.188 9.82469 118.505C9.73184 118.821 9.72549 119.157 9.80613 119.477C8.09402 117.068 6.54029 114.549 5.15501 111.938V111.938Z" fill="url(#paint47_linear_508_494)"/>
<g id="Group 468">
<g id="Group 467">
<path id="Path 776" d="M10.5059 153.321C10.5059 153.321 10.0619 155.938 10.5059 156.282C10.9499 156.626 14.369 156.701 14.929 156.282C15.489 155.863 15.87 153.765 16.629 152.354C17.388 150.943 17.468 148.77 16.095 148.541C15.6765 148.441 15.2392 148.452 14.8262 148.572C14.4131 148.693 14.0385 148.918 13.739 149.227C13.433 149.532 10.5059 153.321 10.5059 153.321Z" fill="#3E3E3E"/>
<path id="Path 777" d="M20.2029 157.452C20.2029 157.452 19.2139 160.034 19.6669 160.427C20.1199 160.82 21.2669 161.786 21.9929 161.695C22.7189 161.604 24.2279 160.266 25.5569 159.576C26.8859 158.886 28.1569 158.463 28.1569 157.708C28.1569 156.953 28.1269 155.534 26.8569 155.624C24.607 156.111 22.3857 156.721 20.2029 157.452V157.452Z" fill="#3E3E3E"/>
<path id="Path 778" d="M10.2069 117.714C9.36525 119.655 9.15537 121.813 9.60697 123.88C9.85886 125.021 10.2362 126.131 10.732 127.189V136.989C10.2496 139.809 10.0154 142.666 10.032 145.527C10.002 150.756 10.032 152.807 10.032 152.807C10.032 152.807 10.068 153.535 12.12 153.734C13.1013 153.941 14.1248 153.751 14.966 153.205C14.966 153.205 14.366 144.071 16.687 137.85C19.008 131.629 18.937 118.193 18.937 118.193L10.2069 117.714Z" fill="url(#paint48_linear_508_494)"/>
<path id="Path 779" d="M11.993 89.21C10.254 89.403 7.94495 92.496 8.71795 97.134C9.49095 101.772 10.9609 106.964 10.9609 110.673C10.9504 112.953 10.6136 115.22 9.96093 117.405C9.96093 117.405 11.9359 120.519 18.4429 120.841C24.9499 121.163 26.043 118.2 26.043 118.2C26.043 118.2 26.5579 96.618 25.4629 95.459C24.3679 94.3 11.993 89.21 11.993 89.21Z" fill="url(#paint49_linear_508_494)"/>
<path id="Path 780" d="M25.162 82.225C25.2648 83.0013 25.2648 83.7877 25.162 84.564C24.962 84.964 24.671 85.113 24.816 85.546C24.9729 85.8029 25.0721 86.0909 25.1066 86.39C25.1412 86.6891 25.1102 86.9921 25.016 87.2781C24.731 88.2601 24.6439 89.905 24.1819 90.021C23.5458 90.189 22.9193 90.3913 22.305 90.6271C22.0448 91.1658 21.8324 91.7262 21.67 92.302L16.1479 90.641L17.5989 85.026C17.5989 85.026 19.938 81.879 20.082 81.85C20.226 81.821 25.162 82.225 25.162 82.225Z" fill="url(#paint50_linear_508_494)"/>
<path id="Path 781" d="M26.4289 79.711C27.2569 80.111 26.2289 82.167 25.0599 82.565C23.8909 82.963 23.771 83.24 23.894 84.165C24.017 85.09 23.3109 85.239 23.3719 85.822C23.4329 86.405 23.341 86.804 23.004 86.804C22.667 86.804 22.6359 85.024 22.2369 84.779C21.8379 84.534 21.3169 86.032 21.5929 87.079C21.8689 88.126 20.939 88.979 19.865 89.168C18.791 89.357 17.014 89.059 16.581 88.445C15.6964 87.0563 15.1245 85.4918 14.905 83.86C14.8272 83.4112 14.9281 82.9498 15.1862 82.5745C15.4443 82.1992 15.839 81.9399 16.2859 81.852C16.2859 81.852 15.795 78.644 18.342 78.736C20.889 78.828 23.777 78.955 24.329 78.925C25.0651 79.078 25.7733 79.3431 26.4289 79.711V79.711Z" fill="#3E3E3E"/>
<path id="Path 782" d="M14.8519 90.56C14.8519 90.56 15.3059 89.834 15.8599 89.887C16.4139 89.94 18.014 90.8469 19.776 91.1669C21.538 91.4869 21.8839 91.5669 22.0449 92.2079C22.1541 92.6914 22.2296 93.182 22.271 93.6759C22.271 93.6759 15.6799 91.741 14.8519 90.56Z" fill="url(#paint51_linear_508_494)"/>
<path id="Path 783" d="M15.4629 120.454C15.4629 120.454 14.089 125.463 15.749 127.469C16.4493 128.434 17.3162 129.267 18.309 129.928L20.6589 141.37C20.1417 144.62 19.8411 147.9 19.759 151.19V156.584C19.8928 157.107 20.2119 157.563 20.657 157.869C21.1021 158.174 21.6429 158.307 22.1789 158.244C22.7304 158.26 23.2783 158.15 23.7809 157.922C24.2834 157.695 24.7274 157.355 25.079 156.93C25.079 156.93 25.84 144.62 27.085 140.54C28.33 136.46 25.7049 118.74 25.7049 118.74C25.7049 118.74 22.3689 122.152 15.4629 120.454Z" fill="url(#paint52_linear_508_494)"/>
</g>
</g>
<path id="Union 1" d="M25.514 123.507C25.0703 123.239 24.7173 122.844 24.5008 122.373C24.2843 121.902 24.2145 121.377 24.3001 120.866L26.7291 113.017C25.3764 109.371 24.2325 105.651 23.303 101.874C22.219 96.9952 23.545 95.1072 25.469 95.4592C27.936 95.9112 32.9991 113.679 32.9991 113.679C33.2781 114.635 27.9571 123.17 27.9571 123.17C27.7928 123.371 27.5866 123.534 27.3528 123.647C27.1191 123.76 26.8636 123.82 26.6041 123.824C26.2192 123.816 25.8433 123.706 25.514 123.507V123.507Z" fill="url(#paint53_linear_508_494)"/>
<path id="Path 786" d="M24.2689 121.538C24.2689 121.538 23.735 121.851 24.004 122.723C24.273 123.595 25.457 124.556 25.569 125.473C25.681 126.39 26.4019 129.392 26.9689 129.154C27.5359 128.916 27.692 127.038 27.692 125.607C27.7346 124.929 27.6438 124.25 27.4249 123.607C27.4249 123.607 24.8479 123.84 24.2689 121.538Z" fill="url(#paint54_linear_508_494)"/>
</g>
</g>
</g>
<defs>
<linearGradient id="paint0_linear_508_494" x1="71.3847" y1="102.186" x2="71.3847" y2="140.135" gradientUnits="userSpaceOnUse">
<stop stop-color="#09C957"/>
<stop offset="1" stop-color="#42D17C"/>
</linearGradient>
<linearGradient id="paint1_linear_508_494" x1="143.179" y1="165.135" x2="117.276" y2="151.928" gradientUnits="userSpaceOnUse">
<stop stop-color="#09C957"/>
<stop offset="1" stop-color="#42D17C"/>
</linearGradient>
<linearGradient id="paint2_linear_508_494" x1="25.905" y1="114.243" x2="45.614" y2="114.243" gradientUnits="userSpaceOnUse">
<stop stop-color="#09C957"/>
<stop offset="1" stop-color="#42D17C"/>
</linearGradient>
<linearGradient id="paint3_linear_508_494" x1="107.4" y1="161.673" x2="127.093" y2="161.673" gradientUnits="userSpaceOnUse">
<stop stop-color="#09C957"/>
<stop offset="1" stop-color="#42D17C"/>
</linearGradient>
<linearGradient id="paint4_linear_508_494" x1="126.11" y1="146.961" x2="101.903" y2="75.5785" gradientUnits="userSpaceOnUse">
<stop stop-color="#09C957"/>
<stop offset="1" stop-color="#42D17C"/>
</linearGradient>
<linearGradient id="paint5_linear_508_494" x1="1.03995" y1="145.319" x2="127.091" y2="145.319" gradientUnits="userSpaceOnUse">
<stop stop-color="#F6F6F6"/>
<stop offset="1" stop-color="white"/>
</linearGradient>
<linearGradient id="paint6_linear_508_494" x1="0.00505066" y1="160.358" x2="78.603" y2="160.358" gradientUnits="userSpaceOnUse">
<stop stop-color="#09C957"/>
<stop offset="1" stop-color="#045224"/>
</linearGradient>
<linearGradient id="paint7_linear_508_494" x1="81.5114" y1="188.125" x2="9.84639" y2="144.105" gradientUnits="userSpaceOnUse">
<stop stop-color="#09C957"/>
<stop offset="1" stop-color="#045224"/>
</linearGradient>
<linearGradient id="paint8_linear_508_494" x1="95.347" y1="54.844" x2="163.286" y2="54.844" gradientUnits="userSpaceOnUse">
<stop stop-color="#BCC5D3"/>
<stop offset="1" stop-color="#EBEDF0"/>
</linearGradient>
<linearGradient id="paint9_linear_508_494" x1="161.404" y1="33.7213" x2="118.091" y2="-12.895" gradientUnits="userSpaceOnUse">
<stop stop-color="#09C957"/>
<stop offset="1" stop-color="#045224"/>
</linearGradient>
<linearGradient id="paint10_linear_508_494" x1="169.339" y1="103.805" x2="150.987" y2="103.567" gradientUnits="userSpaceOnUse">
<stop stop-color="#BCC5D3"/>
<stop offset="1" stop-color="#EBEDF0"/>
</linearGradient>
<linearGradient id="paint11_linear_508_494" x1="124.887" y1="-0.130078" x2="124.887" y2="45.959" gradientUnits="userSpaceOnUse">
<stop stop-color="#09C957"/>
<stop offset="1" stop-color="#045224"/>
</linearGradient>
<linearGradient id="paint12_linear_508_494" x1="161.071" y1="40.296" x2="161.071" y2="55.549" gradientUnits="userSpaceOnUse">
<stop stop-color="#09C957"/>
<stop offset="1" stop-color="#045224"/>
</linearGradient>
<linearGradient id="paint13_linear_508_494" x1="97.2066" y1="10.2403" x2="98.9186" y2="12.0286" gradientUnits="userSpaceOnUse">
<stop stop-color="#09C957"/>
<stop offset="1" stop-color="#42D17C"/>
</linearGradient>
<linearGradient id="paint14_linear_508_494" x1="95.8271" y1="10.0979" x2="98.1853" y2="14.1612" gradientUnits="userSpaceOnUse">
<stop stop-color="#09C957"/>
<stop offset="1" stop-color="#42D17C"/>
</linearGradient>
<linearGradient id="paint15_linear_508_494" x1="102.681" y1="13.6027" x2="104.392" y2="15.3906" gradientUnits="userSpaceOnUse">
<stop stop-color="#FFAC06"/>
<stop offset="0.995" stop-color="#FFD38D"/>
</linearGradient>
<linearGradient id="paint16_linear_508_494" x1="102.97" y1="17.1967" x2="101.236" y2="13.5345" gradientUnits="userSpaceOnUse">
<stop stop-color="#FFAC06"/>
<stop offset="0.995" stop-color="#FFD38D"/>
</linearGradient>
<linearGradient id="paint17_linear_508_494" x1="108.165" y1="16.9774" x2="109.878" y2="18.7668" gradientUnits="userSpaceOnUse">
<stop stop-color="#BCC5D3"/>
<stop offset="1" stop-color="#EBEDF0"/>
</linearGradient>
<linearGradient id="paint18_linear_508_494" x1="109.235" y1="20.0889" x2="105.712" y2="18.8469" gradientUnits="userSpaceOnUse">
<stop stop-color="#BCC5D3"/>
<stop offset="1" stop-color="#EBEDF0"/>
</linearGradient>
<linearGradient id="paint19_linear_508_494" x1="132.551" y1="79.0975" x2="102.668" y2="45.1349" gradientUnits="userSpaceOnUse">
<stop stop-color="#BCC5D3"/>
<stop offset="1" stop-color="#D4DAE2"/>
</linearGradient>
<linearGradient id="paint20_linear_508_494" x1="99.838" y1="346.365" x2="106.369" y2="346.365" gradientUnits="userSpaceOnUse">
<stop stop-color="#09C957"/>
<stop offset="1" stop-color="#42D17C"/>
</linearGradient>
<linearGradient id="paint21_linear_508_494" x1="127.271" y1="344.835" x2="127.271" y2="343.926" gradientUnits="userSpaceOnUse">
<stop stop-color="#BCC5D3"/>
<stop offset="1" stop-color="#EBEDF0"/>
</linearGradient>
<linearGradient id="paint22_linear_508_494" x1="127.271" y1="346.879" x2="127.271" y2="345.969" gradientUnits="userSpaceOnUse">
<stop stop-color="#BCC5D3"/>
<stop offset="1" stop-color="#EBEDF0"/>
</linearGradient>
<linearGradient id="paint23_linear_508_494" x1="122.47" y1="348.782" x2="122.47" y2="347.895" gradientUnits="userSpaceOnUse">
<stop stop-color="#BCC5D3"/>
<stop offset="1" stop-color="#EBEDF0"/>
</linearGradient>
<linearGradient id="paint24_linear_508_494" x1="99.838" y1="353.924" x2="106.369" y2="353.924" gradientUnits="userSpaceOnUse">
<stop stop-color="#09C957"/>
<stop offset="1" stop-color="#045224"/>
</linearGradient>
<linearGradient id="paint25_linear_508_494" x1="127.271" y1="352.432" x2="127.271" y2="351.522" gradientUnits="userSpaceOnUse">
<stop stop-color="#BCC5D3"/>
<stop offset="1" stop-color="#EBEDF0"/>
</linearGradient>
<linearGradient id="paint26_linear_508_494" x1="127.271" y1="354.438" x2="127.271" y2="353.528" gradientUnits="userSpaceOnUse">
<stop stop-color="#BCC5D3"/>
<stop offset="1" stop-color="#EBEDF0"/>
</linearGradient>
<linearGradient id="paint27_linear_508_494" x1="122.47" y1="356.338" x2="122.47" y2="355.451" gradientUnits="userSpaceOnUse">
<stop stop-color="#BCC5D3"/>
<stop offset="1" stop-color="#EBEDF0"/>
</linearGradient>
<linearGradient id="paint28_linear_508_494" x1="99.838" y1="361.483" x2="106.369" y2="361.483" gradientUnits="userSpaceOnUse">
<stop stop-color="#09C957"/>
<stop offset="1" stop-color="#42D17C"/>
</linearGradient>
<linearGradient id="paint29_linear_508_494" x1="127.271" y1="360.038" x2="127.271" y2="359.128" gradientUnits="userSpaceOnUse">
<stop stop-color="#BCC5D3"/>
<stop offset="1" stop-color="#EBEDF0"/>
</linearGradient>
<linearGradient id="paint30_linear_508_494" x1="127.271" y1="362.005" x2="127.271" y2="361.095" gradientUnits="userSpaceOnUse">
<stop stop-color="#BCC5D3"/>
<stop offset="1" stop-color="#EBEDF0"/>
</linearGradient>
<linearGradient id="paint31_linear_508_494" x1="122.47" y1="363.897" x2="122.47" y2="363.011" gradientUnits="userSpaceOnUse">
<stop stop-color="#BCC5D3"/>
<stop offset="1" stop-color="#EBEDF0"/>
</linearGradient>
<linearGradient id="paint32_linear_508_494" x1="99.838" y1="369.042" x2="106.369" y2="369.042" gradientUnits="userSpaceOnUse">
<stop stop-color="#09C957"/>
<stop offset="1" stop-color="#045224"/>
</linearGradient>
<linearGradient id="paint33_linear_508_494" x1="127.271" y1="367.521" x2="127.271" y2="366.611" gradientUnits="userSpaceOnUse">
<stop stop-color="#BCC5D3"/>
<stop offset="1" stop-color="#EBEDF0"/>
</linearGradient>
<linearGradient id="paint34_linear_508_494" x1="127.271" y1="369.503" x2="127.271" y2="368.593" gradientUnits="userSpaceOnUse">
<stop stop-color="#BCC5D3"/>
<stop offset="1" stop-color="#EBEDF0"/>
</linearGradient>
<linearGradient id="paint35_linear_508_494" x1="122.47" y1="371.456" x2="122.47" y2="370.57" gradientUnits="userSpaceOnUse">
<stop stop-color="#BCC5D3"/>
<stop offset="1" stop-color="#EBEDF0"/>
</linearGradient>
<linearGradient id="paint36_linear_508_494" x1="905.972" y1="37.6568" x2="898.169" y2="41.5194" gradientUnits="userSpaceOnUse">
<stop stop-color="#FFC5C5"/>
<stop offset="1" stop-color="#DE8B8B"/>
</linearGradient>
<linearGradient id="paint37_linear_508_494" x1="896.092" y1="31.2158" x2="877.935" y2="38.3753" gradientUnits="userSpaceOnUse">
<stop stop-color="#BCC5D3"/>
<stop offset="1" stop-color="#EBEDF0"/>
</linearGradient>
<linearGradient id="paint38_linear_508_494" x1="54.3577" y1="94.7788" x2="73.7767" y2="88.4869" gradientUnits="userSpaceOnUse">
<stop stop-color="#09C957"/>
<stop offset="1" stop-color="#045224"/>
</linearGradient>
<linearGradient id="paint39_linear_508_494" x1="44.4301" y1="100.776" x2="70.9218" y2="90.4832" gradientUnits="userSpaceOnUse">
<stop stop-color="#09C957"/>
<stop offset="1" stop-color="#045224"/>
</linearGradient>
<linearGradient id="paint40_linear_508_494" x1="56.7047" y1="58.8043" x2="43.638" y2="26.4825" gradientUnits="userSpaceOnUse">
<stop stop-color="white"/>
<stop offset="0.959" stop-color="#D3D2D1"/>
<stop offset="1" stop-color="#D1D0CF"/>
</linearGradient>
<linearGradient id="paint41_linear_508_494" x1="870.937" y1="23.8633" x2="864.075" y2="24.5276" gradientUnits="userSpaceOnUse">
<stop stop-color="#FFC5C5"/>
<stop offset="1" stop-color="#DE8B8B"/>
</linearGradient>
<linearGradient id="paint42_linear_508_494" x1="864.349" y1="28.7983" x2="869.408" y2="27.8249" gradientUnits="userSpaceOnUse">
<stop stop-color="#09C957"/>
<stop offset="1" stop-color="#045224"/>
</linearGradient>
<linearGradient id="paint43_linear_508_494" x1="871.04" y1="27.6029" x2="872.822" y2="27.5335" gradientUnits="userSpaceOnUse">
<stop stop-color="#09C957"/>
<stop offset="1" stop-color="#045224"/>
</linearGradient>
<linearGradient id="paint44_linear_508_494" x1="873.095" y1="21.8671" x2="864.66" y2="23.1403" gradientUnits="userSpaceOnUse">
<stop stop-color="#FFC5C5"/>
<stop offset="1" stop-color="#DE8B8B"/>
</linearGradient>
<linearGradient id="paint45_linear_508_494" x1="865.398" y1="60.5917" x2="861.632" y2="60.9827" gradientUnits="userSpaceOnUse">
<stop stop-color="#FFC5C5"/>
<stop offset="1" stop-color="#DE8B8B"/>
</linearGradient>
<linearGradient id="paint46_linear_508_494" x1="863.686" y1="45.5483" x2="854.503" y2="45.7701" gradientUnits="userSpaceOnUse">
<stop stop-color="#BCC5D3"/>
<stop offset="1" stop-color="#EBEDF0"/>
</linearGradient>
<linearGradient id="paint47_linear_508_494" x1="12.761" y1="118.485" x2="-3.01256" y2="114.271" gradientUnits="userSpaceOnUse">
<stop stop-color="white"/>
<stop offset="1" stop-color="#D1D0CF"/>
</linearGradient>
<linearGradient id="paint48_linear_508_494" x1="-3.7359" y1="153.816" x2="13.4087" y2="151.173" gradientUnits="userSpaceOnUse">
<stop stop-color="#09C957"/>
<stop offset="0.034" stop-color="#09C555"/>
<stop offset="1" stop-color="#045224"/>
</linearGradient>
<linearGradient id="paint49_linear_508_494" x1="13.4043" y1="113.49" x2="27.3474" y2="98.7119" gradientUnits="userSpaceOnUse">
<stop stop-color="white"/>
<stop offset="1" stop-color="#D1D0CF"/>
</linearGradient>
<linearGradient id="paint50_linear_508_494" x1="135.451" y1="86.8035" x2="129.667" y2="87.255" gradientUnits="userSpaceOnUse">
<stop stop-color="#FFC5C5"/>
<stop offset="1" stop-color="#DE8B8B"/>
</linearGradient>
<linearGradient id="paint51_linear_508_494" x1="135.975" y1="91.655" x2="122.444" y2="92.9953" gradientUnits="userSpaceOnUse">
<stop stop-color="#09C957"/>
<stop offset="1" stop-color="#045224"/>
</linearGradient>
<linearGradient id="paint52_linear_508_494" x1="-2.19634" y1="158.259" x2="19.9802" y2="154.18" gradientUnits="userSpaceOnUse">
<stop stop-color="#09C957"/>
<stop offset="0.034" stop-color="#09C555"/>
<stop offset="1" stop-color="#045224"/>
</linearGradient>
<linearGradient id="paint53_linear_508_494" x1="22.9136" y1="123.824" x2="29.7632" y2="102.019" gradientUnits="userSpaceOnUse">
<stop stop-color="white"/>
<stop offset="1" stop-color="#D1D0CF"/>
</linearGradient>
<linearGradient id="paint54_linear_508_494" x1="27.8003" y1="127.001" x2="22.4372" y2="125.802" gradientUnits="userSpaceOnUse">
<stop stop-color="#FFC5C5"/>
<stop offset="1" stop-color="#DE8B8B"/>
</linearGradient>
<clipPath id="clip0_508_494">
<rect width="163.285" height="200" fill="white"/>
</clipPath>
</defs>
</svg>
