<svg xmlns="http://www.w3.org/2000/svg" width="30" height="30" viewBox="0 0 30 30">
  <g id="vuesax_bulk_location" data-name="vuesax/bulk/location" transform="translate(-428 -188)">
    <g id="location" transform="translate(428 188)">
      <path id="Vector" d="M21.875,8.375A10.782,10.782,0,0,0,11.1,0h-.012A10.78,10.78,0,0,0,.312,8.362C-1.15,14.812,2.8,20.275,6.375,23.712a6.778,6.778,0,0,0,9.438,0C19.387,20.275,23.337,14.825,21.875,8.375Z" transform="translate(3.9 2.188)" fill="#fff" opacity="0.4"/>
      <path id="Vector-2" data-name="Vector" d="M7.875,3.938A3.937,3.937,0,1,1,3.937,0,3.937,3.937,0,0,1,7.875,3.938Z" transform="translate(11.063 8.95)" fill="#fff"/>
      <path id="Vector-3" data-name="Vector" d="M0,0H30V30H0Z" fill="none" opacity="0"/>
    </g>
  </g>
</svg>
