<svg width="196" height="200" viewBox="0 0 196 200" fill="none" xmlns="http://www.w3.org/2000/svg">
<style>
#man_1,#man_2,#translate{transform-origin:center;transform-box:fill-box}#man_1,#man_2{animation:translateY 2s linear infinite alternate}#translate{animation:translateX 2s linear infinite alternate}@keyframes translateY{0%,100%{transform:translateY(0px)}50%{transform:translateY(-5px)}}@keyframes translateX{0%,100%{transform:translateX(0px)}50%{transform:translateX(-5px)}}
</style>
<g id="monitor_financial 1" clip-path="url(#clip0_514_2)">
<g id="Group 439">
<g id="Group 427">
<g id="Group 419">
<path id="Path 605" d="M154.942 152.937L71.2421 104.181C70.4499 103.72 69.5487 103.478 68.6319 103.482C67.7151 103.485 66.8158 103.734 66.0271 104.201L17.8761 132.743L14.3851 132.229V135.739H14.4001C14.3442 136.14 14.4089 136.549 14.5861 136.914C14.7633 137.278 15.0449 137.581 15.3951 137.785L105.927 190.523C106.617 190.925 107.402 191.135 108.2 191.132C108.999 191.129 109.782 190.913 110.469 190.506L161.582 160.206C162.004 159.956 162.316 159.556 162.455 159.085L162.555 159.1V154.055L154.942 152.937Z" fill="url(#paint0_linear_514_2)"/>
<path id="Path 606" d="M154.942 152.627L71.2421 103.871C70.4499 103.41 69.5487 103.168 68.6319 103.172C67.7151 103.175 66.8158 103.424 66.0271 103.891L17.8761 132.433L14.3851 131.919V135.429H14.4001C14.3442 135.83 14.4089 136.239 14.5861 136.604C14.7633 136.968 15.0449 137.271 15.3951 137.475L105.927 190.213C106.617 190.615 107.402 190.825 108.2 190.822C108.999 190.819 109.782 190.603 110.469 190.196L161.582 159.896C162.004 159.646 162.316 159.246 162.455 158.775L162.555 158.79V153.745L154.942 152.627Z" fill="url(#paint1_linear_514_2)"/>
<path id="Path 607" d="M73.9212 98.734L164.953 151.512C165.32 151.725 165.728 151.855 166.15 151.895C166.572 151.934 166.998 151.882 167.398 151.741C167.798 151.6 168.162 151.374 168.466 151.079C168.77 150.783 169.007 150.425 169.159 150.03L195.193 82.49C195.607 81.4155 195.624 80.2285 195.242 79.1425C194.859 78.0565 194.101 77.1426 193.105 76.565L103.776 24.774C103.306 24.5019 102.783 24.335 102.243 24.2846C101.702 24.2343 101.157 24.3017 100.646 24.4823C100.134 24.663 99.6671 24.9524 99.2779 25.3308C98.8887 25.7092 98.5861 26.1674 98.3912 26.674L72.3411 94.255C72.0286 95.0675 72.0161 95.9648 72.3057 96.7857C72.5953 97.6066 73.1681 98.2974 73.9212 98.734V98.734Z" fill="url(#paint2_linear_514_2)"/>
<path id="Path 608" d="M71.041 99.374L162.073 152.152C162.44 152.365 162.848 152.495 163.27 152.535C163.692 152.574 164.118 152.522 164.518 152.381C164.917 152.24 165.282 152.014 165.586 151.719C165.89 151.423 166.127 151.066 166.279 150.67L192.313 83.13C192.727 82.0555 192.744 80.8686 192.362 79.7825C191.979 78.6965 191.221 77.7825 190.225 77.205L100.896 25.414C100.426 25.142 99.9033 24.975 99.3628 24.9246C98.8223 24.8743 98.2774 24.9417 97.7655 25.1223C97.2536 25.3029 96.7869 25.5924 96.3977 25.9708C96.0085 26.3492 95.7061 26.8074 95.5111 27.314L69.4611 94.895C69.1488 95.7075 69.1363 96.6047 69.4259 97.4256C69.7155 98.2465 70.2881 98.9373 71.041 99.374V99.374Z" fill="url(#paint3_linear_514_2)"/>
<path id="Path 609" d="M163.611 149.117C163.55 149.117 163.49 149.099 163.438 149.067L72.4681 96.325C72.3469 96.255 72.2547 96.1439 72.2083 96.0119C72.1619 95.8798 72.1643 95.7354 72.2151 95.605L98.1881 28.224C98.2161 28.1509 98.2659 28.0881 98.3305 28.044C98.3952 27.9998 98.4717 27.9765 98.55 27.977C98.615 27.9775 98.6788 27.9958 98.7341 28.03L188.75 80.218C189.132 80.4368 189.423 80.7853 189.569 81.2002C189.716 81.615 189.709 82.0688 189.55 82.479L163.95 148.887C163.924 148.955 163.877 149.014 163.817 149.055C163.756 149.096 163.684 149.118 163.611 149.117V149.117Z" fill="white"/>
<path id="Path 610" d="M161.571 152.451L71.2451 99.833C70.4529 99.3715 69.5518 99.13 68.6349 99.1335C67.718 99.1371 66.8188 99.3854 66.0301 99.853L15.3871 129.873C15.0774 130.057 14.821 130.318 14.6434 130.632C14.4659 130.945 14.3732 131.299 14.3746 131.66C14.376 132.02 14.4715 132.373 14.6515 132.685C14.8316 132.997 15.0899 133.257 15.4011 133.438L105.933 186.176C106.623 186.578 107.408 186.789 108.206 186.786C109.005 186.783 109.788 186.566 110.475 186.159L161.588 155.859C161.884 155.683 162.128 155.433 162.298 155.133C162.467 154.833 162.555 154.494 162.553 154.15C162.551 153.806 162.46 153.468 162.288 153.17C162.115 152.872 161.869 152.624 161.571 152.451V152.451Z" fill="url(#paint4_linear_514_2)"/>
<path id="Path 611" d="M147.376 149.571L75.8551 107.908C75.2278 107.543 74.5144 107.352 73.7885 107.355C73.0626 107.357 72.3506 107.554 71.7261 107.924L46.3521 123.16C46.1066 123.306 45.9036 123.513 45.7628 123.761C45.6221 124.009 45.5486 124.289 45.5497 124.575C45.5508 124.86 45.6265 125.14 45.7692 125.387C45.9119 125.634 46.1165 125.84 46.363 125.983L118.047 167.741C118.594 168.06 119.216 168.227 119.849 168.224C120.482 168.222 121.103 168.05 121.647 167.727L147.387 152.271C147.622 152.132 147.816 151.934 147.95 151.696C148.085 151.459 148.155 151.191 148.154 150.918C148.153 150.645 148.081 150.377 147.944 150.141C147.808 149.905 147.612 149.708 147.376 149.571V149.571Z" fill="url(#paint5_linear_514_2)"/>
<g id="Group 418">
<path id="Path 612" d="M76.7241 115.236C76.7617 115.258 76.8045 115.27 76.8481 115.27C76.8917 115.27 76.9344 115.258 76.972 115.236L79.7721 113.579C79.7883 113.569 79.8017 113.556 79.811 113.54C79.8203 113.523 79.8252 113.505 79.8252 113.486C79.8252 113.467 79.8203 113.449 79.811 113.433C79.8017 113.416 79.7883 113.402 79.7721 113.393L76.664 111.555C76.6207 111.53 76.5714 111.516 76.5211 111.516C76.4708 111.516 76.4214 111.53 76.378 111.555L73.607 113.197C73.5888 113.207 73.5736 113.221 73.563 113.239C73.5523 113.256 73.5467 113.276 73.5467 113.297C73.5467 113.318 73.5523 113.338 73.563 113.355C73.5736 113.373 73.5888 113.387 73.607 113.397L76.7241 115.236Z" fill="url(#paint6_linear_514_2)"/>
<path id="Path 613" d="M78.4801 116.254L81.5991 118.099C81.6368 118.121 81.6796 118.133 81.7231 118.133C81.7667 118.133 81.8094 118.121 81.847 118.099L84.6471 116.441C84.6635 116.432 84.6772 116.418 84.6866 116.401C84.6961 116.385 84.701 116.366 84.701 116.347C84.701 116.329 84.6961 116.31 84.6866 116.294C84.6772 116.277 84.6635 116.263 84.6471 116.254L81.5391 114.416C81.4958 114.391 81.4467 114.377 81.3966 114.377C81.3465 114.377 81.2974 114.391 81.2541 114.416L78.4832 116.058C78.4658 116.068 78.4511 116.082 78.4409 116.099C78.4307 116.116 78.4251 116.135 78.4248 116.155C78.4245 116.175 78.4295 116.195 78.4392 116.212C78.4489 116.229 78.463 116.244 78.4801 116.254V116.254Z" fill="url(#paint7_linear_514_2)"/>
<path id="Path 614" d="M83.3571 119.117L86.4761 120.962C86.5137 120.984 86.5565 120.996 86.6001 120.996C86.6437 120.996 86.6864 120.984 86.724 120.962L89.5241 119.304C89.5403 119.294 89.5537 119.281 89.563 119.265C89.5723 119.248 89.5772 119.23 89.5772 119.211C89.5772 119.192 89.5723 119.174 89.563 119.157C89.5537 119.141 89.5403 119.128 89.5241 119.118L86.4161 117.28C86.3728 117.255 86.3237 117.241 86.2736 117.241C86.2235 117.241 86.1744 117.255 86.1311 117.28L83.3602 118.922C83.343 118.932 83.3286 118.946 83.3185 118.963C83.3085 118.98 83.303 118.999 83.3027 119.019C83.3024 119.038 83.3073 119.058 83.3168 119.075C83.3264 119.092 83.3402 119.107 83.3571 119.117V119.117Z" fill="url(#paint8_linear_514_2)"/>
<path id="Path 615" d="M88.2321 121.979L91.3511 123.824C91.3887 123.846 91.4315 123.858 91.4751 123.858C91.5187 123.858 91.5614 123.846 91.599 123.824L94.3991 122.167C94.4155 122.157 94.4292 122.144 94.4386 122.128C94.4481 122.111 94.453 122.093 94.453 122.074C94.453 122.055 94.4481 122.036 94.4386 122.019C94.4292 122.003 94.4155 121.99 94.3991 121.98L91.2911 120.142C91.2477 120.117 91.1984 120.103 91.1481 120.103C91.0978 120.103 91.0484 120.117 91.005 120.142L88.2352 121.784C88.218 121.794 88.2036 121.808 88.1935 121.825C88.1835 121.842 88.178 121.861 88.1777 121.881C88.1774 121.9 88.1823 121.92 88.1918 121.937C88.2014 121.954 88.2152 121.969 88.2321 121.979Z" fill="url(#paint9_linear_514_2)"/>
<path id="Path 616" d="M93.1081 124.842L96.2272 126.687C96.2649 126.709 96.3078 126.721 96.3515 126.721C96.3953 126.721 96.4383 126.709 96.4761 126.687L99.2761 125.03C99.2925 125.021 99.3062 125.007 99.3157 124.99C99.3251 124.974 99.3301 124.955 99.3301 124.937C99.3301 124.918 99.3251 124.899 99.3157 124.883C99.3062 124.866 99.2925 124.853 99.2761 124.843L96.1681 123.005C96.1249 122.98 96.0757 122.966 96.0256 122.966C95.9755 122.966 95.9264 122.98 95.8832 123.005L93.112 124.647C93.0948 124.657 93.0805 124.671 93.0703 124.688C93.0601 124.704 93.0546 124.724 93.0542 124.743C93.0538 124.763 93.0585 124.783 93.068 124.8C93.0774 124.817 93.0913 124.832 93.1081 124.842V124.842Z" fill="url(#paint10_linear_514_2)"/>
<path id="Path 617" d="M97.9841 127.705L101.103 129.55C101.141 129.572 101.184 129.584 101.228 129.584C101.271 129.584 101.314 129.572 101.352 129.55L104.152 127.893C104.169 127.884 104.182 127.87 104.192 127.853C104.201 127.837 104.206 127.818 104.206 127.8C104.206 127.781 104.201 127.762 104.192 127.746C104.182 127.729 104.169 127.716 104.152 127.706L101.044 125.868C101.001 125.843 100.952 125.829 100.902 125.829C100.852 125.829 100.802 125.843 100.759 125.868L97.988 127.51C97.9708 127.52 97.9565 127.534 97.9463 127.551C97.9361 127.567 97.9306 127.587 97.9302 127.606C97.9298 127.626 97.9345 127.646 97.944 127.663C97.9534 127.68 97.9673 127.695 97.9841 127.705Z" fill="url(#paint11_linear_514_2)"/>
<path id="Path 618" d="M102.86 130.567L105.979 132.412C106.017 132.434 106.06 132.446 106.104 132.446C106.147 132.446 106.19 132.434 106.228 132.412L109.028 130.755C109.045 130.746 109.058 130.732 109.068 130.715C109.077 130.699 109.082 130.68 109.082 130.662C109.082 130.643 109.077 130.624 109.068 130.608C109.058 130.591 109.045 130.577 109.028 130.568L105.92 128.73C105.877 128.705 105.828 128.691 105.778 128.691C105.728 128.691 105.678 128.705 105.635 128.73L102.864 130.372C102.847 130.382 102.832 130.396 102.822 130.412C102.812 130.429 102.807 130.449 102.806 130.468C102.806 130.488 102.811 130.508 102.82 130.525C102.829 130.542 102.843 130.557 102.86 130.567V130.567Z" fill="url(#paint12_linear_514_2)"/>
<path id="Path 619" d="M107.736 133.43L110.855 135.275C110.893 135.297 110.935 135.309 110.979 135.309C111.023 135.309 111.065 135.297 111.103 135.275L113.903 133.618C113.92 133.609 113.933 133.595 113.943 133.578C113.952 133.562 113.957 133.543 113.957 133.525C113.957 133.506 113.952 133.487 113.943 133.471C113.933 133.454 113.92 133.44 113.903 133.431L110.795 131.593C110.752 131.568 110.703 131.554 110.653 131.554C110.603 131.554 110.553 131.568 110.51 131.593L107.74 133.235C107.723 133.245 107.708 133.259 107.698 133.275C107.688 133.292 107.683 133.312 107.682 133.331C107.682 133.351 107.687 133.371 107.696 133.388C107.705 133.405 107.719 133.42 107.736 133.43V133.43Z" fill="url(#paint13_linear_514_2)"/>
<path id="Path 620" d="M112.611 136.292L115.73 138.137C115.768 138.159 115.81 138.171 115.854 138.171C115.898 138.171 115.94 138.159 115.978 138.137L118.778 136.48C118.795 136.471 118.808 136.457 118.818 136.44C118.827 136.424 118.832 136.405 118.832 136.387C118.832 136.368 118.827 136.349 118.818 136.333C118.808 136.316 118.795 136.302 118.778 136.293L115.67 134.455C115.627 134.43 115.577 134.416 115.527 134.416C115.477 134.416 115.427 134.43 115.384 134.455L112.613 136.097C112.596 136.107 112.582 136.121 112.572 136.138C112.562 136.155 112.556 136.174 112.556 136.194C112.556 136.214 112.561 136.233 112.571 136.25C112.58 136.267 112.594 136.282 112.611 136.292Z" fill="url(#paint14_linear_514_2)"/>
<path id="Path 621" d="M117.487 139.154L120.606 140.999C120.644 141.021 120.687 141.033 120.731 141.033C120.774 141.033 120.817 141.021 120.855 140.999L123.655 139.342C123.672 139.333 123.685 139.319 123.695 139.302C123.704 139.286 123.709 139.267 123.709 139.248C123.709 139.23 123.704 139.211 123.695 139.195C123.685 139.178 123.672 139.164 123.655 139.155L120.547 137.317C120.504 137.291 120.454 137.278 120.404 137.278C120.354 137.278 120.304 137.291 120.261 137.317L117.49 138.959C117.473 138.969 117.459 138.983 117.449 139C117.439 139.017 117.433 139.036 117.433 139.056C117.432 139.075 117.437 139.095 117.447 139.112C117.456 139.129 117.47 139.144 117.487 139.154V139.154Z" fill="url(#paint15_linear_514_2)"/>
<path id="Path 622" d="M122.363 142.017L125.482 143.862C125.52 143.884 125.563 143.896 125.607 143.896C125.65 143.896 125.693 143.884 125.731 143.862L128.531 142.204C128.548 142.195 128.561 142.181 128.571 142.164C128.58 142.148 128.585 142.129 128.585 142.11C128.585 142.092 128.58 142.073 128.571 142.057C128.561 142.04 128.548 142.026 128.531 142.017L125.423 140.179C125.38 140.154 125.331 140.14 125.281 140.14C125.231 140.14 125.181 140.154 125.138 140.179L122.367 141.821C122.35 141.831 122.335 141.845 122.325 141.862C122.314 141.879 122.309 141.898 122.308 141.918C122.308 141.938 122.313 141.957 122.322 141.975C122.332 141.992 122.346 142.007 122.363 142.017V142.017Z" fill="url(#paint16_linear_514_2)"/>
<path id="Path 623" d="M127.239 144.879L130.358 146.724C130.396 146.746 130.439 146.758 130.483 146.758C130.526 146.758 130.569 146.746 130.607 146.724L133.407 145.067C133.424 145.057 133.437 145.044 133.447 145.028C133.456 145.011 133.461 144.992 133.461 144.973C133.461 144.955 133.456 144.936 133.447 144.92C133.437 144.903 133.424 144.889 133.407 144.88L130.299 143.042C130.256 143.017 130.207 143.003 130.157 143.003C130.106 143.003 130.057 143.017 130.014 143.042L127.243 144.684C127.226 144.694 127.212 144.708 127.201 144.724C127.191 144.741 127.186 144.761 127.185 144.78C127.185 144.8 127.19 144.82 127.199 144.837C127.208 144.854 127.222 144.869 127.239 144.879V144.879Z" fill="url(#paint17_linear_514_2)"/>
<path id="Path 624" d="M138.277 147.742L135.169 145.904C135.126 145.879 135.077 145.865 135.027 145.865C134.976 145.865 134.927 145.879 134.884 145.904L132.113 147.546C132.096 147.556 132.082 147.57 132.072 147.587C132.062 147.604 132.057 147.624 132.057 147.643C132.057 147.663 132.062 147.683 132.072 147.7C132.082 147.717 132.096 147.731 132.113 147.741L135.232 149.586C135.27 149.608 135.313 149.62 135.356 149.62C135.4 149.62 135.443 149.608 135.48 149.586L138.28 147.928C138.296 147.918 138.309 147.904 138.318 147.888C138.327 147.872 138.332 147.853 138.332 147.834C138.331 147.815 138.326 147.797 138.317 147.781C138.307 147.765 138.293 147.751 138.277 147.742V147.742Z" fill="url(#paint18_linear_514_2)"/>
<path id="Path 625" d="M72.4901 117.791C72.5278 117.813 72.5708 117.825 72.6146 117.825C72.6584 117.825 72.7014 117.813 72.7391 117.791L75.5391 116.134C75.5555 116.125 75.5692 116.111 75.5786 116.095C75.5881 116.078 75.593 116.059 75.593 116.041C75.593 116.022 75.5881 116.003 75.5786 115.987C75.5692 115.97 75.5555 115.957 75.5391 115.947L72.431 114.109C72.3878 114.084 72.3387 114.07 72.2886 114.07C72.2385 114.07 72.1893 114.084 72.1461 114.109L69.3751 115.751C69.3569 115.761 69.3416 115.775 69.3309 115.793C69.3203 115.81 69.3147 115.83 69.3147 115.851C69.3147 115.872 69.3203 115.892 69.3309 115.909C69.3416 115.927 69.3569 115.941 69.3751 115.951L72.4901 117.791Z" fill="url(#paint19_linear_514_2)"/>
<path id="Path 626" d="M77.302 116.971C77.2588 116.946 77.2097 116.932 77.1596 116.932C77.1095 116.932 77.0603 116.946 77.0171 116.971L74.2471 118.613C74.2289 118.623 74.2136 118.637 74.2029 118.655C74.1923 118.672 74.1867 118.692 74.1867 118.713C74.1867 118.734 74.1923 118.754 74.2029 118.771C74.2136 118.789 74.2289 118.803 74.2471 118.813L77.3661 120.658C77.4039 120.68 77.4469 120.692 77.4906 120.692C77.5344 120.692 77.5774 120.68 77.6151 120.658L80.4151 119.001C80.4315 118.991 80.4452 118.978 80.4546 118.962C80.4641 118.945 80.469 118.926 80.469 118.907C80.469 118.889 80.4641 118.87 80.4546 118.854C80.4452 118.837 80.4315 118.824 80.4151 118.814L77.302 116.971Z" fill="url(#paint20_linear_514_2)"/>
<path id="Path 627" d="M82.1791 119.834C82.1359 119.809 82.0867 119.795 82.0366 119.795C81.9864 119.795 81.9373 119.809 81.8941 119.834L79.1231 121.476C79.1061 121.486 79.092 121.5 79.0822 121.517C79.0724 121.534 79.0672 121.554 79.0672 121.574C79.0672 121.593 79.0724 121.613 79.0822 121.63C79.092 121.647 79.1061 121.661 79.1231 121.671L82.2421 123.516C82.2799 123.538 82.3229 123.55 82.3666 123.55C82.4104 123.55 82.4534 123.538 82.4911 123.516L85.2911 121.859C85.3075 121.85 85.3212 121.836 85.3306 121.819C85.3401 121.803 85.345 121.784 85.345 121.766C85.345 121.747 85.3401 121.728 85.3306 121.712C85.3212 121.695 85.3075 121.682 85.2911 121.672L82.1791 119.834Z" fill="url(#paint21_linear_514_2)"/>
<path id="Path 628" d="M87.0531 122.697C87.0099 122.672 86.9607 122.658 86.9106 122.658C86.8605 122.658 86.8112 122.672 86.768 122.697L83.997 124.339C83.9788 124.349 83.9636 124.363 83.953 124.381C83.9423 124.398 83.9367 124.418 83.9367 124.439C83.9367 124.46 83.9423 124.48 83.953 124.497C83.9636 124.515 83.9788 124.529 83.997 124.539L87.116 126.383C87.1536 126.405 87.1965 126.417 87.2401 126.417C87.2837 126.417 87.3265 126.405 87.3641 126.383L90.1641 124.726C90.1805 124.717 90.1941 124.703 90.2036 124.687C90.213 124.67 90.218 124.651 90.218 124.633C90.218 124.614 90.213 124.595 90.2036 124.579C90.1941 124.562 90.1805 124.549 90.1641 124.539L87.0531 122.697Z" fill="url(#paint22_linear_514_2)"/>
<path id="Path 629" d="M91.9291 125.559C91.8858 125.534 91.8367 125.52 91.7866 125.52C91.7365 125.52 91.6873 125.534 91.644 125.559L88.873 127.201C88.8548 127.211 88.8396 127.225 88.829 127.243C88.8183 127.26 88.8127 127.28 88.8127 127.301C88.8127 127.322 88.8183 127.342 88.829 127.359C88.8396 127.377 88.8548 127.391 88.873 127.401L91.9921 129.246C92.0296 129.268 92.0725 129.28 92.1161 129.28C92.1597 129.28 92.2025 129.268 92.2401 129.246L95.0401 127.588C95.0565 127.579 95.0701 127.565 95.0796 127.548C95.089 127.532 95.094 127.513 95.094 127.495C95.094 127.476 95.089 127.457 95.0796 127.441C95.0701 127.424 95.0565 127.411 95.0401 127.401L91.9291 125.559Z" fill="url(#paint23_linear_514_2)"/>
<path id="Path 630" d="M96.8051 128.421C96.7618 128.396 96.7127 128.382 96.6626 128.382C96.6125 128.382 96.5632 128.396 96.52 128.421L93.749 130.063C93.732 130.073 93.7179 130.087 93.7081 130.104C93.6983 130.121 93.6932 130.141 93.6932 130.16C93.6932 130.18 93.6983 130.2 93.7081 130.217C93.7179 130.234 93.732 130.248 93.749 130.258L96.868 132.103C96.9057 132.125 96.9485 132.137 96.9921 132.137C97.0356 132.137 97.0785 132.125 97.1161 132.103L99.9161 130.445C99.9325 130.436 99.9461 130.422 99.9556 130.405C99.965 130.389 99.97 130.37 99.97 130.352C99.97 130.333 99.965 130.314 99.9556 130.298C99.9461 130.281 99.9325 130.268 99.9161 130.258L96.8051 128.421Z" fill="url(#paint24_linear_514_2)"/>
<path id="Path 631" d="M101.679 131.284C101.636 131.258 101.587 131.245 101.537 131.245C101.486 131.245 101.437 131.258 101.394 131.284L98.6231 132.926C98.6049 132.936 98.5897 132.95 98.579 132.968C98.5684 132.985 98.5627 133.005 98.5627 133.026C98.5627 133.047 98.5684 133.067 98.579 133.084C98.5897 133.102 98.6049 133.116 98.6231 133.126L101.742 134.971C101.78 134.993 101.823 135.005 101.867 135.005C101.91 135.005 101.953 134.993 101.991 134.971L104.791 133.314C104.807 133.305 104.821 133.291 104.831 133.274C104.84 133.258 104.845 133.239 104.845 133.221C104.845 133.202 104.84 133.183 104.831 133.167C104.821 133.15 104.807 133.136 104.791 133.127L101.679 131.284Z" fill="url(#paint25_linear_514_2)"/>
<path id="Path 632" d="M106.557 134.146C106.514 134.12 106.464 134.107 106.414 134.107C106.364 134.107 106.314 134.12 106.271 134.146L103.501 135.788C103.484 135.798 103.47 135.812 103.46 135.829C103.45 135.846 103.445 135.866 103.445 135.885C103.445 135.905 103.45 135.925 103.46 135.942C103.47 135.959 103.484 135.973 103.501 135.983L106.62 137.828C106.658 137.85 106.7 137.862 106.744 137.862C106.788 137.862 106.831 137.85 106.868 137.828L109.668 136.171C109.684 136.162 109.698 136.148 109.708 136.131C109.717 136.115 109.722 136.096 109.722 136.077C109.722 136.059 109.717 136.04 109.708 136.024C109.698 136.007 109.684 135.993 109.668 135.984L106.557 134.146Z" fill="url(#paint26_linear_514_2)"/>
<path id="Path 633" d="M111.433 137.009C111.39 136.984 111.341 136.97 111.291 136.97C111.241 136.97 111.191 136.984 111.148 137.009L108.377 138.651C108.359 138.661 108.344 138.675 108.333 138.693C108.322 138.71 108.317 138.73 108.317 138.751C108.317 138.772 108.322 138.792 108.333 138.809C108.344 138.827 108.359 138.841 108.377 138.851L111.496 140.696C111.534 140.718 111.576 140.73 111.62 140.73C111.664 140.73 111.707 140.718 111.744 140.696L114.544 139.039C114.56 139.03 114.574 139.016 114.584 138.999C114.593 138.983 114.598 138.964 114.598 138.945C114.598 138.927 114.593 138.908 114.584 138.892C114.574 138.875 114.56 138.861 114.544 138.852L111.433 137.009Z" fill="url(#paint27_linear_514_2)"/>
<path id="Path 634" d="M116.309 139.872C116.266 139.847 116.217 139.833 116.167 139.833C116.117 139.833 116.067 139.847 116.024 139.872L113.253 141.514C113.235 141.524 113.22 141.538 113.209 141.556C113.198 141.573 113.193 141.593 113.193 141.614C113.193 141.635 113.198 141.655 113.209 141.672C113.22 141.69 113.235 141.704 113.253 141.714L116.372 143.559C116.41 143.581 116.452 143.593 116.496 143.593C116.54 143.593 116.583 143.581 116.62 143.559L119.42 141.902C119.436 141.892 119.45 141.879 119.459 141.862C119.468 141.846 119.473 141.827 119.473 141.808C119.473 141.79 119.468 141.771 119.459 141.755C119.45 141.738 119.436 141.725 119.42 141.715L116.309 139.872Z" fill="url(#paint28_linear_514_2)"/>
<path id="Path 635" d="M118.13 144.572L121.249 146.417C121.287 146.439 121.329 146.451 121.373 146.451C121.417 146.451 121.46 146.439 121.497 146.417L124.297 144.759C124.313 144.75 124.327 144.736 124.337 144.72C124.346 144.703 124.351 144.685 124.351 144.666C124.351 144.647 124.346 144.629 124.337 144.612C124.327 144.596 124.313 144.582 124.297 144.573L121.19 142.735C121.147 142.71 121.097 142.696 121.047 142.696C120.997 142.696 120.947 142.71 120.904 142.735L118.133 144.377C118.116 144.387 118.102 144.401 118.091 144.418C118.081 144.435 118.076 144.454 118.076 144.474C118.075 144.493 118.08 144.513 118.09 144.53C118.099 144.547 118.113 144.562 118.13 144.572V144.572Z" fill="url(#paint29_linear_514_2)"/>
<path id="Path 636" d="M126.373 149.279L129.173 147.622C129.189 147.613 129.203 147.599 129.213 147.583C129.222 147.566 129.227 147.548 129.227 147.529C129.227 147.51 129.222 147.491 129.213 147.474C129.203 147.458 129.189 147.445 129.173 147.435L126.065 145.597C126.022 145.572 125.973 145.558 125.923 145.558C125.872 145.558 125.823 145.572 125.78 145.597L123.009 147.239C122.992 147.249 122.978 147.263 122.968 147.28C122.958 147.297 122.953 147.317 122.953 147.337C122.953 147.356 122.958 147.376 122.968 147.393C122.978 147.41 122.992 147.424 123.009 147.434L126.128 149.279C126.165 149.301 126.208 149.312 126.251 149.312C126.294 149.312 126.336 149.301 126.373 149.279V149.279Z" fill="url(#paint30_linear_514_2)"/>
<path id="Path 637" d="M130.936 148.459C130.893 148.434 130.844 148.42 130.794 148.42C130.743 148.42 130.694 148.434 130.651 148.459L127.88 150.101C127.862 150.111 127.847 150.125 127.836 150.143C127.825 150.16 127.82 150.18 127.82 150.201C127.82 150.222 127.825 150.242 127.836 150.259C127.847 150.277 127.862 150.291 127.88 150.301L130.999 152.146C131.037 152.168 131.08 152.18 131.124 152.18C131.167 152.18 131.21 152.168 131.248 152.146L134.048 150.489C134.064 150.48 134.078 150.466 134.088 150.45C134.097 150.433 134.102 150.415 134.102 150.396C134.102 150.377 134.097 150.358 134.088 150.341C134.078 150.325 134.064 150.312 134.048 150.302L130.936 148.459Z" fill="url(#paint31_linear_514_2)"/>
<path id="Path 638" d="M68.2561 120.343C68.2938 120.365 68.3368 120.377 68.3806 120.377C68.4244 120.377 68.4673 120.365 68.505 120.343L71.3051 118.686C71.3215 118.676 71.3352 118.663 71.3446 118.647C71.3541 118.63 71.359 118.612 71.359 118.593C71.359 118.574 71.3541 118.555 71.3446 118.538C71.3352 118.522 71.3215 118.509 71.3051 118.499L68.197 116.661C68.1538 116.636 68.1047 116.622 68.0546 116.622C68.0045 116.622 67.9554 116.636 67.9121 116.661L65.1411 118.303C65.1229 118.313 65.1076 118.327 65.0969 118.345C65.0863 118.362 65.0807 118.382 65.0807 118.403C65.0807 118.424 65.0863 118.444 65.0969 118.461C65.1076 118.479 65.1229 118.493 65.1411 118.503L68.2561 120.343Z" fill="url(#paint32_linear_514_2)"/>
<path id="Path 639" d="M72.7831 119.528L70.0121 121.17C69.9939 121.18 69.9786 121.194 69.9679 121.212C69.9573 121.229 69.9517 121.249 69.9517 121.27C69.9517 121.291 69.9573 121.311 69.9679 121.328C69.9786 121.346 69.9939 121.36 70.0121 121.37L73.131 123.215C73.1686 123.237 73.2115 123.249 73.2551 123.249C73.2986 123.249 73.3415 123.237 73.3791 123.215L76.1791 121.558C76.1955 121.549 76.2091 121.535 76.2186 121.518C76.228 121.502 76.2331 121.483 76.2331 121.465C76.2331 121.446 76.228 121.427 76.2186 121.411C76.2091 121.394 76.1955 121.38 76.1791 121.371L73.0711 119.533C73.028 119.506 72.9785 119.492 72.9278 119.491C72.8771 119.49 72.8271 119.503 72.7831 119.528Z" fill="url(#paint33_linear_514_2)"/>
<path id="Path 640" d="M77.944 122.39C77.9008 122.365 77.8517 122.351 77.8016 122.351C77.7515 122.351 77.7024 122.365 77.6591 122.39L74.8881 124.032C74.8699 124.042 74.8546 124.056 74.8439 124.074C74.8333 124.091 74.8277 124.111 74.8277 124.132C74.8277 124.153 74.8333 124.173 74.8439 124.19C74.8546 124.208 74.8699 124.222 74.8881 124.232L78.007 126.077C78.0448 126.099 78.0878 126.111 78.1315 126.111C78.1753 126.111 78.2183 126.099 78.2561 126.077L81.0561 124.42C81.0725 124.41 81.0861 124.397 81.0955 124.38C81.105 124.364 81.1101 124.345 81.1101 124.326C81.1101 124.308 81.105 124.289 81.0955 124.273C81.0861 124.256 81.0725 124.242 81.0561 124.233L77.944 122.39Z" fill="url(#paint34_linear_514_2)"/>
<path id="Path 641" d="M82.82 125.252C82.7769 125.227 82.7277 125.213 82.6776 125.213C82.6275 125.213 82.5783 125.227 82.5351 125.252L79.7641 126.894C79.7459 126.904 79.7306 126.918 79.7199 126.936C79.7093 126.953 79.7037 126.973 79.7037 126.994C79.7037 127.015 79.7093 127.035 79.7199 127.052C79.7306 127.07 79.7459 127.084 79.7641 127.094L82.883 128.939C82.9208 128.961 82.9638 128.973 83.0075 128.973C83.0513 128.973 83.0943 128.961 83.1321 128.939L85.9321 127.282C85.9483 127.272 85.9616 127.259 85.9709 127.242C85.9802 127.226 85.9851 127.207 85.9851 127.188C85.9851 127.17 85.9802 127.151 85.9709 127.135C85.9616 127.118 85.9483 127.105 85.9321 127.095L82.82 125.252Z" fill="url(#paint35_linear_514_2)"/>
<path id="Path 642" d="M87.6961 128.114C87.6529 128.089 87.6037 128.075 87.5536 128.075C87.5035 128.075 87.4542 128.089 87.411 128.114L84.64 129.756C84.6218 129.766 84.6066 129.78 84.596 129.798C84.5853 129.815 84.5797 129.835 84.5797 129.856C84.5797 129.877 84.5853 129.897 84.596 129.914C84.6066 129.932 84.6218 129.946 84.64 129.956L87.7591 131.801C87.7967 131.823 87.8395 131.835 87.8831 131.835C87.9267 131.835 87.9695 131.823 88.0071 131.801L90.807 130.144C90.8232 130.134 90.8367 130.121 90.846 130.105C90.8553 130.088 90.8601 130.07 90.8601 130.051C90.8601 130.032 90.8553 130.014 90.846 129.997C90.8367 129.981 90.8232 129.968 90.807 129.958L87.6961 128.114Z" fill="url(#paint36_linear_514_2)"/>
<path id="Path 643" d="M92.5721 130.977C92.5288 130.952 92.4797 130.938 92.4296 130.938C92.3795 130.938 92.3303 130.952 92.287 130.977L89.516 132.619C89.4978 132.629 89.4826 132.643 89.472 132.661C89.4613 132.678 89.4557 132.698 89.4557 132.719C89.4557 132.74 89.4613 132.76 89.472 132.777C89.4826 132.795 89.4978 132.809 89.516 132.819L92.6351 134.664C92.6726 134.686 92.7155 134.698 92.7591 134.698C92.8027 134.698 92.8455 134.686 92.8831 134.664L95.683 133.007C95.6994 132.998 95.7131 132.984 95.7226 132.968C95.732 132.951 95.737 132.933 95.737 132.914C95.737 132.895 95.732 132.876 95.7226 132.859C95.7131 132.843 95.6994 132.83 95.683 132.82L92.5721 130.977Z" fill="url(#paint37_linear_514_2)"/>
<path id="Path 644" d="M97.4471 133.839C97.4037 133.814 97.3544 133.8 97.3041 133.8C97.2538 133.8 97.2044 133.814 97.1611 133.839L94.3901 135.481C94.3718 135.491 94.3566 135.505 94.346 135.523C94.3354 135.54 94.3298 135.56 94.3298 135.581C94.3298 135.602 94.3354 135.622 94.346 135.639C94.3566 135.657 94.3718 135.671 94.3901 135.681L97.5091 137.526C97.5467 137.548 97.5895 137.559 97.6331 137.559C97.6767 137.559 97.7195 137.548 97.7571 137.526L100.557 135.869C100.573 135.86 100.587 135.846 100.596 135.83C100.605 135.813 100.61 135.795 100.61 135.776C100.61 135.757 100.605 135.739 100.596 135.722C100.587 135.706 100.573 135.693 100.557 135.683L97.4471 133.839Z" fill="url(#paint38_linear_514_2)"/>
<path id="Path 645" d="M102.323 136.703C102.28 136.678 102.231 136.664 102.181 136.664C102.131 136.664 102.081 136.678 102.038 136.703L99.2671 138.345C99.2488 138.355 99.2336 138.369 99.223 138.387C99.2124 138.404 99.2068 138.424 99.2068 138.445C99.2068 138.466 99.2124 138.486 99.223 138.503C99.2336 138.521 99.2488 138.535 99.2671 138.545L102.386 140.389C102.424 140.411 102.467 140.423 102.511 140.423C102.554 140.423 102.597 140.411 102.635 140.389L105.435 138.731C105.451 138.721 105.465 138.708 105.474 138.692C105.483 138.675 105.488 138.657 105.488 138.638C105.488 138.619 105.483 138.601 105.474 138.584C105.465 138.568 105.451 138.555 105.435 138.545L102.323 136.703Z" fill="url(#paint39_linear_514_2)"/>
<path id="Path 646" d="M104.144 141.403L107.263 143.248C107.301 143.27 107.344 143.282 107.388 143.282C107.431 143.282 107.474 143.27 107.512 143.248L110.312 141.591C110.329 141.582 110.342 141.568 110.352 141.551C110.361 141.535 110.366 141.516 110.366 141.497C110.366 141.479 110.361 141.46 110.352 141.444C110.342 141.427 110.329 141.413 110.312 141.404L107.204 139.566C107.161 139.541 107.112 139.527 107.062 139.527C107.011 139.527 106.962 139.541 106.919 139.566L104.149 141.208C104.132 141.218 104.117 141.231 104.107 141.248C104.097 141.265 104.091 141.284 104.091 141.304C104.09 141.324 104.095 141.343 104.104 141.361C104.114 141.378 104.127 141.393 104.144 141.403Z" fill="url(#paint40_linear_514_2)"/>
<path id="Path 647" d="M112.387 146.109L115.187 144.452C115.203 144.443 115.217 144.429 115.227 144.412C115.236 144.396 115.241 144.377 115.241 144.359C115.241 144.34 115.236 144.321 115.227 144.305C115.217 144.288 115.203 144.274 115.187 144.265L112.079 142.427C112.036 142.402 111.987 142.388 111.937 142.388C111.886 142.388 111.837 142.402 111.794 142.427L109.023 144.069C109.005 144.079 108.99 144.093 108.979 144.111C108.968 144.128 108.963 144.148 108.963 144.169C108.963 144.19 108.968 144.21 108.979 144.227C108.99 144.245 109.005 144.259 109.023 144.269L112.142 146.114C112.18 146.135 112.222 146.145 112.265 146.144C112.308 146.143 112.35 146.131 112.387 146.109V146.109Z" fill="url(#paint41_linear_514_2)"/>
<path id="Path 648" d="M117.263 148.972L120.063 147.315C120.079 147.306 120.093 147.292 120.103 147.275C120.112 147.259 120.117 147.24 120.117 147.222C120.117 147.203 120.112 147.184 120.103 147.168C120.093 147.151 120.079 147.137 120.063 147.128L116.955 145.29C116.912 145.265 116.863 145.251 116.813 145.251C116.762 145.251 116.713 145.265 116.67 145.29L113.899 146.932C113.882 146.942 113.868 146.956 113.858 146.973C113.848 146.99 113.843 147.01 113.843 147.029C113.843 147.049 113.848 147.069 113.858 147.086C113.868 147.103 113.882 147.117 113.899 147.127L117.018 148.972C117.055 148.994 117.098 149.005 117.141 149.005C117.184 149.005 117.226 148.994 117.263 148.972Z" fill="url(#paint42_linear_514_2)"/>
<path id="Path 649" d="M121.89 151.835C121.928 151.857 121.971 151.869 122.014 151.869C122.058 151.869 122.101 151.857 122.138 151.835L124.938 150.177C124.954 150.167 124.968 150.154 124.977 150.138C124.986 150.121 124.991 150.103 124.991 150.084C124.991 150.065 124.986 150.047 124.977 150.031C124.968 150.014 124.954 150 124.938 149.991L121.83 148.153C121.787 148.127 121.737 148.114 121.687 148.114C121.637 148.114 121.587 148.127 121.544 148.153L118.773 149.795C118.756 149.805 118.742 149.819 118.732 149.836C118.722 149.853 118.717 149.873 118.717 149.893C118.717 149.912 118.722 149.932 118.732 149.949C118.742 149.966 118.756 149.98 118.773 149.99L121.89 151.835Z" fill="url(#paint43_linear_514_2)"/>
<path id="Path 650" d="M126.703 151.015C126.66 150.99 126.611 150.976 126.561 150.976C126.51 150.976 126.461 150.99 126.418 151.015L122.312 153.515L120.728 152.595C120.719 152.579 120.719 152.559 120.702 152.549L117.594 150.711C117.551 150.686 117.502 150.672 117.452 150.672C117.401 150.672 117.352 150.686 117.309 150.711L114.538 152.353C114.52 152.363 114.505 152.377 114.494 152.395C114.483 152.412 114.478 152.432 114.478 152.453C114.478 152.474 114.483 152.494 114.494 152.511C114.505 152.529 114.52 152.543 114.538 152.553L116.538 153.735C116.546 153.758 116.55 153.784 116.575 153.799L122.534 157.26C122.572 157.282 122.615 157.294 122.659 157.294C122.702 157.294 122.745 157.282 122.783 157.26L124.114 156.471C124.136 156.465 124.159 156.483 124.18 156.471L129.813 153.047C129.83 153.038 129.843 153.024 129.853 153.007C129.862 152.991 129.867 152.972 129.867 152.954C129.867 152.935 129.862 152.916 129.853 152.9C129.843 152.883 129.83 152.869 129.813 152.86L126.703 151.015Z" fill="url(#paint44_linear_514_2)"/>
<path id="Path 651" d="M64.0231 122.903C64.0609 122.925 64.1037 122.937 64.1475 122.937C64.1913 122.937 64.2343 122.925 64.272 122.903L67.0721 121.245C67.0885 121.236 67.102 121.222 67.1115 121.206C67.121 121.189 67.126 121.17 67.126 121.152C67.126 121.133 67.121 121.114 67.1115 121.098C67.102 121.081 67.0885 121.068 67.0721 121.058L63.9641 119.22C63.9208 119.195 63.8717 119.181 63.8216 119.181C63.7715 119.181 63.7222 119.195 63.679 119.22L60.908 120.862C60.891 120.872 60.8769 120.886 60.8671 120.903C60.8573 120.92 60.8522 120.94 60.8522 120.96C60.8522 120.979 60.8573 120.999 60.8671 121.016C60.8769 121.033 60.891 121.047 60.908 121.057L64.0231 122.903Z" fill="url(#paint45_linear_514_2)"/>
<path id="Path 652" d="M68.5501 122.084L65.779 123.726C65.7608 123.736 65.7456 123.75 65.735 123.768C65.7243 123.785 65.7187 123.806 65.7187 123.826C65.7187 123.847 65.7243 123.867 65.735 123.884C65.7456 123.902 65.7608 123.916 65.779 123.926L68.898 125.77C68.9358 125.792 68.9788 125.804 69.0226 125.804C69.0663 125.804 69.1093 125.792 69.1471 125.77L71.9471 124.113C71.9635 124.104 71.9771 124.09 71.9865 124.074C71.996 124.057 72.0011 124.039 72.0011 124.02C72.0011 124.001 71.996 123.982 71.9865 123.966C71.9771 123.949 71.9635 123.936 71.9471 123.926L68.8391 122.088C68.7958 122.061 68.7461 122.047 68.6952 122.046C68.6443 122.045 68.5942 122.058 68.5501 122.084Z" fill="url(#paint46_linear_514_2)"/>
<path id="Path 653" d="M73.425 124.946L70.655 126.588C70.638 126.598 70.6239 126.612 70.6141 126.629C70.6043 126.646 70.5992 126.666 70.5992 126.686C70.5992 126.705 70.6043 126.725 70.6141 126.742C70.6239 126.759 70.638 126.773 70.655 126.783L73.774 128.628C73.8116 128.65 73.8545 128.662 73.8981 128.662C73.9417 128.662 73.9845 128.65 74.0221 128.628L76.8221 126.971C76.8385 126.962 76.8521 126.948 76.8616 126.931C76.871 126.915 76.876 126.896 76.876 126.878C76.876 126.859 76.871 126.84 76.8616 126.824C76.8521 126.807 76.8385 126.793 76.8221 126.784L73.7141 124.946C73.6704 124.92 73.6205 124.906 73.5696 124.906C73.5187 124.906 73.4687 124.92 73.425 124.946Z" fill="url(#paint47_linear_514_2)"/>
<path id="Path 654" d="M78.65 131.491C78.6878 131.513 78.7308 131.525 78.7746 131.525C78.8183 131.525 78.8613 131.513 78.8991 131.491L81.6991 129.834C81.7155 129.825 81.7291 129.811 81.7385 129.794C81.748 129.778 81.7531 129.759 81.7531 129.74C81.7531 129.722 81.748 129.703 81.7385 129.687C81.7291 129.67 81.7155 129.656 81.6991 129.647L78.5911 127.809C78.5479 127.784 78.4987 127.77 78.4486 127.77C78.3985 127.77 78.3492 127.784 78.306 127.809L75.535 129.451C75.5168 129.461 75.5016 129.475 75.491 129.493C75.4803 129.51 75.4747 129.53 75.4747 129.551C75.4747 129.572 75.4803 129.592 75.491 129.609C75.5016 129.627 75.5168 129.641 75.535 129.651L78.65 131.491Z" fill="url(#paint48_linear_514_2)"/>
<path id="Path 655" d="M83.526 134.353C83.5638 134.375 83.6068 134.387 83.6506 134.387C83.6943 134.387 83.7373 134.375 83.7751 134.353L86.5751 132.695C86.5915 132.686 86.6051 132.672 86.6145 132.655C86.624 132.639 86.6291 132.62 86.6291 132.602C86.6291 132.583 86.624 132.564 86.6145 132.548C86.6051 132.531 86.5915 132.517 86.5751 132.508L83.4671 130.67C83.4239 130.645 83.3747 130.631 83.3246 130.631C83.2745 130.631 83.2253 130.645 83.1821 130.67L80.4111 132.312C80.3928 132.322 80.3776 132.336 80.367 132.354C80.3563 132.371 80.3508 132.391 80.3508 132.412C80.3508 132.433 80.3563 132.453 80.367 132.47C80.3776 132.488 80.3928 132.502 80.4111 132.512L83.526 134.353Z" fill="url(#paint49_linear_514_2)"/>
<path id="Path 656" d="M88.4011 137.215C88.4388 137.237 88.4818 137.249 88.5256 137.249C88.5693 137.249 88.6123 137.237 88.6501 137.215L91.4501 135.558C91.4665 135.549 91.4801 135.535 91.4896 135.518C91.499 135.502 91.504 135.483 91.504 135.464C91.504 135.446 91.499 135.427 91.4896 135.411C91.4801 135.394 91.4665 135.38 91.4501 135.371L88.3421 133.533C88.2989 133.508 88.2496 133.494 88.1995 133.494C88.1494 133.494 88.1003 133.508 88.0571 133.533L85.2861 135.175C85.2691 135.185 85.255 135.199 85.2452 135.216C85.2354 135.233 85.2302 135.253 85.2302 135.272C85.2302 135.292 85.2354 135.312 85.2452 135.329C85.255 135.346 85.2691 135.36 85.2861 135.37L88.4011 137.215Z" fill="url(#paint50_linear_514_2)"/>
<path id="Path 657" d="M93.278 140.078C93.3157 140.1 93.3587 140.112 93.4026 140.112C93.4464 140.112 93.4894 140.1 93.5271 140.078L96.3271 138.421C96.3435 138.411 96.3571 138.398 96.3665 138.381C96.376 138.365 96.3811 138.346 96.3811 138.327C96.3811 138.309 96.376 138.29 96.3665 138.274C96.3571 138.257 96.3435 138.243 96.3271 138.234L93.2191 136.396C93.1759 136.371 93.1267 136.357 93.0766 136.357C93.0265 136.357 92.9773 136.371 92.9341 136.396L90.1631 138.038C90.1448 138.048 90.1296 138.062 90.119 138.08C90.1083 138.097 90.1028 138.117 90.1028 138.138C90.1028 138.159 90.1083 138.179 90.119 138.196C90.1296 138.214 90.1448 138.228 90.1631 138.238L93.278 140.078Z" fill="url(#paint51_linear_514_2)"/>
<path id="Path 658" d="M98.1531 142.941C98.1908 142.963 98.2338 142.975 98.2776 142.975C98.3214 142.975 98.3643 142.963 98.4021 142.941L101.202 141.284C101.218 141.274 101.232 141.261 101.241 141.245C101.25 141.228 101.255 141.21 101.255 141.191C101.255 141.172 101.25 141.154 101.241 141.137C101.232 141.121 101.218 141.108 101.202 141.098L98.0941 139.26C98.0509 139.235 98.0016 139.221 97.9515 139.221C97.9014 139.221 97.8523 139.235 97.8091 139.26L95.0381 140.902C95.0199 140.912 95.0047 140.926 94.994 140.944C94.9834 140.961 94.9777 140.981 94.9777 141.002C94.9777 141.023 94.9834 141.043 94.994 141.06C95.0047 141.078 95.0199 141.092 95.0381 141.102L98.1531 142.941Z" fill="url(#paint52_linear_514_2)"/>
<path id="Path 659" d="M103.029 145.806C103.067 145.828 103.11 145.84 103.153 145.84C103.197 145.84 103.239 145.828 103.277 145.806L106.077 144.149C106.093 144.14 106.107 144.126 106.117 144.109C106.126 144.093 106.131 144.074 106.131 144.055C106.131 144.037 106.126 144.018 106.117 144.002C106.107 143.985 106.093 143.971 106.077 143.962L102.969 142.124C102.926 142.099 102.877 142.085 102.827 142.085C102.776 142.085 102.727 142.099 102.684 142.124L99.9131 143.766C99.8949 143.776 99.8796 143.79 99.8689 143.808C99.8583 143.825 99.8527 143.845 99.8527 143.866C99.8527 143.887 99.8583 143.907 99.8689 143.924C99.8796 143.942 99.8949 143.956 99.9131 143.966L103.029 145.806Z" fill="url(#paint53_linear_514_2)"/>
<path id="Path 660" d="M107.906 148.666C107.944 148.688 107.987 148.7 108.031 148.7C108.074 148.7 108.117 148.688 108.155 148.666L110.955 147.009C110.971 147 110.985 146.986 110.994 146.969C111.003 146.953 111.008 146.935 111.008 146.916C111.008 146.897 111.003 146.879 110.994 146.862C110.985 146.846 110.971 146.833 110.955 146.823L107.847 144.985C107.804 144.96 107.754 144.946 107.704 144.946C107.654 144.946 107.604 144.96 107.561 144.985L104.791 146.627C104.773 146.637 104.758 146.651 104.747 146.669C104.736 146.686 104.731 146.706 104.731 146.727C104.731 146.748 104.736 146.768 104.747 146.785C104.758 146.803 104.773 146.817 104.791 146.827L107.906 148.666Z" fill="url(#paint54_linear_514_2)"/>
<path id="Path 661" d="M115.825 149.688L112.717 147.85C112.674 147.825 112.625 147.811 112.575 147.811C112.524 147.811 112.475 147.825 112.432 147.85L109.661 149.492C109.643 149.502 109.628 149.516 109.617 149.534C109.606 149.551 109.601 149.571 109.601 149.592C109.601 149.613 109.606 149.633 109.617 149.65C109.628 149.668 109.643 149.682 109.661 149.692L112.78 151.537C112.818 151.559 112.86 151.571 112.904 151.571C112.948 151.571 112.99 151.559 113.028 151.537L115.828 149.88C115.845 149.87 115.86 149.856 115.869 149.839C115.879 149.822 115.884 149.803 115.884 149.783C115.884 149.763 115.878 149.744 115.868 149.727C115.857 149.711 115.843 149.697 115.825 149.688V149.688Z" fill="url(#paint55_linear_514_2)"/>
<path id="Path 662" d="M59.789 125.458C59.8267 125.48 59.8697 125.492 59.9135 125.492C59.9573 125.492 60.0003 125.48 60.038 125.458L62.8381 123.801C62.8545 123.791 62.8681 123.778 62.8775 123.761C62.887 123.745 62.8921 123.726 62.8921 123.707C62.8921 123.689 62.887 123.67 62.8775 123.654C62.8681 123.637 62.8545 123.623 62.8381 123.614L59.7301 121.776C59.6868 121.751 59.6377 121.737 59.5876 121.737C59.5375 121.737 59.4883 121.751 59.445 121.776L56.674 123.418C56.6558 123.428 56.6406 123.442 56.63 123.46C56.6193 123.477 56.6137 123.497 56.6137 123.518C56.6137 123.539 56.6193 123.559 56.63 123.576C56.6406 123.594 56.6558 123.608 56.674 123.618L59.789 125.458Z" fill="url(#paint56_linear_514_2)"/>
<path id="Path 663" d="M64.3201 124.638L61.5491 126.28C61.5308 126.29 61.5156 126.304 61.505 126.322C61.4944 126.339 61.4888 126.359 61.4888 126.38C61.4888 126.401 61.4944 126.421 61.505 126.438C61.5156 126.456 61.5308 126.47 61.5491 126.48L64.6681 128.325C64.7058 128.347 64.7488 128.359 64.7926 128.359C64.8364 128.359 64.8794 128.347 64.9171 128.325L67.717 126.668C67.7334 126.659 67.7471 126.645 67.7566 126.628C67.7661 126.612 67.771 126.593 67.771 126.575C67.771 126.556 67.7661 126.537 67.7566 126.521C67.7471 126.504 67.7334 126.49 67.717 126.481L64.6091 124.643C64.5659 124.616 64.5162 124.602 64.4653 124.601C64.4144 124.6 64.3642 124.613 64.3201 124.638V124.638Z" fill="url(#paint57_linear_514_2)"/>
<path id="Path 664" d="M69.5411 131.184C69.5787 131.206 69.6215 131.218 69.6651 131.218C69.7087 131.218 69.7515 131.206 69.7891 131.184L72.589 129.527C72.6054 129.518 72.6191 129.504 72.6286 129.488C72.638 129.471 72.643 129.453 72.643 129.434C72.643 129.415 72.638 129.396 72.6286 129.379C72.6191 129.363 72.6054 129.35 72.589 129.34L69.4811 127.502C69.4379 127.477 69.3886 127.463 69.3385 127.463C69.2884 127.463 69.2393 127.477 69.1961 127.502L66.4251 129.144C66.4081 129.154 66.394 129.168 66.3842 129.185C66.3744 129.202 66.3692 129.222 66.3692 129.242C66.3692 129.261 66.3744 129.281 66.3842 129.298C66.394 129.315 66.4081 129.329 66.4251 129.339L69.5411 131.184Z" fill="url(#paint58_linear_514_2)"/>
<path id="Path 665" d="M74.4211 134.046C74.4587 134.068 74.5015 134.08 74.5451 134.08C74.5887 134.08 74.6315 134.068 74.6691 134.046L77.4691 132.389C77.4855 132.38 77.4991 132.366 77.5086 132.35C77.5181 132.333 77.523 132.315 77.523 132.296C77.523 132.277 77.5181 132.258 77.5086 132.241C77.4991 132.225 77.4855 132.212 77.4691 132.202L74.361 130.364C74.3178 130.339 74.2687 130.325 74.2186 130.325C74.1685 130.325 74.1193 130.339 74.0761 130.364L71.3051 132.006C71.2881 132.016 71.274 132.03 71.2642 132.047C71.2544 132.064 71.2492 132.084 71.2492 132.104C71.2492 132.123 71.2544 132.143 71.2642 132.16C71.274 132.177 71.2881 132.191 71.3051 132.201L74.4211 134.046Z" fill="url(#paint59_linear_514_2)"/>
<path id="Path 666" d="M79.2931 136.908C79.3307 136.93 79.3735 136.942 79.4171 136.942C79.4607 136.942 79.5035 136.93 79.5411 136.908L82.341 135.251C82.3574 135.242 82.3711 135.228 82.3806 135.212C82.3901 135.195 82.395 135.177 82.395 135.158C82.395 135.139 82.3901 135.12 82.3806 135.103C82.3711 135.087 82.3574 135.074 82.341 135.064L79.2331 133.226C79.1899 133.201 79.1406 133.187 79.0905 133.187C79.0405 133.187 78.9913 133.201 78.9481 133.226L76.1781 134.868C76.1599 134.878 76.1446 134.892 76.134 134.91C76.1234 134.927 76.1178 134.947 76.1178 134.968C76.1178 134.989 76.1234 135.009 76.134 135.026C76.1446 135.044 76.1599 135.058 76.1781 135.068L79.2931 136.908Z" fill="url(#paint60_linear_514_2)"/>
<path id="Path 667" d="M84.1681 139.772C84.2057 139.794 84.2485 139.806 84.2921 139.806C84.3357 139.806 84.3785 139.794 84.4161 139.772L87.216 138.114C87.2322 138.105 87.2457 138.091 87.255 138.075C87.2643 138.058 87.2691 138.04 87.2691 138.021C87.2691 138.002 87.2643 137.984 87.255 137.967C87.2457 137.951 87.2322 137.938 87.216 137.928L84.1081 136.09C84.0649 136.065 84.0157 136.051 83.9656 136.051C83.9154 136.051 83.8663 136.065 83.8231 136.09L81.0521 137.732C81.0339 137.742 81.0186 137.756 81.0079 137.774C80.9973 137.791 80.9917 137.811 80.9917 137.832C80.9917 137.853 80.9973 137.873 81.0079 137.89C81.0186 137.908 81.0339 137.922 81.0521 137.932L84.1681 139.772Z" fill="url(#paint61_linear_514_2)"/>
<path id="Path 668" d="M89.0441 142.633C89.0816 142.655 89.1245 142.667 89.1681 142.667C89.2117 142.667 89.2546 142.655 89.2921 142.633L92.0921 140.976C92.1085 140.967 92.1221 140.953 92.1316 140.936C92.1411 140.92 92.146 140.901 92.146 140.883C92.146 140.864 92.1411 140.845 92.1316 140.829C92.1221 140.812 92.1085 140.798 92.0921 140.789L88.984 138.951C88.9408 138.926 88.8917 138.912 88.8416 138.912C88.7915 138.912 88.7423 138.926 88.6991 138.951L85.9281 140.593C85.9099 140.603 85.8946 140.617 85.8839 140.635C85.8733 140.652 85.8677 140.672 85.8677 140.693C85.8677 140.714 85.8733 140.734 85.8839 140.751C85.8946 140.769 85.9099 140.783 85.9281 140.793L89.0441 142.633Z" fill="url(#paint62_linear_514_2)"/>
<path id="Path 669" d="M93.9211 145.498C93.9588 145.52 94.0018 145.532 94.0456 145.532C94.0894 145.532 94.1324 145.52 94.1701 145.498L96.9701 143.841C96.9865 143.831 97.0001 143.818 97.0096 143.801C97.019 143.785 97.0241 143.766 97.0241 143.747C97.0241 143.729 97.019 143.71 97.0096 143.694C97.0001 143.677 96.9865 143.663 96.9701 143.654L93.8621 141.816C93.8188 141.79 93.7693 141.777 93.719 141.777C93.6687 141.777 93.6194 141.79 93.5761 141.816L90.8051 143.458C90.7869 143.468 90.7717 143.482 90.761 143.5C90.7504 143.517 90.7447 143.537 90.7447 143.558C90.7447 143.579 90.7504 143.599 90.761 143.616C90.7717 143.634 90.7869 143.648 90.8051 143.658L93.9211 145.498Z" fill="url(#paint63_linear_514_2)"/>
<path id="Path 670" d="M98.7961 148.358C98.8338 148.38 98.8768 148.392 98.9206 148.392C98.9644 148.392 99.0074 148.38 99.0451 148.358L101.845 146.701C101.861 146.692 101.875 146.678 101.885 146.661C101.894 146.645 101.899 146.626 101.899 146.608C101.899 146.589 101.894 146.57 101.885 146.554C101.875 146.537 101.861 146.523 101.845 146.514L98.7371 144.676C98.6939 144.651 98.6447 144.637 98.5945 144.637C98.5444 144.637 98.4953 144.651 98.4521 144.676L95.6811 146.318C95.6629 146.328 95.6477 146.342 95.637 146.36C95.6264 146.377 95.6207 146.397 95.6207 146.418C95.6207 146.439 95.6264 146.459 95.637 146.476C95.6477 146.494 95.6629 146.508 95.6811 146.518L98.7961 148.358Z" fill="url(#paint64_linear_514_2)"/>
<path id="Path 671" d="M103.671 151.221C103.709 151.243 103.752 151.255 103.796 151.255C103.839 151.255 103.882 151.243 103.92 151.221L106.72 149.564C106.736 149.555 106.75 149.541 106.76 149.524C106.769 149.508 106.774 149.489 106.774 149.47C106.774 149.452 106.769 149.433 106.76 149.417C106.75 149.4 106.736 149.386 106.72 149.377L103.612 147.539C103.569 147.514 103.52 147.5 103.47 147.5C103.419 147.5 103.37 147.514 103.327 147.539L100.556 149.181C100.538 149.191 100.523 149.205 100.512 149.223C100.501 149.24 100.496 149.26 100.496 149.281C100.496 149.302 100.501 149.322 100.512 149.339C100.523 149.357 100.538 149.371 100.556 149.381L103.671 151.221Z" fill="url(#paint65_linear_514_2)"/>
<path id="Path 672" d="M108.547 154.084C108.585 154.106 108.628 154.118 108.671 154.118C108.715 154.118 108.757 154.106 108.795 154.084L111.595 152.427C111.611 152.417 111.625 152.404 111.635 152.388C111.644 152.371 111.649 152.352 111.649 152.333C111.649 152.315 111.644 152.296 111.635 152.28C111.625 152.263 111.611 152.249 111.595 152.24L108.487 150.402C108.444 150.377 108.395 150.363 108.345 150.363C108.294 150.363 108.245 150.377 108.202 150.402L105.432 152.044C105.414 152.054 105.399 152.068 105.388 152.086C105.377 152.103 105.372 152.123 105.372 152.144C105.372 152.165 105.377 152.185 105.388 152.202C105.399 152.22 105.414 152.234 105.432 152.244L108.547 154.084Z" fill="url(#paint66_linear_514_2)"/>
<path id="Path 673" d="M113.421 156.947C113.459 156.969 113.501 156.981 113.545 156.981C113.589 156.981 113.631 156.969 113.669 156.947L116.469 155.289C116.486 155.28 116.499 155.266 116.509 155.249C116.518 155.233 116.523 155.214 116.523 155.195C116.523 155.177 116.518 155.158 116.509 155.142C116.499 155.125 116.486 155.111 116.469 155.102L113.361 153.264C113.318 153.239 113.269 153.225 113.219 153.225C113.169 153.225 113.119 153.239 113.076 153.264L110.305 154.906C110.288 154.916 110.274 154.93 110.264 154.947C110.254 154.964 110.249 154.984 110.249 155.003C110.249 155.023 110.254 155.043 110.264 155.06C110.274 155.077 110.288 155.091 110.305 155.101L113.421 156.947Z" fill="url(#paint67_linear_514_2)"/>
<path id="Path 674" d="M118.235 156.126C118.192 156.101 118.143 156.087 118.093 156.087C118.042 156.087 117.993 156.101 117.95 156.126L115.18 157.768C115.163 157.778 115.149 157.792 115.139 157.809C115.129 157.826 115.124 157.846 115.124 157.865C115.124 157.885 115.129 157.905 115.139 157.922C115.149 157.939 115.163 157.953 115.18 157.963L118.299 159.808C118.337 159.83 118.38 159.842 118.424 159.842C118.467 159.842 118.51 159.83 118.548 159.808L121.348 158.151C121.364 158.142 121.378 158.128 121.388 158.111C121.397 158.095 121.402 158.076 121.402 158.057C121.402 158.039 121.397 158.02 121.388 158.004C121.378 157.987 121.364 157.973 121.348 157.964L118.235 156.126Z" fill="url(#paint68_linear_514_2)"/>
<path id="Path 675" d="M58.6001 126.169L55.4921 124.331C55.4488 124.306 55.3997 124.292 55.3496 124.292C55.2995 124.292 55.2504 124.306 55.2071 124.331L52.4361 125.973C52.4179 125.983 52.4026 125.997 52.392 126.015C52.3813 126.032 52.3757 126.052 52.3757 126.073C52.3757 126.094 52.3813 126.114 52.392 126.131C52.4026 126.149 52.4179 126.163 52.4361 126.173L55.555 128.017C55.5926 128.039 55.6355 128.051 55.6791 128.051C55.7227 128.051 55.7655 128.039 55.8031 128.017L58.6031 126.36C58.6204 126.351 58.6346 126.337 58.6445 126.32C58.6544 126.303 58.6595 126.283 58.6592 126.264C58.6589 126.244 58.6532 126.225 58.6428 126.208C58.6324 126.191 58.6176 126.178 58.6001 126.169V126.169Z" fill="url(#paint69_linear_514_2)"/>
<path id="Path 676" d="M63.4751 129.032L60.3671 127.194C60.3239 127.169 60.2747 127.155 60.2246 127.155C60.1745 127.155 60.1252 127.169 60.082 127.194L57.311 128.836C57.2928 128.846 57.2776 128.86 57.267 128.878C57.2563 128.895 57.2507 128.915 57.2507 128.936C57.2507 128.957 57.2563 128.977 57.267 128.994C57.2776 129.012 57.2928 129.026 57.311 129.036L60.4301 130.881C60.4678 130.903 60.5108 130.915 60.5546 130.915C60.5983 130.915 60.6413 130.903 60.6791 130.881L63.4791 129.224C63.4966 129.215 63.511 129.201 63.521 129.183C63.531 129.166 63.5361 129.147 63.5357 129.127C63.5352 129.107 63.5294 129.088 63.5187 129.071C63.508 129.054 63.4929 129.041 63.4751 129.032V129.032Z" fill="url(#paint70_linear_514_2)"/>
<path id="Path 677" d="M87.8541 143.344L86.8541 142.755C86.8451 142.74 86.846 142.722 86.829 142.713L65.2381 130.056C65.1949 130.031 65.1457 130.017 65.0956 130.017C65.0455 130.017 64.9963 130.031 64.9531 130.056L62.1821 131.698C62.1638 131.708 62.1486 131.722 62.138 131.74C62.1274 131.757 62.1218 131.777 62.1218 131.798C62.1218 131.819 62.1274 131.839 62.138 131.856C62.1486 131.874 62.1638 131.888 62.1821 131.898L67.0541 134.754C67.0541 134.754 67.0541 134.759 67.0541 134.76L70.173 136.605C70.184 136.611 70.1971 136.605 70.2081 136.605L71.9221 137.61C71.9221 137.61 71.9221 137.62 71.9291 137.623L75.048 139.468C75.061 139.475 75.076 139.463 75.09 139.468L76.7901 140.468C76.7961 140.473 76.7901 140.483 76.8011 140.487L79.9201 142.331C79.9351 142.34 79.953 142.326 79.969 142.331L81.662 143.323C81.669 143.331 81.6621 143.343 81.6771 143.349L84.7961 145.194C84.8337 145.216 84.8765 145.228 84.9201 145.228C84.9637 145.228 85.0065 145.216 85.0441 145.194L87.844 143.536C87.8622 143.528 87.8777 143.515 87.889 143.498C87.9002 143.482 87.9067 143.463 87.9078 143.443C87.9088 143.423 87.9043 143.403 87.8948 143.386C87.8854 143.368 87.8713 143.354 87.8541 143.344Z" fill="url(#paint71_linear_514_2)"/>
<path id="Path 678" d="M92.73 146.207L89.6221 144.369C89.5789 144.344 89.5297 144.33 89.4796 144.33C89.4294 144.33 89.3803 144.344 89.3371 144.369L86.5661 146.011C86.5479 146.021 86.5327 146.035 86.522 146.053C86.5114 146.07 86.5057 146.09 86.5057 146.111C86.5057 146.132 86.5114 146.152 86.522 146.169C86.5327 146.187 86.5479 146.201 86.5661 146.211L89.6851 148.056C89.7228 148.078 89.7658 148.09 89.8096 148.09C89.8534 148.09 89.8964 148.078 89.9341 148.056L92.7341 146.399C92.7515 146.39 92.7661 146.375 92.7761 146.358C92.786 146.341 92.791 146.322 92.7906 146.302C92.7902 146.282 92.7843 146.263 92.7736 146.246C92.7629 146.229 92.7479 146.216 92.73 146.207Z" fill="url(#paint72_linear_514_2)"/>
<path id="Path 679" d="M97.601 149.072L94.4931 147.234C94.4499 147.209 94.4006 147.195 94.3505 147.195C94.3005 147.195 94.2513 147.209 94.2081 147.234L91.4371 148.876C91.4201 148.886 91.406 148.9 91.3962 148.917C91.3864 148.934 91.3812 148.954 91.3812 148.973C91.3812 148.993 91.3864 149.013 91.3962 149.03C91.406 149.047 91.4201 149.061 91.4371 149.071L94.5561 150.916C94.5939 150.938 94.6368 150.95 94.6806 150.95C94.7244 150.95 94.7674 150.938 94.8051 150.916L97.6051 149.259C97.6213 149.249 97.6346 149.235 97.6438 149.219C97.6529 149.202 97.6575 149.183 97.6571 149.164C97.6567 149.145 97.6513 149.127 97.6414 149.111C97.6316 149.094 97.6176 149.081 97.601 149.072V149.072Z" fill="url(#paint73_linear_514_2)"/>
<path id="Path 680" d="M102.482 151.932L99.374 150.094C99.3309 150.069 99.2817 150.055 99.2316 150.055C99.1814 150.055 99.1323 150.069 99.0891 150.094L96.3181 151.736C96.2999 151.746 96.2846 151.76 96.2739 151.778C96.2633 151.795 96.2577 151.815 96.2577 151.836C96.2577 151.857 96.2633 151.877 96.2739 151.894C96.2846 151.912 96.2999 151.926 96.3181 151.936L99.4371 153.781C99.4749 153.803 99.5178 153.815 99.5615 153.815C99.6053 153.815 99.6483 153.803 99.686 153.781L102.486 152.124C102.504 152.115 102.518 152.1 102.528 152.083C102.538 152.066 102.543 152.047 102.543 152.027C102.542 152.007 102.536 151.988 102.526 151.971C102.515 151.954 102.5 151.941 102.482 151.932V151.932Z" fill="url(#paint74_linear_514_2)"/>
<path id="Path 681" d="M107.358 154.794L104.25 152.956C104.207 152.931 104.158 152.917 104.108 152.917C104.058 152.917 104.008 152.931 103.965 152.956L101.195 154.598C101.178 154.608 101.164 154.622 101.154 154.639C101.144 154.656 101.139 154.676 101.139 154.696C101.139 154.715 101.144 154.735 101.154 154.752C101.164 154.769 101.178 154.783 101.195 154.793L104.314 156.638C104.352 156.66 104.395 156.672 104.438 156.672C104.482 156.672 104.524 156.66 104.562 156.638L107.362 154.981C107.378 154.971 107.392 154.957 107.401 154.941C107.41 154.924 107.414 154.905 107.414 154.886C107.414 154.867 107.408 154.849 107.398 154.833C107.389 154.817 107.375 154.803 107.358 154.794V154.794Z" fill="url(#paint75_linear_514_2)"/>
<path id="Path 682" d="M112.234 157.657L109.126 155.819C109.083 155.794 109.034 155.78 108.984 155.78C108.933 155.78 108.884 155.794 108.841 155.819L106.071 157.461C106.053 157.471 106.038 157.485 106.027 157.503C106.016 157.52 106.011 157.54 106.011 157.561C106.011 157.582 106.016 157.602 106.027 157.619C106.038 157.637 106.053 157.651 106.071 157.661L109.19 159.506C109.228 159.528 109.271 159.54 109.315 159.54C109.358 159.54 109.401 159.528 109.439 159.506L112.239 157.849C112.256 157.84 112.271 157.825 112.281 157.808C112.291 157.791 112.296 157.771 112.295 157.752C112.295 157.732 112.289 157.712 112.278 157.696C112.267 157.679 112.252 157.666 112.234 157.657V157.657Z" fill="url(#paint76_linear_514_2)"/>
<path id="Path 683" d="M114.002 158.682C113.959 158.657 113.91 158.643 113.86 158.643C113.809 158.643 113.76 158.657 113.717 158.682L110.946 160.324C110.928 160.334 110.913 160.348 110.902 160.366C110.891 160.383 110.886 160.403 110.886 160.424C110.886 160.445 110.891 160.465 110.902 160.482C110.913 160.5 110.928 160.514 110.946 160.524L114.065 162.369C114.103 162.391 114.146 162.403 114.19 162.403C114.233 162.403 114.276 162.391 114.314 162.369L117.114 160.712C117.13 160.702 117.144 160.689 117.153 160.672C117.162 160.656 117.167 160.637 117.167 160.619C117.167 160.6 117.162 160.581 117.153 160.565C117.144 160.548 117.13 160.535 117.114 160.525L114.002 158.682Z" fill="url(#paint77_linear_514_2)"/>
</g>
</g>
<g id="Group 426">
<g id="Group 421">
<path id="Path 684" d="M123.665 109.215C123.611 109.215 121.619 109.915 121.565 109.887L41.4911 61.619C41.3818 61.5559 41.2987 61.4558 41.2569 61.3367C41.2151 61.2177 41.2173 61.0876 41.2631 60.97L62.9081 0.669998C63.5764 0.356903 64.2822 0.131053 65.0081 -0.0019989C65.0667 -0.00147317 65.1242 0.0151326 65.1741 0.0460052L146.331 47.098C146.675 47.2958 146.936 47.6103 147.068 47.9844C147.2 48.3585 147.193 48.7674 147.049 49.137L123.969 109.015C123.944 109.075 123.902 109.126 123.848 109.162C123.794 109.198 123.73 109.216 123.665 109.215V109.215Z" fill="url(#paint78_linear_514_2)"/>
<path id="Path 685" d="M121.565 109.89C121.51 109.89 121.456 109.874 121.409 109.845L39.3911 62.293C39.2816 62.2301 39.1984 62.13 39.1563 62.0109C39.1143 61.8919 39.1163 61.7617 39.1621 61.644L62.5791 0.894003C62.6045 0.828119 62.6495 0.771563 62.7079 0.731894C62.7663 0.692225 62.8355 0.671333 62.9061 0.672003C62.9648 0.672478 63.0222 0.689087 63.0721 0.720007L144.229 47.772C144.573 47.9698 144.834 48.2843 144.966 48.6584C145.098 49.0325 145.091 49.4414 144.947 49.811L121.869 109.684C121.845 109.745 121.804 109.798 121.749 109.834C121.695 109.871 121.631 109.891 121.565 109.89V109.89Z" fill="url(#paint79_linear_514_2)"/>
<path id="Path 686" d="M43.4461 60.496L64.5591 5.72101L141.012 50.046L119.899 104.826L43.4461 60.496Z" fill="white"/>
</g>
<g id="Group 425">
<g id="Group 423">
<path id="Path 687" d="M71.3821 21.502L56.0011 59.922L56.1931 59.927L58.6261 53.849L64.9031 57.496L62.44 63.65L62.6321 63.655L65.061 57.588L71.3381 61.235L68.8791 67.378L69.071 67.383L71.4961 61.326L77.7731 64.973L75.3181 71.105L75.5101 71.11L77.93 65.064L84.2071 68.711L81.7561 74.832L81.9481 74.837L84.3641 68.802L90.6411 72.449L88.1951 78.56L88.3871 78.565L90.7991 72.541L97.076 76.188L94.6341 82.288L94.826 82.293L97.2331 76.279L103.51 79.926L101.072 86.015L101.264 86.02L103.664 80.02L110.039 83.72L110.187 83.594L103.733 79.844L106.25 73.558L112.624 77.258L112.772 77.132L106.318 73.382L108.834 67.096L115.209 70.796L115.357 70.67L108.903 66.92L111.42 60.634L117.795 64.334L117.943 64.208L111.489 60.458L114.006 54.172L120.381 57.872L120.529 57.746L114.076 53.996L116.592 47.71L122.966 51.41L123.114 51.284L71.581 21.342L71.4331 21.468L71.4531 21.48L71.3821 21.502ZM63.7971 40.934L70.0741 44.581L67.5571 50.867L61.2801 47.22L63.7971 40.934ZM88.2711 39.234L94.5481 42.884L92.0311 49.17L85.7541 45.523L88.2711 39.234ZM85.597 45.428L79.3201 41.781L81.836 35.495L88.113 39.142L85.597 45.428ZM94.7051 42.972L100.982 46.619L98.466 52.905L92.1891 49.258L94.7051 42.972ZM98.3971 53.072L95.8811 59.358L89.6041 55.711L92.1211 49.425L98.3971 53.072ZM89.446 55.619L83.1691 51.972L85.685 45.686L91.962 49.333L89.446 55.619ZM83.0121 51.88L76.7351 48.233L79.2511 41.947L85.5281 45.594L83.0121 51.88ZM76.5781 48.141L70.3011 44.494L72.8171 38.208L79.0941 41.855L76.5781 48.141ZM72.8861 38.041L75.4031 31.755L81.68 35.402L79.164 41.688L72.8861 38.041ZM75.4711 31.583L77.987 25.297L84.2871 28.956H84.263L81.7511 35.231L75.4711 31.583ZM84.4221 29.036L90.6991 32.683L88.1821 38.969L81.9051 35.322L84.4221 29.036ZM90.8561 32.774L97.133 36.421L94.6171 42.707L88.3401 39.06L90.8561 32.774ZM97.29 36.513L103.567 40.16L101.05 46.446L94.7731 42.799L97.29 36.513ZM103.724 40.251L110.001 43.898L107.485 50.184L101.208 46.537L103.724 40.251ZM107.416 50.351L104.899 56.637L98.6221 52.99L101.138 46.704L107.416 50.351ZM104.831 56.809L102.315 63.095L96.0381 59.448L98.5541 53.162L104.831 56.809ZM102.246 63.267L99.7291 69.553L93.4521 65.906L95.9681 59.62L102.246 63.267ZM93.295 65.814L87.0181 62.167L89.534 55.881L95.811 59.528L93.295 65.814ZM86.8611 62.075L80.5841 58.428L83.1011 52.142L89.378 55.789L86.8611 62.075ZM80.4271 58.336L74.1501 54.689L76.6661 48.403L82.9431 52.05L80.4271 58.336ZM73.993 54.598L67.716 50.951L70.2331 44.665L76.5101 48.312L73.993 54.598ZM66.3841 34.469L72.6611 38.116L70.144 44.402L63.8671 40.755L66.3841 34.469ZM68.9691 28.011L75.2461 31.658L72.7301 37.944L66.4531 34.297L68.9691 28.011ZM71.5541 21.553L77.8701 25.223H77.8221L75.3141 31.487L69.0371 27.84L71.5541 21.553ZM113.92 53.917L107.643 50.27L110.16 43.984L116.437 47.631L113.92 53.917ZM111.335 60.375L105.058 56.728L107.574 50.442L113.851 54.089L111.335 60.375ZM108.75 66.833L102.473 63.186L104.99 56.9L111.267 60.547L108.75 66.833ZM106.165 73.291L99.888 69.644L102.404 63.358L108.681 67.005L106.165 73.291ZM97.3031 76.102L99.8201 69.816L106.097 73.463L103.58 79.749L97.3031 76.102ZM90.8691 72.363L93.3851 66.077L99.6621 69.724L97.1461 76.01L90.8691 72.363ZM84.435 68.624L86.9521 62.338L93.2291 65.985L90.712 72.271L84.435 68.624ZM78.0011 64.886L80.5171 58.6L86.7941 62.247L84.2781 68.533L78.0011 64.886ZM71.5671 61.147L74.0841 54.861L80.3611 58.508L77.8441 64.794L71.5671 61.147ZM65.133 57.408L67.649 51.122L73.9261 54.769L71.4101 61.055L65.133 57.408ZM58.6991 53.669L61.2151 47.383L67.4921 51.03L64.9751 57.316L58.6991 53.669Z" fill="#D1D1D1"/>
<g id="Group 422">
<path id="Path 688" d="M54.4031 61.208L72.2031 16.738L72.9471 17.789L55.763 60.712L107.639 89.83L107.704 91.13L54.4031 61.208Z" fill="#D1D1D1"/>
</g>
</g>
<g id="Group 424">
<path id="Path 689" d="M70.381 60.944L62.8991 56.668L66.8271 46.856L74.3091 51.133L70.381 60.944Z" fill="url(#paint80_linear_514_2)"/>
<path id="Path 690" d="M81.973 67.569L74.4911 63.292L80.9131 47.25L88.395 51.526L81.973 67.569Z" fill="url(#paint81_linear_514_2)"/>
<path id="Path 691" d="M93.5651 74.194L86.0831 69.918L93.383 51.672L100.865 55.948L93.5651 74.194Z" fill="url(#paint82_linear_514_2)"/>
<path id="Path 692" d="M105.156 80.819L97.6741 76.543L108.196 50.259L115.678 54.535L105.156 80.819Z" fill="url(#paint83_linear_514_2)"/>
</g>
<path id="translate" d="M135.716 47.553L125.925 47.282L126.799 49.756L93.792 63.03L85.798 47.383L68.1141 54.729L55.876 49.629L53.9761 51.579L67.4401 57.188L83.9271 50.34L91.9051 65.957L127.468 51.657L128.406 54.312L135.716 47.553Z" fill="url(#paint84_linear_514_2)"/>
</g>
</g>
</g>
<g id="man_2">
<path id="Path 694" d="M157.651 79.476C154.643 81.63 152.302 84.5865 150.895 88.008C148.686 93.582 142.954 105.39 142.954 105.39L145.163 114.712L153.518 102.42L157.651 79.476Z" fill="url(#paint85_linear_514_2)"/>
<g id="Group 434">
<g id="Group 432">
<path id="Path 695" d="M158.218 172.56C158.218 172.56 159.323 176.452 158.218 177.478C155.36 180.129 153.718 178.478 150.651 180.778C147.584 183.078 146.481 184.578 143.265 183.733C140.049 182.888 140.032 178.951 143.909 177.098C147.654 175.308 150.648 172.809 151.49 170.206C152.332 167.603 158.218 172.56 158.218 172.56Z" fill="#3E3E3E"/>
<path id="Path 696" d="M150.252 120.497C150.252 120.497 148.432 143.17 148.745 147.345C149.058 151.52 149.88 155.59 150.252 162.166C150.497 165.501 150.497 168.85 150.252 172.186C150.252 172.186 150.207 173.438 152.816 174.169C155.425 174.9 158.243 172.603 158.243 172.603C158.243 172.603 161.18 162.27 160.39 156.426C159.6 150.582 158.035 148.285 158.035 148.285L160.742 137.223C160.742 137.223 162.301 138.215 163.149 132.63C163.613 129.939 163.892 127.218 163.984 124.489L150.252 120.497Z" fill="url(#paint86_linear_514_2)"/>
<path id="Path 697" d="M179.363 180.492C179.64 181.062 179.784 181.687 179.784 182.321C179.784 182.955 179.64 183.58 179.363 184.15C178.406 186.065 176.563 187.596 174.729 189.97C172.895 192.344 171.436 193.57 169.829 193.723C168.222 193.876 163.243 192.957 165.004 190.047C166.765 187.137 168.663 185.605 170.279 183.308C171.309 181.713 171.968 179.907 172.21 178.024L179.363 180.492Z" fill="#3E3E3E"/>
<path id="Path 698" d="M176.365 122.465C176.365 122.465 177.586 128.389 176.821 131.065C176.354 132.695 175.78 134.291 175.101 135.845L176.087 152.096C176.087 152.096 179.212 160.317 179.687 166.818C180.162 173.319 180.165 179.628 180.165 179.628C179.606 180.407 178.816 180.992 177.908 181.301C177 181.609 176.018 181.626 175.099 181.349C171.658 180.489 171.084 178.768 171.084 178.768C171.084 178.768 170.415 161.656 166.113 154.104C161.811 146.552 157.365 135.415 158.703 123.37C160.041 111.325 176.365 122.465 176.365 122.465Z" fill="url(#paint87_linear_514_2)"/>
</g>
<path id="Path 699" d="M173.04 82.713C173.04 82.713 182.453 88.745 182.387 90.27C182.321 91.795 177.087 108.499 176.421 113.87C176.093 117.601 176.383 121.361 177.28 124.998C177.28 124.998 171.98 130.773 161.109 129.779C150.238 128.785 149.709 120.897 149.709 120.897C149.709 120.897 151.565 90.14 153.686 85.497C155.807 80.854 157.067 78.935 159.519 79.067C161.971 79.199 173.04 82.713 173.04 82.713Z" fill="url(#paint88_linear_514_2)"/>
<path id="Path 700" d="M163.255 78.015V83.215C163.255 83.215 162.979 84.964 165.372 85.286C167.765 85.608 173.14 82.831 173.14 82.831L172.64 71.894L163.255 78.015Z" fill="url(#paint89_linear_514_2)"/>
<path id="Path 701" d="M173.505 81.363L166.326 83.982L168.192 88.008L174.849 83.908L173.505 81.363Z" fill="url(#paint90_linear_514_2)"/>
<path id="Path 702" d="M163.246 81.994L163.756 83.694L161.913 85.314L161.149 80.78L163.246 81.994Z" fill="url(#paint91_linear_514_2)"/>
<g id="Group 433">
<path id="Path 703" d="M161.16 68.95C161.16 68.95 160.56 72.816 160.838 73.092C161.116 73.368 161.528 73.736 161.528 73.736C161.528 73.736 160.738 74.794 160.765 75.255C160.792 75.716 161.041 80.593 161.146 80.777C162.03 81.5913 163.092 82.1899 164.246 82.526C165.346 82.664 171.333 78.89 172.484 77.926C173.635 76.962 173.22 71.115 173.22 71.115C171.935 70.3079 170.599 69.5854 169.22 68.952L161.16 68.95Z" fill="url(#paint92_linear_514_2)"/>
<path id="Path 704" d="M158.937 68.2089C158.937 68.2089 161.695 71.909 164.613 71.689C165.859 71.6384 167.1 71.4939 168.324 71.257C168.324 71.257 167.424 73.274 168.144 73.887C168.864 74.5 168.361 76.301 169.009 76.301C169.657 76.301 169.549 73.167 170.702 73.131C171.855 73.095 171.747 74.82 171.278 75.741C170.809 76.662 171.494 78.967 172.863 78.967C174.232 78.967 175.917 75.4419 177.033 73.1359C177.694 71.703 177.81 70.0784 177.36 68.566C177.36 68.566 175.908 61.357 169.388 62.546C165.406 63.3164 161.757 65.2935 158.937 68.2089V68.2089Z" fill="#3E3E3E"/>
</g>
</g>
<path id="Path 705" d="M133.844 91.235L143.214 104.864C144.023 105.352 144.715 106.01 145.244 106.793C145.772 107.575 146.124 108.464 146.274 109.396C146.687 112.48 147.103 113.954 144.548 114.713C141.993 115.472 137.919 113.884 134.259 108.084C131.796 104.044 129.649 99.819 127.837 95.448C127.837 95.448 133.153 93.237 133.844 91.235Z" fill="url(#paint93_linear_514_2)"/>
<path id="Path 706" d="M132.791 92.588C132.791 92.588 131.702 87.34 131.212 86.606C130.722 85.872 126.355 83.217 126.355 83.217C126.355 83.217 124.992 83.462 126.145 84.617C127.298 85.772 127.962 86.993 126.774 86.817C125.586 86.641 122.302 83.323 120.694 84.266C119.086 85.209 120.38 87.516 122.756 89.682C125.132 91.848 125.124 93.002 126.386 93.526C127.235 93.909 128.016 94.4282 128.697 95.063C128.697 95.063 132.727 94.481 132.791 92.588Z" fill="url(#paint94_linear_514_2)"/>
<path id="Path 707" d="M182.387 90.2701C179.019 88.1191 175.629 92.257 176.232 99.361C176.835 106.465 177.632 112.361 177.632 112.361L173.954 134.755C173.954 134.755 174.154 136.086 176.903 136.355C179.652 136.624 180.168 135.685 180.168 135.685C180.168 135.685 184.476 118.415 184.878 113.043C185.28 107.671 185.258 92.1031 182.387 90.2701Z" fill="url(#paint95_linear_514_2)"/>
<path id="Path 708" d="M174.774 135.74C174.229 136.094 173.837 136.64 173.674 137.269C173.479 137.927 173.394 138.612 173.425 139.298C173.425 139.298 173.902 139.681 174.094 138.934L174.286 138.188C174.496 138.962 174.53 139.772 174.386 140.561C174.099 141.499 174.597 141.575 175.286 141.327C176.225 141.129 177.052 140.582 177.602 139.796C178.103 138.664 178.532 137.503 178.889 136.318C177.491 136.473 176.076 136.274 174.774 135.74V135.74Z" fill="url(#paint96_linear_514_2)"/>
</g>
<g id="man_1">
<path id="Union 4" d="M3.06289 120.953C2.06517 119.196 1.35629 117.289 0.963038 115.307C0.729963 114.792 0.580903 114.244 0.521876 113.682C0.161876 110.807 2.775 103.76 5.277 96.3961C6.73897 92.0293 9.3721 88.1477 12.8891 85.1749L15.1449 95.257L8.94497 113.357C8.92705 113.705 8.85976 114.049 8.74502 114.378L14.6989 128.453C13.404 128.566 12.1932 129.141 11.288 130.074C10.9069 130.432 10.6281 130.885 10.4806 131.387C10.3331 131.888 10.3222 132.42 10.4489 132.927C7.72996 129.1 5.26277 125.1 3.06289 120.953V120.953Z" fill="url(#paint97_linear_514_2)"/>
<g id="Group 437">
<g id="Group 436">
<path id="Path 711" d="M11.562 186.69C11.562 186.69 10.856 190.848 11.562 191.39C12.268 191.932 17.698 192.056 18.587 191.39C19.476 190.724 20.081 187.39 21.293 185.151C22.505 182.912 22.626 179.458 20.445 179.094C19.7802 178.935 19.0854 178.952 18.4291 179.143C17.7728 179.334 17.1777 179.693 16.702 180.184C16.204 180.673 11.562 186.69 11.562 186.69Z" fill="#3E3E3E"/>
<path id="Path 712" d="M26.963 193.251C26.963 193.251 25.393 197.351 26.112 197.976C26.831 198.601 28.654 200.134 29.806 199.991C30.958 199.848 33.355 197.722 35.466 196.626C37.577 195.53 39.591 194.858 39.591 193.659C39.591 192.46 39.543 190.205 37.528 190.349C35.513 190.493 26.963 193.251 26.963 193.251Z" fill="#3E3E3E"/>
<path id="Path 713" d="M11.087 130.136C11.087 130.136 8.76704 135.2 10.134 139.93C11.501 144.66 11.921 145.186 11.921 145.186V160.744C11.1557 165.223 10.7846 169.761 10.812 174.305C10.765 182.605 10.812 185.869 10.812 185.869C10.812 185.869 10.87 187.025 14.129 187.341C17.388 187.657 18.649 186.5 18.649 186.5C18.649 186.5 17.703 171.993 21.382 162.111C25.061 152.229 24.956 130.889 24.956 130.889L11.087 130.136Z" fill="url(#paint98_linear_514_2)"/>
<path id="Path 714" d="M13.925 84.861C11.162 85.168 7.49505 90.08 8.72505 97.447C9.95505 104.814 12.288 113.061 12.288 118.947C12.2727 122.569 11.7393 126.169 10.7041 129.64C10.7041 129.64 13.841 134.586 24.176 135.098C34.511 135.61 36.25 130.898 36.25 130.898C36.25 130.898 37.0691 96.619 35.3291 94.777C33.5891 92.935 13.925 84.861 13.925 84.861Z" fill="url(#paint99_linear_514_2)"/>
<path id="Path 715" d="M34.841 73.768C34.841 73.768 35.162 76.841 34.841 77.483C34.52 78.125 34.061 78.354 34.291 79.042C34.5396 79.4504 34.6966 79.9079 34.751 80.3829C34.8054 80.8579 34.7559 81.339 34.606 81.793C34.153 83.352 34.015 85.966 33.281 86.15C32.2707 86.4169 31.2755 86.7383 30.3 87.113C29.8866 87.9685 29.549 88.8586 29.291 89.773L20.521 87.135L22.821 78.216C22.821 78.216 26.536 73.216 26.765 73.171C26.994 73.126 34.841 73.768 34.841 73.768Z" fill="url(#paint100_linear_514_2)"/>
<path id="Path 716" d="M36.853 69.778C38.169 70.412 36.53 73.678 34.678 74.312C32.826 74.946 32.631 75.384 32.826 76.846C33.021 78.308 31.9 78.552 31.998 79.477C32.096 80.402 31.949 81.036 31.413 81.036C30.877 81.036 30.828 78.21 30.195 77.82C29.562 77.43 28.733 79.811 29.172 81.471C29.611 83.131 28.133 84.496 26.427 84.789C24.721 85.082 21.899 84.615 21.21 83.641C19.805 81.4354 18.8967 78.9507 18.548 76.359C18.4244 75.6463 18.5847 74.9135 18.9945 74.3175C19.4044 73.7215 20.0313 73.3096 20.741 73.17C20.741 73.17 19.961 68.07 24.006 68.221C28.051 68.372 32.639 68.569 33.516 68.521C34.393 68.473 36.853 69.778 36.853 69.778Z" fill="#3E3E3E"/>
<path id="Path 717" d="M18.465 87.005C18.465 87.005 19.187 85.853 20.065 85.936C20.943 86.019 23.487 87.461 26.285 87.969C29.083 88.477 29.634 88.605 29.885 89.622C30.058 90.3902 30.1776 91.1694 30.243 91.954C30.243 91.954 19.78 88.881 18.465 87.005Z" fill="url(#paint101_linear_514_2)"/>
<path id="Path 718" d="M19.436 134.487C19.436 134.487 17.253 142.444 19.89 145.629C22.527 148.814 23.956 149.534 23.956 149.534L27.689 167.707C26.8679 172.87 26.3909 178.081 26.261 183.307V191.875C26.4738 192.705 26.9808 193.43 27.6878 193.915C28.3948 194.4 29.2537 194.612 30.105 194.511C30.9821 194.538 31.8537 194.363 32.6532 194.002C33.4527 193.64 34.1589 193.1 34.718 192.424C34.718 192.424 35.926 172.872 37.903 166.392C39.88 159.912 35.71 131.771 35.71 131.771C35.71 131.771 30.406 137.185 19.436 134.487Z" fill="url(#paint102_linear_514_2)"/>
</g>
</g>
<path id="Union 3" d="M35.4 139.338C34.6944 138.912 34.1332 138.284 33.7892 137.535C33.4452 136.786 33.3342 135.951 33.4708 135.138L37.329 122.671C35.1802 116.879 33.3631 110.97 31.8868 104.971C30.1648 97.2221 32.272 94.2231 35.328 94.7821C39.246 95.4971 47.2899 123.721 47.2899 123.721C47.7329 125.239 39.2799 138.798 39.2799 138.798C39.0192 139.118 38.6919 139.376 38.3209 139.555C37.9498 139.735 37.5441 139.831 37.1319 139.837C36.5209 139.825 35.9239 139.653 35.4 139.338V139.338Z" fill="url(#paint103_linear_514_2)"/>
<path id="Path 721" d="M33.423 136.209C33.423 136.209 32.575 136.709 33.001 138.091C33.427 139.473 35.309 141.002 35.486 142.458C35.663 143.914 36.809 148.682 37.71 148.304C38.611 147.926 38.859 144.943 38.859 142.671C38.9255 141.597 38.7811 140.52 38.434 139.501C38.434 139.501 34.342 139.866 33.423 136.209Z" fill="url(#paint104_linear_514_2)"/>
</g>
</g>
</g>
<defs>
<linearGradient id="paint0_linear_514_2" x1="49.0534" y1="145.992" x2="156.444" y2="156.203" gradientUnits="userSpaceOnUse">
<stop stop-color="#525575"/>
<stop offset="1" stop-color="#828492"/>
</linearGradient>
<linearGradient id="paint1_linear_514_2" x1="49.0534" y1="145.682" x2="156.444" y2="155.893" gradientUnits="userSpaceOnUse">
<stop stop-color="#D1D2D7"/>
<stop offset="1" stop-color="#A4A5A6"/>
</linearGradient>
<linearGradient id="paint2_linear_514_2" x1="147.507" y1="140.037" x2="120.575" y2="44.2557" gradientUnits="userSpaceOnUse">
<stop stop-color="#09C957"/>
<stop offset="1" stop-color="#045224"/>
</linearGradient>
<linearGradient id="paint3_linear_514_2" x1="69.2174" y1="88.7279" x2="192.637" y2="88.7279" gradientUnits="userSpaceOnUse">
<stop stop-color="#09C957"/>
<stop offset="1" stop-color="#045224"/>
</linearGradient>
<linearGradient id="paint4_linear_514_2" x1="82.6849" y1="188.802" x2="87.8883" y2="70.05" gradientUnits="userSpaceOnUse">
<stop stop-color="#F7F7F8"/>
<stop offset="1" stop-color="#E3E5E6"/>
</linearGradient>
<linearGradient id="paint5_linear_514_2" x1="103.726" y1="164.024" x2="99.1794" y2="114.577" gradientUnits="userSpaceOnUse">
<stop stop-color="#09C957"/>
<stop offset="1" stop-color="#045224"/>
</linearGradient>
<linearGradient id="paint6_linear_514_2" x1="27.5885" y1="77.678" x2="59.3932" y2="142.402" gradientUnits="userSpaceOnUse">
<stop stop-color="#F7F7F8"/>
<stop offset="1" stop-color="#D6D8D9"/>
</linearGradient>
<linearGradient id="paint7_linear_514_2" x1="32.4826" y1="80.5249" x2="64.3156" y2="145.257" gradientUnits="userSpaceOnUse">
<stop stop-color="#F7F7F8"/>
<stop offset="1" stop-color="#D6D8D9"/>
</linearGradient>
<linearGradient id="paint8_linear_514_2" x1="37.3729" y1="83.3955" x2="69.2013" y2="148.113" gradientUnits="userSpaceOnUse">
<stop stop-color="#F7F7F8"/>
<stop offset="1" stop-color="#D6D8D9"/>
</linearGradient>
<linearGradient id="paint9_linear_514_2" x1="42.2417" y1="86.255" x2="74.0707" y2="150.978" gradientUnits="userSpaceOnUse">
<stop stop-color="#F7F7F8"/>
<stop offset="1" stop-color="#D6D8D9"/>
</linearGradient>
<linearGradient id="paint10_linear_514_2" x1="47.1145" y1="89.1183" x2="78.942" y2="153.844" gradientUnits="userSpaceOnUse">
<stop stop-color="#F7F7F8"/>
<stop offset="1" stop-color="#D6D8D9"/>
</linearGradient>
<linearGradient id="paint11_linear_514_2" x1="51.9905" y1="91.9811" x2="83.818" y2="156.707" gradientUnits="userSpaceOnUse">
<stop stop-color="#F7F7F8"/>
<stop offset="1" stop-color="#D6D8D9"/>
</linearGradient>
<linearGradient id="paint12_linear_514_2" x1="56.8665" y1="94.8433" x2="88.694" y2="159.569" gradientUnits="userSpaceOnUse">
<stop stop-color="#F7F7F8"/>
<stop offset="1" stop-color="#D6D8D9"/>
</linearGradient>
<linearGradient id="paint13_linear_514_2" x1="61.7497" y1="97.7107" x2="93.5735" y2="162.427" gradientUnits="userSpaceOnUse">
<stop stop-color="#F7F7F8"/>
<stop offset="1" stop-color="#D6D8D9"/>
</linearGradient>
<linearGradient id="paint14_linear_514_2" x1="66.6167" y1="100.57" x2="98.4409" y2="165.293" gradientUnits="userSpaceOnUse">
<stop stop-color="#F7F7F8"/>
<stop offset="1" stop-color="#D6D8D9"/>
</linearGradient>
<linearGradient id="paint15_linear_514_2" x1="71.4896" y1="103.429" x2="103.317" y2="168.157" gradientUnits="userSpaceOnUse">
<stop stop-color="#F7F7F8"/>
<stop offset="1" stop-color="#D6D8D9"/>
</linearGradient>
<linearGradient id="paint16_linear_514_2" x1="76.3625" y1="106.284" x2="108.201" y2="171.023" gradientUnits="userSpaceOnUse">
<stop stop-color="#F7F7F8"/>
<stop offset="1" stop-color="#D6D8D9"/>
</linearGradient>
<linearGradient id="paint17_linear_514_2" x1="81.2465" y1="109.154" x2="113.076" y2="173.88" gradientUnits="userSpaceOnUse">
<stop stop-color="#F7F7F8"/>
<stop offset="1" stop-color="#D6D8D9"/>
</linearGradient>
<linearGradient id="paint18_linear_514_2" x1="86.1274" y1="112.021" x2="117.954" y2="176.737" gradientUnits="userSpaceOnUse">
<stop stop-color="#F7F7F8"/>
<stop offset="1" stop-color="#D6D8D9"/>
</linearGradient>
<linearGradient id="paint19_linear_514_2" x1="23.3574" y1="80.221" x2="55.1791" y2="144.957" gradientUnits="userSpaceOnUse">
<stop stop-color="#F7F7F8"/>
<stop offset="1" stop-color="#D6D8D9"/>
</linearGradient>
<linearGradient id="paint20_linear_514_2" x1="28.1999" y1="83.0403" x2="60.0741" y2="147.843" gradientUnits="userSpaceOnUse">
<stop stop-color="#F7F7F8"/>
<stop offset="1" stop-color="#D6D8D9"/>
</linearGradient>
<linearGradient id="paint21_linear_514_2" x1="33.1135" y1="85.9471" x2="64.935" y2="150.68" gradientUnits="userSpaceOnUse">
<stop stop-color="#F7F7F8"/>
<stop offset="1" stop-color="#D6D8D9"/>
</linearGradient>
<linearGradient id="paint22_linear_514_2" x1="37.958" y1="88.7749" x2="69.8222" y2="153.563" gradientUnits="userSpaceOnUse">
<stop stop-color="#F7F7F8"/>
<stop offset="1" stop-color="#D6D8D9"/>
</linearGradient>
<linearGradient id="paint23_linear_514_2" x1="42.834" y1="91.6293" x2="74.7099" y2="156.426" gradientUnits="userSpaceOnUse">
<stop stop-color="#F7F7F8"/>
<stop offset="1" stop-color="#D6D8D9"/>
</linearGradient>
<linearGradient id="paint24_linear_514_2" x1="47.7475" y1="94.5387" x2="79.5658" y2="159.262" gradientUnits="userSpaceOnUse">
<stop stop-color="#F7F7F8"/>
<stop offset="1" stop-color="#D6D8D9"/>
</linearGradient>
<linearGradient id="paint25_linear_514_2" x1="52.5759" y1="97.3508" x2="84.4534" y2="162.156" gradientUnits="userSpaceOnUse">
<stop stop-color="#F7F7F8"/>
<stop offset="1" stop-color="#D6D8D9"/>
</linearGradient>
<linearGradient id="paint26_linear_514_2" x1="57.4996" y1="100.259" x2="89.3245" y2="164.988" gradientUnits="userSpaceOnUse">
<stop stop-color="#F7F7F8"/>
<stop offset="1" stop-color="#D6D8D9"/>
</linearGradient>
<linearGradient id="paint27_linear_514_2" x1="62.338" y1="103.078" x2="94.2156" y2="167.876" gradientUnits="userSpaceOnUse">
<stop stop-color="#F7F7F8"/>
<stop offset="1" stop-color="#D6D8D9"/>
</linearGradient>
<linearGradient id="paint28_linear_514_2" x1="67.2211" y1="105.941" x2="99.1018" y2="170.735" gradientUnits="userSpaceOnUse">
<stop stop-color="#F7F7F8"/>
<stop offset="1" stop-color="#D6D8D9"/>
</linearGradient>
<linearGradient id="paint29_linear_514_2" x1="72.1389" y1="108.849" x2="103.966" y2="173.572" gradientUnits="userSpaceOnUse">
<stop stop-color="#F7F7F8"/>
<stop offset="1" stop-color="#D6D8D9"/>
</linearGradient>
<linearGradient id="paint30_linear_514_2" x1="77.0289" y1="111.719" x2="108.85" y2="176.426" gradientUnits="userSpaceOnUse">
<stop stop-color="#F7F7F8"/>
<stop offset="1" stop-color="#D6D8D9"/>
</linearGradient>
<linearGradient id="paint31_linear_514_2" x1="81.8329" y1="114.526" x2="113.71" y2="179.331" gradientUnits="userSpaceOnUse">
<stop stop-color="#F7F7F8"/>
<stop offset="1" stop-color="#D6D8D9"/>
</linearGradient>
<linearGradient id="paint32_linear_514_2" x1="19.1234" y1="82.7743" x2="50.9434" y2="147.509" gradientUnits="userSpaceOnUse">
<stop stop-color="#F7F7F8"/>
<stop offset="1" stop-color="#D6D8D9"/>
</linearGradient>
<linearGradient id="paint33_linear_514_2" x1="23.9721" y1="85.615" x2="55.8249" y2="150.395" gradientUnits="userSpaceOnUse">
<stop stop-color="#F7F7F8"/>
<stop offset="1" stop-color="#D6D8D9"/>
</linearGradient>
<linearGradient id="paint34_linear_514_2" x1="28.8409" y1="88.4593" x2="60.7151" y2="153.262" gradientUnits="userSpaceOnUse">
<stop stop-color="#F7F7F8"/>
<stop offset="1" stop-color="#D6D8D9"/>
</linearGradient>
<linearGradient id="paint35_linear_514_2" x1="33.7241" y1="91.319" x2="65.6046" y2="156.12" gradientUnits="userSpaceOnUse">
<stop stop-color="#F7F7F8"/>
<stop offset="1" stop-color="#D6D8D9"/>
</linearGradient>
<linearGradient id="paint36_linear_514_2" x1="38.6072" y1="94.1832" x2="70.4875" y2="158.978" gradientUnits="userSpaceOnUse">
<stop stop-color="#F7F7F8"/>
<stop offset="1" stop-color="#D6D8D9"/>
</linearGradient>
<linearGradient id="paint37_linear_514_2" x1="43.477" y1="97.0463" x2="75.3546" y2="161.844" gradientUnits="userSpaceOnUse">
<stop stop-color="#F7F7F8"/>
<stop offset="1" stop-color="#D6D8D9"/>
</linearGradient>
<linearGradient id="paint38_linear_514_2" x1="48.3573" y1="99.9091" x2="80.2358" y2="164.703" gradientUnits="userSpaceOnUse">
<stop stop-color="#F7F7F8"/>
<stop offset="1" stop-color="#D6D8D9"/>
</linearGradient>
<linearGradient id="paint39_linear_514_2" x1="53.2271" y1="102.78" x2="85.0927" y2="167.57" gradientUnits="userSpaceOnUse">
<stop stop-color="#F7F7F8"/>
<stop offset="1" stop-color="#D6D8D9"/>
</linearGradient>
<linearGradient id="paint40_linear_514_2" x1="58.1546" y1="105.677" x2="89.9869" y2="170.403" gradientUnits="userSpaceOnUse">
<stop stop-color="#F7F7F8"/>
<stop offset="1" stop-color="#D6D8D9"/>
</linearGradient>
<linearGradient id="paint41_linear_514_2" x1="63.0054" y1="108.526" x2="94.8461" y2="173.277" gradientUnits="userSpaceOnUse">
<stop stop-color="#F7F7F8"/>
<stop offset="1" stop-color="#D6D8D9"/>
</linearGradient>
<linearGradient id="paint42_linear_514_2" x1="67.9189" y1="111.413" x2="99.7379" y2="176.119" gradientUnits="userSpaceOnUse">
<stop stop-color="#F7F7F8"/>
<stop offset="1" stop-color="#D6D8D9"/>
</linearGradient>
<linearGradient id="paint43_linear_514_2" x1="72.7921" y1="114.264" x2="104.629" y2="178.984" gradientUnits="userSpaceOnUse">
<stop stop-color="#F7F7F8"/>
<stop offset="1" stop-color="#D6D8D9"/>
</linearGradient>
<linearGradient id="paint44_linear_514_2" x1="2.25812" y1="65.3433" x2="40.0302" y2="213.971" gradientUnits="userSpaceOnUse">
<stop stop-color="#F7F7F8"/>
<stop offset="1" stop-color="#D6D8D9"/>
</linearGradient>
<linearGradient id="paint45_linear_514_2" x1="14.928" y1="85.3245" x2="46.7753" y2="150.052" gradientUnits="userSpaceOnUse">
<stop stop-color="#F7F7F8"/>
<stop offset="1" stop-color="#D6D8D9"/>
</linearGradient>
<linearGradient id="paint46_linear_514_2" x1="19.7319" y1="88.168" x2="51.5848" y2="152.954" gradientUnits="userSpaceOnUse">
<stop stop-color="#F7F7F8"/>
<stop offset="1" stop-color="#D6D8D9"/>
</linearGradient>
<linearGradient id="paint47_linear_514_2" x1="24.6535" y1="91.0504" x2="56.4901" y2="155.788" gradientUnits="userSpaceOnUse">
<stop stop-color="#F7F7F8"/>
<stop offset="1" stop-color="#D6D8D9"/>
</linearGradient>
<linearGradient id="paint48_linear_514_2" x1="29.5174" y1="93.9232" x2="61.3358" y2="158.657" gradientUnits="userSpaceOnUse">
<stop stop-color="#F7F7F8"/>
<stop offset="1" stop-color="#D6D8D9"/>
</linearGradient>
<linearGradient id="paint49_linear_514_2" x1="34.3934" y1="96.7767" x2="66.2234" y2="161.52" gradientUnits="userSpaceOnUse">
<stop stop-color="#F7F7F8"/>
<stop offset="1" stop-color="#D6D8D9"/>
</linearGradient>
<linearGradient id="paint50_linear_514_2" x1="39.3059" y1="99.6485" x2="71.1366" y2="164.363" gradientUnits="userSpaceOnUse">
<stop stop-color="#F7F7F8"/>
<stop offset="1" stop-color="#D6D8D9"/>
</linearGradient>
<linearGradient id="paint51_linear_514_2" x1="44.1454" y1="102.508" x2="75.9671" y2="167.245" gradientUnits="userSpaceOnUse">
<stop stop-color="#F7F7F8"/>
<stop offset="1" stop-color="#D6D8D9"/>
</linearGradient>
<linearGradient id="paint52_linear_514_2" x1="49.0266" y1="105.382" x2="80.8359" y2="170.103" gradientUnits="userSpaceOnUse">
<stop stop-color="#F7F7F8"/>
<stop offset="1" stop-color="#D6D8D9"/>
</linearGradient>
<linearGradient id="paint53_linear_514_2" x1="53.8954" y1="108.242" x2="85.7087" y2="172.972" gradientUnits="userSpaceOnUse">
<stop stop-color="#F7F7F8"/>
<stop offset="1" stop-color="#D6D8D9"/>
</linearGradient>
<linearGradient id="paint54_linear_514_2" x1="58.7796" y1="111.106" x2="90.5906" y2="175.828" gradientUnits="userSpaceOnUse">
<stop stop-color="#F7F7F8"/>
<stop offset="1" stop-color="#D6D8D9"/>
</linearGradient>
<linearGradient id="paint55_linear_514_2" x1="63.6066" y1="113.918" x2="95.4794" y2="178.726" gradientUnits="userSpaceOnUse">
<stop stop-color="#F7F7F8"/>
<stop offset="1" stop-color="#D6D8D9"/>
</linearGradient>
<linearGradient id="paint56_linear_514_2" x1="10.6564" y1="87.8893" x2="42.4764" y2="152.624" gradientUnits="userSpaceOnUse">
<stop stop-color="#F7F7F8"/>
<stop offset="1" stop-color="#D6D8D9"/>
</linearGradient>
<linearGradient id="paint57_linear_514_2" x1="15.5029" y1="90.7193" x2="47.3613" y2="155.509" gradientUnits="userSpaceOnUse">
<stop stop-color="#F7F7F8"/>
<stop offset="1" stop-color="#D6D8D9"/>
</linearGradient>
<linearGradient id="paint58_linear_514_2" x1="20.4449" y1="93.6175" x2="52.2756" y2="158.332" gradientUnits="userSpaceOnUse">
<stop stop-color="#F7F7F8"/>
<stop offset="1" stop-color="#D6D8D9"/>
</linearGradient>
<linearGradient id="paint59_linear_514_2" x1="25.325" y1="96.4783" x2="57.1573" y2="161.194" gradientUnits="userSpaceOnUse">
<stop stop-color="#F7F7F8"/>
<stop offset="1" stop-color="#D6D8D9"/>
</linearGradient>
<linearGradient id="paint60_linear_514_2" x1="30.1685" y1="99.3415" x2="61.9886" y2="164.07" gradientUnits="userSpaceOnUse">
<stop stop-color="#F7F7F8"/>
<stop offset="1" stop-color="#D6D8D9"/>
</linearGradient>
<linearGradient id="paint61_linear_514_2" x1="35.0406" y1="102.205" x2="66.8599" y2="166.934" gradientUnits="userSpaceOnUse">
<stop stop-color="#F7F7F8"/>
<stop offset="1" stop-color="#D6D8D9"/>
</linearGradient>
<linearGradient id="paint62_linear_514_2" x1="39.9104" y1="105.064" x2="71.7304" y2="169.799" gradientUnits="userSpaceOnUse">
<stop stop-color="#F7F7F8"/>
<stop offset="1" stop-color="#D6D8D9"/>
</linearGradient>
<linearGradient id="paint63_linear_514_2" x1="44.7793" y1="107.926" x2="76.6009" y2="172.669" gradientUnits="userSpaceOnUse">
<stop stop-color="#F7F7F8"/>
<stop offset="1" stop-color="#D6D8D9"/>
</linearGradient>
<linearGradient id="paint64_linear_514_2" x1="49.6634" y1="110.787" x2="81.4867" y2="175.525" gradientUnits="userSpaceOnUse">
<stop stop-color="#F7F7F8"/>
<stop offset="1" stop-color="#D6D8D9"/>
</linearGradient>
<linearGradient id="paint65_linear_514_2" x1="54.5384" y1="113.652" x2="86.3584" y2="178.387" gradientUnits="userSpaceOnUse">
<stop stop-color="#F7F7F8"/>
<stop offset="1" stop-color="#D6D8D9"/>
</linearGradient>
<linearGradient id="paint66_linear_514_2" x1="59.4215" y1="116.518" x2="91.2412" y2="181.246" gradientUnits="userSpaceOnUse">
<stop stop-color="#F7F7F8"/>
<stop offset="1" stop-color="#D6D8D9"/>
</linearGradient>
<linearGradient id="paint67_linear_514_2" x1="64.324" y1="119.368" x2="96.171" y2="184.096" gradientUnits="userSpaceOnUse">
<stop stop-color="#F7F7F8"/>
<stop offset="1" stop-color="#D6D8D9"/>
</linearGradient>
<linearGradient id="paint68_linear_514_2" x1="69.1704" y1="122.239" x2="100.992" y2="186.972" gradientUnits="userSpaceOnUse">
<stop stop-color="#F7F7F8"/>
<stop offset="1" stop-color="#D6D8D9"/>
</linearGradient>
<linearGradient id="paint69_linear_514_2" x1="6.38078" y1="90.4101" x2="38.2365" y2="155.206" gradientUnits="userSpaceOnUse">
<stop stop-color="#F7F7F8"/>
<stop offset="1" stop-color="#D6D8D9"/>
</linearGradient>
<linearGradient id="paint70_linear_514_2" x1="11.245" y1="93.262" x2="43.1129" y2="158.076" gradientUnits="userSpaceOnUse">
<stop stop-color="#F7F7F8"/>
<stop offset="1" stop-color="#D6D8D9"/>
</linearGradient>
<linearGradient id="paint71_linear_514_2" x1="-185.4" y1="-52.0214" x2="-21.3498" y2="291.328" gradientUnits="userSpaceOnUse">
<stop stop-color="#F7F7F8"/>
<stop offset="1" stop-color="#D6D8D9"/>
</linearGradient>
<linearGradient id="paint72_linear_514_2" x1="40.4999" y1="110.436" x2="72.3695" y2="175.252" gradientUnits="userSpaceOnUse">
<stop stop-color="#F7F7F8"/>
<stop offset="1" stop-color="#D6D8D9"/>
</linearGradient>
<linearGradient id="paint73_linear_514_2" x1="45.4416" y1="113.348" x2="77.2674" y2="178.072" gradientUnits="userSpaceOnUse">
<stop stop-color="#F7F7F8"/>
<stop offset="1" stop-color="#D6D8D9"/>
</linearGradient>
<linearGradient id="paint74_linear_514_2" x1="50.252" y1="116.16" x2="82.1231" y2="180.976" gradientUnits="userSpaceOnUse">
<stop stop-color="#F7F7F8"/>
<stop offset="1" stop-color="#D6D8D9"/>
</linearGradient>
<linearGradient id="paint75_linear_514_2" x1="55.2067" y1="119.073" x2="87.0322" y2="183.79" gradientUnits="userSpaceOnUse">
<stop stop-color="#F7F7F8"/>
<stop offset="1" stop-color="#D6D8D9"/>
</linearGradient>
<linearGradient id="paint76_linear_514_2" x1="60.0084" y1="121.886" x2="91.8794" y2="186.7" gradientUnits="userSpaceOnUse">
<stop stop-color="#F7F7F8"/>
<stop offset="1" stop-color="#D6D8D9"/>
</linearGradient>
<linearGradient id="paint77_linear_514_2" x1="64.906" y1="124.749" x2="96.7866" y2="189.55" gradientUnits="userSpaceOnUse">
<stop stop-color="#F7F7F8"/>
<stop offset="1" stop-color="#D6D8D9"/>
</linearGradient>
<linearGradient id="paint78_linear_514_2" x1="59.342" y1="-24.0679" x2="118.856" y2="100.87" gradientUnits="userSpaceOnUse">
<stop stop-color="#09C957"/>
<stop offset="1" stop-color="#045224"/>
</linearGradient>
<linearGradient id="paint79_linear_514_2" x1="150.992" y1="36.0586" x2="41.4998" y2="69.737" gradientUnits="userSpaceOnUse">
<stop stop-color="#09C957"/>
<stop offset="1" stop-color="#045224"/>
</linearGradient>
<linearGradient id="paint80_linear_514_2" x1="49.5722" y1="48.6593" x2="61.8232" y2="57.8564" gradientUnits="userSpaceOnUse">
<stop stop-color="#09C957"/>
<stop offset="1" stop-color="#42D17C"/>
</linearGradient>
<linearGradient id="paint81_linear_514_2" x1="61.7551" y1="42.2922" x2="79.7072" y2="51.9169" gradientUnits="userSpaceOnUse">
<stop stop-color="#09C957"/>
<stop offset="1" stop-color="#42D17C"/>
</linearGradient>
<linearGradient id="paint82_linear_514_2" x1="75.2331" y1="40.0507" x2="95.0437" y2="49.8177" gradientUnits="userSpaceOnUse">
<stop stop-color="#09C957"/>
<stop offset="1" stop-color="#42D17C"/>
</linearGradient>
<linearGradient id="paint83_linear_514_2" x1="86.8358" y1="31.8313" x2="113.141" y2="42.2781" gradientUnits="userSpaceOnUse">
<stop stop-color="#09C957"/>
<stop offset="1" stop-color="#42D17C"/>
</linearGradient>
<linearGradient id="paint84_linear_514_2" x1="39.2629" y1="53.2393" x2="119.123" y2="53.2393" gradientUnits="userSpaceOnUse">
<stop stop-color="#09C957"/>
<stop offset="1" stop-color="#045224"/>
</linearGradient>
<linearGradient id="paint85_linear_514_2" x1="876.673" y1="96.0017" x2="867.077" y2="96.2972" gradientUnits="userSpaceOnUse">
<stop stop-color="#BCC5D3"/>
<stop offset="1" stop-color="#EBEDF0"/>
</linearGradient>
<linearGradient id="paint86_linear_514_2" x1="140.46" y1="160.374" x2="159.184" y2="158.014" gradientUnits="userSpaceOnUse">
<stop stop-color="#09C957"/>
<stop offset="1" stop-color="#045224"/>
</linearGradient>
<linearGradient id="paint87_linear_514_2" x1="146.741" y1="165.028" x2="173.163" y2="161.033" gradientUnits="userSpaceOnUse">
<stop stop-color="#09C957"/>
<stop offset="1" stop-color="#045224"/>
</linearGradient>
<linearGradient id="paint88_linear_514_2" x1="174.185" y1="106.968" x2="151.294" y2="105.253" gradientUnits="userSpaceOnUse">
<stop stop-color="white"/>
<stop offset="1" stop-color="#D1D0CF"/>
</linearGradient>
<linearGradient id="paint89_linear_514_2" x1="857.943" y1="77.704" x2="847.702" y2="78.6967" gradientUnits="userSpaceOnUse">
<stop stop-color="#FFC5C5"/>
<stop offset="1" stop-color="#DE8B8B"/>
</linearGradient>
<linearGradient id="paint90_linear_514_2" x1="847.779" y1="85.0709" x2="855.333" y2="83.6158" gradientUnits="userSpaceOnUse">
<stop stop-color="#09C957"/>
<stop offset="1" stop-color="#045224"/>
</linearGradient>
<linearGradient id="paint91_linear_514_2" x1="858.248" y1="83.2918" x2="860.913" y2="83.1881" gradientUnits="userSpaceOnUse">
<stop stop-color="#09C957"/>
<stop offset="1" stop-color="#045224"/>
</linearGradient>
<linearGradient id="paint92_linear_514_2" x1="861.124" y1="74.7214" x2="848.534" y2="76.6244" gradientUnits="userSpaceOnUse">
<stop stop-color="#FFC5C5"/>
<stop offset="1" stop-color="#DE8B8B"/>
</linearGradient>
<linearGradient id="paint93_linear_514_2" x1="893.707" y1="101.265" x2="872.936" y2="103.584" gradientUnits="userSpaceOnUse">
<stop stop-color="#BCC5D3"/>
<stop offset="1" stop-color="#EBEDF0"/>
</linearGradient>
<linearGradient id="paint94_linear_514_2" x1="901.566" y1="87.8843" x2="888.298" y2="90.6383" gradientUnits="userSpaceOnUse">
<stop stop-color="#FFC5C5"/>
<stop offset="1" stop-color="#DE8B8B"/>
</linearGradient>
<linearGradient id="paint95_linear_514_2" x1="847.808" y1="112.211" x2="836.591" y2="112.322" gradientUnits="userSpaceOnUse">
<stop stop-color="#BCC5D3"/>
<stop offset="1" stop-color="#EBEDF0"/>
</linearGradient>
<linearGradient id="paint96_linear_514_2" x1="848.449" y1="138.349" x2="843.629" y2="139.137" gradientUnits="userSpaceOnUse">
<stop stop-color="#FFC5C5"/>
<stop offset="1" stop-color="#DE8B8B"/>
</linearGradient>
<linearGradient id="paint97_linear_514_2" x1="4.94403" y1="157.854" x2="-31.2582" y2="131.889" gradientUnits="userSpaceOnUse">
<stop stop-color="white"/>
<stop offset="1" stop-color="#D1D0CF"/>
</linearGradient>
<linearGradient id="paint98_linear_514_2" x1="14.5382" y1="179.036" x2="-4.69533" y2="146.601" gradientUnits="userSpaceOnUse">
<stop stop-color="#09C957"/>
<stop offset="1" stop-color="#045224"/>
</linearGradient>
<linearGradient id="paint99_linear_514_2" x1="18.379" y1="135.137" x2="18.379" y2="86.5704" gradientUnits="userSpaceOnUse">
<stop stop-color="white"/>
<stop offset="1" stop-color="#D1D0CF"/>
</linearGradient>
<linearGradient id="paint100_linear_514_2" x1="155.805" y1="81.0392" x2="146.618" y2="81.7586" gradientUnits="userSpaceOnUse">
<stop stop-color="#FFC5C5"/>
<stop offset="1" stop-color="#DE8B8B"/>
</linearGradient>
<linearGradient id="paint101_linear_514_2" x1="156.268" y1="88.7442" x2="134.787" y2="90.871" gradientUnits="userSpaceOnUse">
<stop stop-color="#FFAC06"/>
<stop offset="1" stop-color="#F66D1D"/>
</linearGradient>
<linearGradient id="paint102_linear_514_2" x1="24.8791" y1="185.372" x2="5.6677" y2="146.914" gradientUnits="userSpaceOnUse">
<stop stop-color="#09C957"/>
<stop offset="1" stop-color="#045224"/>
</linearGradient>
<linearGradient id="paint103_linear_514_2" x1="41.4206" y1="112.945" x2="27.9309" y2="107.831" gradientUnits="userSpaceOnUse">
<stop stop-color="white"/>
<stop offset="1" stop-color="#D1D0CF"/>
</linearGradient>
<linearGradient id="paint104_linear_514_2" x1="39.0306" y1="144.884" x2="30.5135" y2="142.98" gradientUnits="userSpaceOnUse">
<stop stop-color="#FFC5C5"/>
<stop offset="1" stop-color="#DE8B8B"/>
</linearGradient>
<clipPath id="clip0_514_2">
<rect width="195.517" height="200" fill="white"/>
</clipPath>
</defs>
</svg>
