<svg width="213" height="200" viewBox="0 0 213 200" fill="none" xmlns="http://www.w3.org/2000/svg">
<style>
#translate_1,#translate_2,#translate_3,#scale,#rotate{transform-origin:center;transform-box:fill-box}#translate_2{animation:translateY 2s linear infinite alternate}#translate_1{animation:translateXTwo 2s linear infinite alternate}#translate_3{animation:translateX 2s linear infinite alternate}#scale{animation:bounce-in-fwd 2s linear infinite alternate}#rotate{animation:spinner 2s linear infinite alternate}@keyframes translateY{0%,100%{transform:translateY(0px)}50%{transform:translateY(-5px)}}@keyframes translateX{0%,100%{transform:translateX(2px)}50%{transform:translateX(-2px)}}@keyframes translateXTwo{0%,100%{transform:translateX(0px)}50%{transform:translateX(2px)}}@keyframes bounce-in-fwd{0%{transform:scale(1);animation-timing-function:ease-in}38%{transform:scale(1);animation-timing-function:ease-out}55%{transform:scale(0.7);animation-timing-function:ease-in}72%{transform:scale(1);animation-timing-function:ease-out}81%{transform:scale(0.84);animation-timing-function:ease-in}89%{transform:scale(1);animation-timing-function:ease-out}95%{transform:scale(0.95);animation-timing-function:ease-in}100%{transform:scale(1);animation-timing-function:ease-out}}@keyframes spinner{0%{transform:rotate(0deg)}100%{transform:rotate(10deg)}}
</style>
<g id="tax 1" clip-path="url(#clip0_508_319)">
<g id="Group 532">
<g id="translat_3">
<g id="Group 476">
<path id="Path 787" d="M151.052 193.865L128.265 180.917L155.154 165.559L177.941 178.507L151.052 193.865Z" fill="url(#paint0_linear_508_319)"/>
<path id="Path 788" d="M177.936 184.643V178.508L151.047 193.866V200.001L177.936 184.643Z" fill="url(#paint1_linear_508_319)"/>
<path id="Path 789" d="M128.26 180.917L151.052 193.865V200L128.265 187.052L128.26 180.917Z" fill="url(#paint2_linear_508_319)"/>
</g>
<g id="Group 482">
<g id="Group 477">
<path id="Path 790" d="M154.858 173.157L152.166 171.642C151.807 171.442 151.793 171.112 152.135 170.914C152.334 170.816 152.552 170.766 152.774 170.767C152.995 170.769 153.213 170.821 153.411 170.921L156.103 172.435C156.462 172.635 156.476 172.965 156.134 173.163C155.935 173.261 155.717 173.312 155.495 173.31C155.274 173.309 155.056 173.257 154.858 173.157V173.157Z" fill="#FFFEFF"/>
<path id="Path 791" d="M166.54 179.729L157.481 174.629C157.122 174.429 157.107 174.099 157.45 173.901C157.649 173.803 157.867 173.753 158.089 173.754C158.31 173.755 158.528 173.808 158.726 173.908L167.785 179.008C168.144 179.208 168.158 179.538 167.816 179.736C167.617 179.834 167.399 179.884 167.177 179.883C166.956 179.882 166.738 179.829 166.54 179.729V179.729Z" fill="#FFFEFF"/>
</g>
<g id="Group 478">
<path id="Path 792" d="M151.684 174.996L148.992 173.481C148.633 173.281 148.619 172.951 148.961 172.753C149.16 172.655 149.378 172.605 149.6 172.606C149.821 172.607 150.039 172.66 150.237 172.76L152.929 174.275C153.288 174.475 153.303 174.805 152.96 175.003C152.761 175.101 152.543 175.151 152.321 175.15C152.1 175.149 151.882 175.096 151.684 174.996V174.996Z" fill="#FFFEFF"/>
<path id="Path 793" d="M163.365 181.568L154.306 176.468C153.946 176.268 153.932 175.938 154.275 175.74C154.474 175.642 154.692 175.592 154.914 175.593C155.135 175.594 155.353 175.647 155.551 175.747L164.61 180.847C164.969 181.047 164.983 181.377 164.641 181.575C164.442 181.673 164.224 181.723 164.002 181.722C163.781 181.721 163.563 181.668 163.365 181.568V181.568Z" fill="#FFFEFF"/>
</g>
<g id="Group 479">
<path id="Path 794" d="M148.512 176.835L145.819 175.32C145.46 175.12 145.446 174.79 145.788 174.592C145.987 174.494 146.205 174.444 146.427 174.445C146.648 174.447 146.866 174.499 147.064 174.599L149.756 176.114C150.115 176.314 150.129 176.644 149.787 176.843C149.588 176.94 149.37 176.99 149.149 176.989C148.927 176.988 148.709 176.935 148.512 176.835V176.835Z" fill="#FFFEFF"/>
<path id="Path 795" d="M160.192 183.408L151.133 178.308C150.774 178.108 150.76 177.778 151.102 177.579C151.301 177.481 151.519 177.431 151.741 177.432C151.962 177.434 152.18 177.486 152.378 177.586L161.437 182.686C161.796 182.886 161.81 183.216 161.468 183.414C161.269 183.512 161.051 183.562 160.829 183.561C160.608 183.56 160.39 183.508 160.192 183.408V183.408Z" fill="#FFFEFF"/>
</g>
<g id="Group 480">
<path id="Path 796" d="M145.337 178.675L142.645 177.16C142.286 176.96 142.272 176.63 142.614 176.432C142.813 176.334 143.031 176.284 143.253 176.285C143.474 176.286 143.692 176.339 143.89 176.439L146.582 177.953C146.941 178.153 146.955 178.483 146.613 178.681C146.414 178.779 146.196 178.829 145.974 178.828C145.753 178.827 145.535 178.775 145.337 178.675V178.675Z" fill="#FFFEFF"/>
<path id="Path 797" d="M157.019 185.247L147.96 180.147C147.601 179.947 147.587 179.617 147.929 179.419C148.128 179.321 148.346 179.271 148.568 179.272C148.789 179.273 149.007 179.326 149.205 179.426L158.264 184.526C158.623 184.726 158.637 185.056 158.295 185.254C158.096 185.352 157.878 185.402 157.656 185.401C157.435 185.4 157.217 185.347 157.019 185.247V185.247Z" fill="#FFFEFF"/>
</g>
<g id="Group 481">
<path id="Path 798" d="M142.164 180.514L139.472 178.999C139.113 178.799 139.099 178.469 139.441 178.271C139.64 178.173 139.858 178.123 140.08 178.124C140.301 178.125 140.519 178.178 140.717 178.278L143.409 179.793C143.768 179.993 143.782 180.323 143.44 180.521C143.241 180.619 143.023 180.669 142.801 180.668C142.58 180.667 142.362 180.614 142.164 180.514Z" fill="#FFFEFF"/>
<path id="Path 799" d="M153.844 187.085L144.785 181.985C144.426 181.785 144.412 181.455 144.754 181.257C144.953 181.159 145.171 181.109 145.393 181.11C145.614 181.112 145.832 181.164 146.03 181.264L155.089 186.364C155.448 186.564 155.462 186.894 155.12 187.092C154.921 187.19 154.703 187.24 154.481 187.239C154.26 187.238 154.042 187.185 153.844 187.085V187.085Z" fill="#FFFEFF"/>
</g>
</g>
</g>
<g id="scale">
<g id="Group 484">
<path id="Path 800" d="M124.17 152.338L124.152 158.846L121.62 161.432L121.639 154.924L124.17 152.338Z" fill="#BCBCBC"/>
</g>
<g id="Group 485">
<path id="Path 801" d="M91.446 154.924L91.4281 161.432L88.873 158.847L88.892 152.339L91.446 154.924Z" fill="#808080"/>
</g>
<path id="Path 802" d="M113.45 155.862C113.22 155.729 112.98 155.605 112.734 155.488C112.652 155.449 112.565 155.415 112.481 155.378C112.335 155.313 112.192 155.246 112.042 155.187L111.963 155.158C111.907 155.136 111.85 155.117 111.793 155.096C111.598 155.024 111.4 154.957 111.199 154.896L110.994 154.832C110.948 154.818 110.902 154.802 110.856 154.789C110.774 154.766 110.689 154.75 110.606 154.728C110.406 154.675 110.206 154.628 109.999 154.579C109.945 154.567 109.893 154.551 109.838 154.539C109.758 154.522 109.676 154.512 109.595 154.497C109.423 154.464 109.251 154.434 109.077 154.407C109.008 154.396 108.94 154.381 108.87 154.371C108.8 154.361 108.717 154.355 108.641 154.345C108.479 154.324 108.316 154.306 108.153 154.29C108.075 154.283 107.998 154.27 107.921 154.264C107.844 154.258 107.775 154.257 107.703 154.252C107.538 154.241 107.371 154.232 107.203 154.226C107.12 154.226 107.038 154.215 106.955 154.213C106.889 154.213 106.822 154.213 106.755 154.213C106.576 154.213 106.398 154.213 106.22 154.213C106.131 154.213 106.043 154.213 105.954 154.213C105.901 154.213 105.854 154.221 105.797 154.223C105.576 154.233 105.357 154.249 105.137 154.267C105.049 154.274 104.959 154.276 104.871 154.285L104.744 154.3L104.544 154.323C104.317 154.35 104.091 154.384 103.868 154.423L103.702 154.45L103.623 154.463C103.517 154.482 103.414 154.509 103.309 154.53C103.128 154.567 102.947 154.602 102.769 154.645C102.639 154.676 102.513 154.714 102.384 154.745C102.215 154.791 102.047 154.836 101.884 154.888C101.849 154.899 101.811 154.908 101.776 154.919C101.576 154.984 101.376 155.054 101.183 155.129L101.1 155.163C100.887 155.246 100.678 155.335 100.475 155.43L100.296 155.514C100.071 155.623 99.8489 155.737 99.6369 155.86L99.518 155.93L99.411 155.998C99.351 156.035 99.292 156.073 99.234 156.11C99.176 156.147 99.134 156.18 99.078 156.215C99.022 156.25 98.9669 156.292 98.9129 156.331C98.8589 156.37 98.8129 156.404 98.7669 156.44C98.7209 156.476 98.667 156.519 98.615 156.559C98.563 156.599 98.524 156.634 98.48 156.672C98.436 156.71 98.3849 156.753 98.3399 156.794L98.282 156.845C98.265 156.861 98.25 156.878 98.233 156.894C98.1563 156.967 98.0826 157.04 98.0119 157.114C97.9879 157.139 97.963 157.164 97.94 157.189C97.85 157.289 97.766 157.389 97.687 157.489L97.676 157.502C97.658 157.525 97.643 157.548 97.625 157.571C97.577 157.634 97.531 157.697 97.487 157.761C97.463 157.796 97.442 157.83 97.419 157.861C97.382 157.918 97.346 157.976 97.312 158.034C97.303 158.05 97.2911 158.065 97.2831 158.081C97.2751 158.097 97.2589 158.129 97.2459 158.153C97.2193 158.202 97.1943 158.25 97.171 158.299C97.15 158.34 97.131 158.382 97.113 158.423C97.095 158.464 97.07 158.523 97.051 158.571C97.042 158.593 97.031 158.615 97.023 158.637C97.015 158.659 97.01 158.677 97.003 158.697C96.986 158.744 96.971 158.791 96.956 158.839C96.941 158.887 96.9299 158.925 96.9179 158.968C96.9059 159.011 96.894 159.063 96.883 159.11C96.877 159.136 96.869 159.161 96.864 159.187C96.859 159.213 96.8641 159.222 96.8561 159.239C96.8471 159.288 96.84 159.339 96.833 159.385C96.826 159.431 96.821 159.471 96.817 159.513C96.813 159.555 96.809 159.613 96.806 159.661C96.806 159.69 96.801 159.718 96.8 159.747C96.799 159.776 96.8 159.804 96.8 159.833L96.781 166.341C96.781 166.284 96.781 166.226 96.789 166.169C96.797 166.112 96.795 166.069 96.799 166.021C96.803 165.973 96.809 165.936 96.815 165.893C96.821 165.85 96.829 165.793 96.838 165.746C96.847 165.699 96.855 165.66 96.865 165.617C96.875 165.574 96.887 165.517 96.899 165.474C96.911 165.431 96.924 165.388 96.937 165.345C96.95 165.302 96.967 165.251 96.983 165.204C96.999 165.157 97.014 165.12 97.031 165.078C97.048 165.036 97.071 164.978 97.093 164.93C97.115 164.882 97.131 164.848 97.151 164.807C97.171 164.766 97.2 164.707 97.227 164.661C97.254 164.615 97.2699 164.582 97.2929 164.543C97.3269 164.485 97.363 164.427 97.4 164.37C97.423 164.335 97.444 164.3 97.468 164.27C97.512 164.207 97.5581 164.144 97.6061 164.082C97.6271 164.054 97.6459 164.027 97.6679 163.999C97.7469 163.899 97.832 163.799 97.921 163.699C97.944 163.674 97.969 163.649 97.993 163.624C98.0637 163.55 98.137 163.477 98.213 163.405L98.32 163.305C98.366 163.264 98.413 163.223 98.461 163.182C98.509 163.141 98.55 163.107 98.596 163.07C98.642 163.033 98.696 162.99 98.749 162.95C98.802 162.91 98.849 162.877 98.894 162.841C98.939 162.805 99.0029 162.763 99.0589 162.725C99.1149 162.687 99.1589 162.654 99.2149 162.62C99.2709 162.586 99.3319 162.545 99.3919 162.508C99.4669 162.462 99.54 162.415 99.619 162.37C99.831 162.247 100.052 162.134 100.277 162.024L100.456 161.939C100.656 161.845 100.869 161.755 101.082 161.672L101.164 161.639C101.392 161.552 101.628 161.473 101.864 161.398C102.029 161.346 102.198 161.298 102.364 161.255C102.492 161.22 102.618 161.183 102.747 161.155C102.925 161.112 103.106 161.076 103.287 161.04C103.418 161.013 103.548 160.983 103.681 160.96L103.846 160.934C104.069 160.897 104.295 160.864 104.522 160.834L104.722 160.81C104.852 160.796 104.983 160.788 105.114 160.777C105.333 160.759 105.554 160.743 105.774 160.733C105.915 160.727 106.056 160.724 106.197 160.721C106.376 160.721 106.554 160.721 106.733 160.721C106.882 160.721 107.033 160.727 107.18 160.733C107.345 160.74 107.51 160.748 107.68 160.76C107.85 160.772 107.98 160.783 108.131 160.798C108.282 160.813 108.457 160.832 108.619 160.852C108.765 160.871 108.911 160.891 109.056 160.914C109.229 160.941 109.401 160.971 109.573 161.004C109.709 161.03 109.844 161.057 109.978 161.086C110.178 161.131 110.384 161.186 110.584 161.235C110.714 161.269 110.845 161.301 110.972 161.335L111.178 161.399C111.378 161.462 111.576 161.529 111.772 161.599C111.828 161.62 111.886 161.639 111.942 161.661C112.119 161.729 112.29 161.805 112.461 161.881C112.544 161.918 112.631 161.952 112.712 161.99C112.958 162.107 113.198 162.231 113.428 162.364C115.354 163.476 116.315 164.934 116.311 166.391L116.33 159.883C116.336 158.432 115.375 156.974 113.45 155.862Z" fill="#949494"/>
<g id="Group 488">
<g id="Group 487">
<g id="Group 486">
<path id="Path 803" d="M128.83 159.86L128.811 166.368C128.811 166.397 128.811 166.426 128.811 166.455L128.829 159.947C128.829 159.918 128.829 159.889 128.829 159.86" fill="#949494"/>
<path id="Path 804" d="M128.83 159.946L128.811 166.454C128.806 166.61 128.787 166.765 128.756 166.918L128.774 160.41C128.805 160.257 128.824 160.102 128.829 159.946" fill="#999999"/>
<path id="Path 805" d="M128.774 160.41L128.755 166.918C128.713 167.124 128.654 167.327 128.579 167.524L128.597 161.016C128.672 160.819 128.731 160.616 128.773 160.41" fill="#9E9E9E"/>
<path id="Path 806" d="M128.598 161.016L128.58 167.524C128.493 167.755 128.389 167.979 128.269 168.194L128.287 161.686C128.407 161.471 128.511 161.247 128.598 161.016" fill="#A3A3A3"/>
<path id="Path 807" d="M128.287 161.686L128.269 168.194C128.243 168.239 128.226 168.267 128.222 168.275L128.24 161.767C128.24 161.76 128.261 161.731 128.287 161.686Z" fill="#A8A8A8"/>
</g>
</g>
</g>
<g id="Group 491">
<g id="Group 490">
<g id="Group 489">
<path id="Path 809" d="M84.924 161.768L84.9059 168.276C84.5497 167.699 84.3384 167.045 84.29 166.369L84.308 159.861C84.3567 160.537 84.568 161.191 84.924 161.768" fill="#858585"/>
</g>
</g>
</g>
<g id="Group 492">
<path id="Path 811" d="M128.239 161.768L128.221 168.276L123.269 169.061L123.287 162.553L128.239 161.768Z" fill="#BDBDBD"/>
</g>
<g id="Group 493">
<path id="Path 812" d="M89.882 162.556L89.863 169.064L84.904 168.278L84.923 161.77L89.882 162.556Z" fill="#A4A4A4"/>
</g>
<path id="Path 813" d="M123.01 163.075C122.967 163.149 122.92 163.222 122.874 163.295C122.806 163.404 122.738 163.513 122.663 163.621C122.61 163.697 122.554 163.772 122.498 163.848C122.415 163.961 122.33 164.073 122.239 164.185L122.131 164.315C121.992 164.478 121.849 164.64 121.694 164.799L121.676 171.307C121.831 171.148 121.976 170.986 122.113 170.823L122.221 170.693C122.259 170.646 122.3 170.6 122.336 170.554C122.387 170.489 122.436 170.422 122.48 170.354C122.524 170.286 122.592 170.204 122.645 170.128C122.72 170.02 122.788 169.911 122.856 169.801C122.901 169.728 122.949 169.655 122.991 169.582C123.003 169.562 123.017 169.541 123.029 169.521C123.116 169.368 123.195 169.215 123.268 169.06L123.287 162.552C123.204 162.727 123.11 162.902 123.01 163.075Z" fill="#ADADAD"/>
<g id="Group 496">
<g id="Group 495">
<g id="Group 494">
<path id="Path 814" d="M91.5 164.798L91.482 171.306C90.8243 170.651 90.2778 169.893 89.864 169.062L89.8819 162.554C90.2957 163.385 90.8423 164.143 91.5 164.798" fill="#858585"/>
</g>
</g>
</g>
<path id="Path 816" d="M114.209 168.891L114.184 168.898C113.899 168.978 113.612 169.053 113.321 169.123C113.221 169.146 113.127 169.167 113.03 169.189C112.825 169.236 112.619 169.282 112.412 169.325L112.074 169.391C111.808 169.441 111.542 169.491 111.274 169.535L111.256 176.043C111.429 176.015 111.601 175.986 111.772 175.955C111.872 175.938 111.962 175.917 112.057 175.899C112.17 175.878 112.282 175.856 112.394 175.833C112.601 175.791 112.807 175.745 113.013 175.698C113.113 175.676 113.207 175.655 113.304 175.631C113.595 175.56 113.885 175.486 114.17 175.405L114.191 175.399C114.458 175.325 114.718 175.247 114.973 175.164L115.127 175.114L115.145 168.606C114.836 168.707 114.524 168.802 114.209 168.891Z" fill="#ADADAD"/>
<path id="Path 817" d="M101.975 169.537C101.605 169.477 101.238 169.409 100.875 169.337C100.688 169.299 100.503 169.257 100.318 169.215C100.191 169.186 100.064 169.16 99.938 169.129C99.733 169.079 99.53 169.029 99.327 168.97C99.22 168.941 99.111 168.915 99.005 168.885C98.699 168.798 98.3964 168.706 98.097 168.609L98.079 175.117C98.367 175.211 98.6583 175.3 98.953 175.384L98.987 175.393C99.093 175.423 99.2021 175.449 99.3091 175.478C99.5091 175.532 99.714 175.587 99.919 175.637C100.045 175.668 100.174 175.694 100.301 175.723C100.458 175.759 100.613 175.797 100.771 175.829C100.799 175.835 100.828 175.839 100.856 175.844C101.22 175.918 101.587 175.987 101.956 176.044L101.975 169.537Z" fill="#8A8A8A"/>
<g id="Group 497">
<path id="Path 818" d="M119.615 170.08L119.597 176.588L115.126 175.114L115.144 168.606L119.615 170.08Z" fill="#979797"/>
</g>
<path id="Path 819" d="M123.991 174.168L124.038 174.117L124.072 174.08L124.111 174.038L124.138 174.008L124.169 173.972L124.187 173.951L124.218 173.915L124.235 173.894L124.253 167.386L124.237 167.406L124.231 167.414L124.205 167.445L124.189 167.463L124.155 167.502L124.13 167.53L124.09 167.574L124.056 167.611L124.009 167.662L123.969 167.704L123.913 167.762L123.865 167.81L123.802 167.872L123.747 167.925L123.677 167.991L123.625 168.039C123.558 168.1 123.488 168.163 123.413 168.227L123.372 168.261C123.292 168.329 123.208 168.397 123.12 168.466L123.105 168.478C123.018 168.545 122.926 168.613 122.83 168.678L122.791 168.706C122.691 168.772 122.591 168.837 122.491 168.901C122.449 168.927 122.407 168.953 122.363 168.979C122.278 169.028 122.19 169.079 122.102 169.123L122.021 169.165C121.954 169.199 121.888 169.232 121.821 169.265L121.741 169.303C121.651 169.345 121.56 169.387 121.469 169.426H121.461C121.372 169.465 121.283 169.502 121.195 169.538L121.113 169.57L120.92 169.646L120.842 169.675L120.595 169.765H120.585L120.362 169.842L120.295 169.864L120.143 169.914L120.088 169.932L119.919 169.985H119.904L119.778 170.023L119.744 170.033L119.675 170.053L119.653 170.059L119.613 170.07L119.594 176.578L119.637 176.566H119.651L119.726 176.544L119.757 176.535L119.895 176.493L120.065 176.44L120.087 176.433L120.123 176.421L120.27 176.373L120.339 176.35L120.562 176.273H120.572L120.821 176.182L120.894 176.154L121.094 176.077L121.174 176.045C121.264 176.008 121.355 175.971 121.445 175.931C121.536 175.891 121.627 175.85 121.718 175.807L121.797 175.769C121.865 175.737 121.932 175.704 121.997 175.669L122.076 175.628C122.165 175.581 122.253 175.534 122.338 175.484L122.438 175.427L122.469 175.406C122.569 175.342 122.669 175.278 122.769 175.211L122.808 175.183C122.908 175.116 122.996 175.049 123.083 174.983L123.098 174.972C123.187 174.903 123.271 174.834 123.351 174.766L123.391 174.732C123.466 174.668 123.537 174.605 123.603 174.544L123.619 174.53L123.655 174.496L123.726 174.429L123.78 174.377L123.843 174.315L123.891 174.267L123.947 174.209L123.991 174.168Z" fill="#B3B3B3"/>
<g id="Group 498">
<path id="Path 820" d="M98.097 168.606L98.0789 175.114L93.624 176.588L93.6421 170.08L98.097 168.606Z" fill="#C4C4C4"/>
</g>
<path id="Path 821" d="M93.624 176.588L93.6419 170.08L93.591 170.066L93.5591 170.057L93.506 170.042L93.466 170.03L93.393 170.008L93.3449 169.993L93.251 169.964L93.197 169.947L93.03 169.893L92.992 169.88L92.842 169.83L92.775 169.807L92.639 169.759L92.551 169.728L92.423 169.681L92.323 169.643L92.196 169.594L92.119 169.563L91.89 169.469L91.817 169.438C91.717 169.397 91.623 169.354 91.527 169.31L91.477 169.286C91.3957 169.248 91.3153 169.209 91.2359 169.169L91.1581 169.129C91.0631 169.08 90.969 169.029 90.879 168.977C90.1598 168.552 89.5156 168.011 88.972 167.377L88.954 173.885C89.4974 174.519 90.1417 175.06 90.8609 175.485C90.9509 175.537 91.046 175.585 91.141 175.637L91.218 175.677C91.298 175.717 91.3783 175.756 91.459 175.795L91.511 175.819C91.6076 175.864 91.7043 175.907 91.801 175.948L91.874 175.979C91.9513 176.012 92.0283 176.043 92.105 176.073L92.148 176.09L92.18 176.103L92.313 176.154L92.406 176.189L92.539 176.237L92.623 176.268L92.759 176.315L92.826 176.338L93.003 176.397H93.013L93.182 176.451L93.223 176.463L93.332 176.497L93.367 176.507L93.451 176.532L93.492 176.544L93.545 176.559H93.552L93.587 176.569H93.598L93.624 176.588Z" fill="#858585"/>
<path id="Path 822" d="M109.932 172.407L109.914 178.915L111.255 176.043L111.274 169.535L109.932 172.407Z" fill="#ABABAB"/>
<g id="Group 499">
<path id="Path 823" d="M103.349 172.405L103.331 178.913L101.957 176.043L101.975 169.535L103.349 172.405Z" fill="#808080"/>
</g>
<path id="Path 824" d="M109.8 178.937H109.815L109.915 178.917L109.934 172.409L109.834 172.429H109.814L109.739 172.443L109.702 172.45L109.617 172.466L109.573 172.474L109.473 172.491L109.413 172.501L109.306 172.519L109.234 172.531L109.12 172.549L109.035 172.562L108.911 172.58L108.823 172.592L108.685 172.61L108.591 172.622L108.432 172.641L108.35 172.651L108.099 172.678C107.952 172.693 107.799 172.706 107.642 172.717H107.578C107.428 172.727 107.278 172.735 107.121 172.741H107.03C106.901 172.741 106.771 172.748 106.641 172.748C106.54 172.748 106.44 172.748 106.341 172.748H106.332C106.046 172.741 105.763 172.724 105.491 172.702H105.478L105.188 172.676H105.147L104.909 172.651L104.824 172.641L104.647 172.62L104.547 172.606L104.403 172.586L104.287 172.569L104.187 172.554L104.082 172.538L103.992 172.524L103.899 172.509L103.816 172.495L103.737 172.481L103.669 172.469L103.592 172.455L103.545 172.446L103.475 172.433H103.45L103.35 172.413L103.331 178.921L103.431 178.941H103.458L103.525 178.954L103.573 178.963L103.65 178.977L103.707 178.987L103.799 179.003L103.875 179.016L103.975 179.032L104.064 179.046L104.17 179.063L104.27 179.078L104.359 179.091H104.384L104.527 179.111L104.627 179.124L104.796 179.145L104.89 179.156L105.123 179.181H105.168L105.456 179.207H105.471C105.742 179.229 106.025 179.246 106.311 179.253H106.32C106.421 179.253 106.521 179.253 106.62 179.253C106.75 179.253 106.88 179.253 107.009 179.246H107.054H107.1C107.254 179.24 107.407 179.232 107.557 179.222H107.621C107.777 179.211 107.93 179.198 108.078 179.183L108.328 179.157L108.41 179.147L108.57 179.128L108.663 179.116L108.802 179.097L108.89 179.085L109.014 179.067L109.099 179.054L109.213 179.036L109.285 179.025L109.393 179.007L109.452 178.997L109.552 178.979L109.593 178.972H109.605L109.682 178.958L109.715 178.952L109.8 178.937Z" fill="#949494"/>
<g id="Group 500">
<path id="Path 825" d="M119.614 170.08L115.143 168.606C113.879 169.017 112.585 169.328 111.273 169.535L109.931 172.407C107.761 172.872 105.518 172.872 103.348 172.407L101.974 169.537C100.659 169.328 99.3617 169.017 98.0949 168.607L93.6399 170.081C92.6812 169.816 91.7542 169.448 90.8759 168.981C90.1565 168.556 89.5122 168.016 88.9689 167.381L91.499 164.796C90.8412 164.141 90.2947 163.383 89.8809 162.552L84.9219 161.766C84.525 161.211 84.3095 160.546 84.3052 159.863C84.3009 159.181 84.5081 158.513 84.898 157.953L89.852 157.167C90.2551 156.336 90.7926 155.578 91.4429 154.922L88.884 152.337C89.4216 151.704 90.0606 151.165 90.775 150.742C91.6473 150.275 92.5685 149.906 93.5219 149.642L97.993 151.116C99.2565 150.705 100.551 150.394 101.863 150.187L103.204 147.315C105.373 146.848 107.617 146.848 109.787 147.315L111.161 150.185C112.476 150.394 113.773 150.704 115.04 151.115L119.497 149.64C120.454 149.905 121.38 150.274 122.257 150.74C122.977 151.165 123.623 151.706 124.168 152.34L121.636 154.926C122.293 155.581 122.84 156.339 123.254 157.17L128.213 157.956C128.568 158.533 128.779 159.187 128.827 159.862C128.788 160.536 128.585 161.191 128.236 161.769L123.284 162.554C122.88 163.385 122.342 164.144 121.691 164.8L124.25 167.385C123.713 168.019 123.074 168.56 122.359 168.985C121.487 169.45 120.566 169.817 119.614 170.08ZM99.6869 163.86C101.825 164.949 104.191 165.517 106.59 165.517C108.99 165.517 111.356 164.949 113.494 163.86C117.294 161.652 117.276 158.072 113.449 155.86C111.311 154.771 108.945 154.204 106.545 154.204C104.146 154.204 101.78 154.771 99.6419 155.86C95.8419 158.068 95.8619 161.649 99.6869 163.86Z" fill="#DCDCDC"/>
</g>
</g>
<g id="Group 509">
<path id="Path 826" d="M65.232 0.123002L91.614 15.761C92.0609 16.0212 92.4318 16.3941 92.6895 16.8425C92.9473 17.2908 93.0829 17.7989 93.083 18.316V51.246C93.083 52.507 90.305 54.104 89.215 53.469L64.615 37.236C64.2262 37.0096 63.9035 36.6851 63.6793 36.2951C63.455 35.905 63.3371 35.4629 63.337 35.013L61.369 1.67302C61.367 0.70002 64.391 -0.366998 65.232 0.123002Z" fill="url(#paint3_linear_508_319)"/>
<path id="Path 827" d="M63.166 1.071L89.5479 16.709C89.9948 16.9692 90.3657 17.3421 90.6235 17.7904C90.8813 18.2388 91.0169 18.7468 91.0169 19.264V52.189C91.0169 52.4764 90.9412 52.7588 90.7972 53.0075C90.6533 53.2563 90.4463 53.4627 90.1971 53.606C89.948 53.7493 89.6654 53.8244 89.378 53.8237C89.0906 53.823 88.8085 53.7465 88.56 53.602L62.5479 38.189C62.1592 37.9626 61.8366 37.6381 61.6124 37.248C61.3882 36.858 61.2701 36.4159 61.27 35.966V2.166C61.269 1.94374 61.3268 1.72516 61.4375 1.53242C61.5482 1.33968 61.7079 1.17962 61.9004 1.06846C62.0928 0.957306 62.3113 0.899014 62.5335 0.899459C62.7558 0.899903 62.974 0.95907 63.166 1.071Z" fill="url(#paint4_linear_508_319)"/>
<g id="Group 508">
<g id="Group 507">
<g id="Group 506" opacity="0.75">
<g id="Group 502" opacity="0.75">
<path id="Path 828" opacity="0.75" d="M67.884 13.544V15.416L84.402 25.06V23.188L67.884 13.544Z" fill="#AAADAD"/>
</g>
<g id="Group 503" opacity="0.75">
<path id="Path 829" opacity="0.75" d="M67.884 18.941V20.813L84.402 30.388V28.516L67.884 18.941Z" fill="#AAADAD"/>
</g>
<g id="Group 504" opacity="0.75">
<path id="Path 830" opacity="0.75" d="M67.884 24.342V26.211L84.402 35.786V33.914L67.884 24.342Z" fill="#AAADAD"/>
</g>
<g id="Group 505" opacity="0.75">
<path id="Path 831" opacity="0.75" d="M67.884 29.743V31.615L84.402 41.19V39.318L67.884 29.743Z" fill="#AAADAD"/>
</g>
</g>
</g>
</g>
</g>
<g id="Group 521">
<g id="Group 512">
<g id="Group 511">
<path id="Path 832" d="M185.687 150.069L112.875 108.585L110.136 1.66498L112.875 0.136993L185.686 41.621L185.687 150.069Z" fill="url(#paint5_linear_508_319)"/>
<path id="Path 833" d="M182.948 151.596L110.137 110.112V1.66498L182.948 43.149V151.596Z" fill="url(#paint6_linear_508_319)"/>
<path id="Path 834" d="M176.273 83.343L118.446 50.396V41.514L176.273 74.461V83.343Z" fill="url(#paint7_linear_508_319)"/>
<path id="Path 835" d="M176.273 91.405L118.446 58.455V54.014L176.273 86.961V91.405Z" fill="#E8E8E8"/>
<path id="Path 836" d="M176.273 99.467L118.446 66.52V62.079L176.273 95.026V99.467Z" fill="#E8E8E8"/>
<path id="Path 837" d="M176.273 107.528L118.446 74.5809V70.14L176.273 103.087V107.528Z" fill="#E8E8E8"/>
<path id="Path 838" d="M176.273 115.59L118.446 82.6429V78.202L176.273 111.149V115.59Z" fill="url(#paint8_linear_508_319)"/>
<path id="Line 3" opacity="0.47" d="M159.019 64.63V105.758" stroke="#7F7F7F" stroke-width="6" stroke-miterlimit="10"/>
<path id="Line 4" opacity="0.47" d="M135.508 51.235V92.363" stroke="#7F7F7F" stroke-width="6" stroke-miterlimit="10"/>
<path id="Path 839" d="M173.819 122.491L161.184 115.291C160.897 115.121 160.654 114.885 160.475 114.604C160.295 114.323 160.185 114.003 160.152 113.671V113.319C160.152 112.751 160.616 112.551 161.184 112.875L173.819 120.075C174.106 120.245 174.349 120.48 174.528 120.762C174.707 121.043 174.818 121.363 174.851 121.695V122.047C174.851 122.615 174.387 122.815 173.819 122.491Z" fill="#C6C6C6"/>
<path id="Path 840" d="M130.538 53.668L121.923 48.76C121.729 48.6439 121.564 48.4841 121.442 48.2931C121.321 48.1021 121.246 47.8853 121.223 47.66V47.42C121.223 47.033 121.54 46.897 121.923 47.12L130.538 52.028C130.732 52.144 130.897 52.304 131.018 52.495C131.14 52.686 131.215 52.9028 131.238 53.128V53.368C131.242 53.752 130.925 53.889 130.538 53.668Z" fill="white"/>
<path id="Path 841" d="M130.538 63.95L121.923 59.042C121.729 58.926 121.564 58.766 121.442 58.575C121.321 58.384 121.246 58.1672 121.223 57.942V57.702C121.223 57.315 121.54 57.179 121.923 57.402L130.538 62.31C130.732 62.4261 130.897 62.5859 131.018 62.7769C131.14 62.968 131.215 63.1848 131.238 63.41V63.65C131.242 64.034 130.925 64.171 130.538 63.95Z" fill="#B2B7B7"/>
<path id="Path 842" d="M130.538 72.012L121.923 67.104C121.729 66.9879 121.564 66.8281 121.442 66.6371C121.321 66.4461 121.246 66.2293 121.223 66.004V65.764C121.223 65.377 121.54 65.241 121.923 65.464L130.538 70.372C130.732 70.488 130.897 70.648 131.018 70.839C131.14 71.03 131.215 71.2467 131.238 71.472V71.712C131.242 72.096 130.925 72.233 130.538 72.012Z" fill="#B2B7B7"/>
<path id="Path 843" d="M130.538 80.0729L121.923 75.1649C121.729 75.0489 121.564 74.889 121.442 74.698C121.321 74.507 121.246 74.2902 121.223 74.065V73.825C121.223 73.438 121.54 73.3019 121.923 73.5249L130.538 78.4329C130.732 78.5489 130.897 78.7089 131.018 78.8999C131.14 79.0909 131.215 79.3077 131.238 79.533V79.773C131.242 80.157 130.925 80.2899 130.538 80.0729Z" fill="#B2B7B7"/>
<path id="Path 844" d="M172.603 87.9169L163.989 83.009C163.795 82.8929 163.63 82.7329 163.508 82.5419C163.387 82.3509 163.312 82.1342 163.289 81.909V81.669C163.289 81.282 163.606 81.1459 163.989 81.3689L172.603 86.2769C172.797 86.3929 172.962 86.5528 173.083 86.7438C173.205 86.9348 173.28 87.1516 173.303 87.3769V87.617C173.307 88.001 172.99 88.1379 172.603 87.9169Z" fill="#B2B7B7"/>
<path id="Path 845" d="M172.603 95.978L163.989 91.07C163.795 90.9539 163.63 90.7939 163.508 90.603C163.387 90.412 163.312 90.1952 163.289 89.97V89.7299C163.289 89.3429 163.606 89.207 163.989 89.43L172.603 94.3379C172.797 94.454 172.962 94.6139 173.083 94.8049C173.205 94.9959 173.28 95.2127 173.303 95.4379V95.6779C173.307 96.0589 172.99 96.199 172.603 95.978Z" fill="#B2B7B7"/>
<path id="Path 846" d="M172.603 104.04L163.989 99.1319C163.795 99.0158 163.63 98.856 163.508 98.665C163.387 98.474 163.312 98.2572 163.289 98.0319V97.7919C163.289 97.4049 163.606 97.269 163.989 97.492L172.603 102.4C172.797 102.516 172.962 102.676 173.083 102.867C173.205 103.058 173.28 103.275 173.303 103.5V103.74C173.307 104.124 172.99 104.263 172.603 104.04Z" fill="#B2B7B7"/>
<path id="Path 847" d="M151.571 65.651L142.956 60.743C142.762 60.6269 142.597 60.467 142.476 60.276C142.354 60.085 142.279 59.8682 142.256 59.643V59.403C142.256 59.016 142.573 58.88 142.956 59.103L151.571 64.011C151.765 64.1271 151.93 64.2869 152.052 64.4779C152.173 64.669 152.248 64.8858 152.271 65.111V65.351C152.275 65.736 151.958 65.872 151.571 65.651Z" fill="white"/>
<path id="Path 848" d="M172.603 77.635L163.989 72.727C163.795 72.6109 163.63 72.451 163.508 72.26C163.387 72.069 163.312 71.8521 163.289 71.6269V71.3869C163.289 70.9999 163.606 70.864 163.989 71.087L172.603 75.995C172.797 76.111 172.962 76.2709 173.083 76.4619C173.205 76.6529 173.28 76.8697 173.303 77.0949V77.3349C173.307 77.7189 172.99 77.856 172.603 77.635Z" fill="white"/>
<path id="Path 849" d="M132.549 45.929L119.914 38.729C119.627 38.5587 119.384 38.3234 119.205 38.042C119.026 37.7606 118.915 37.441 118.882 37.109V36.757C118.882 36.189 119.347 35.989 119.914 36.313L132.549 43.513C132.836 43.6832 133.079 43.9186 133.258 44.2C133.437 44.4814 133.548 44.801 133.581 45.133V45.4849C133.581 46.0519 133.114 46.252 132.549 45.929Z" fill="#C6C6C6"/>
<g id="Group 510">
<path id="Path 850" d="M133.188 30.069V36.144L132.518 35.762V29.687L133.188 30.069Z" fill="url(#paint9_linear_508_319)"/>
<path id="Path 851" d="M134.741 37.031V30.956L135.473 31.373L137.136 35.394C137.521 36.325 137.821 37.136 138.068 37.894H138.084C138.022 37.048 138.007 36.3 138.007 35.353V32.818L138.638 33.178V39.253L137.96 38.867L136.312 34.846C135.95 33.963 135.604 33.072 135.342 32.265H135.319C135.357 33.053 135.373 33.792 135.373 34.801V37.401L134.741 37.031Z" fill="url(#paint10_linear_508_319)"/>
<path id="Path 852" d="M141.334 40.787L139.64 33.747L140.364 34.159L141.172 37.612C141.395 38.559 141.588 39.412 141.726 40.199L141.742 40.208C141.907 39.5566 142.105 38.9141 142.335 38.283L143.213 35.783L143.929 36.191L142.073 41.209L141.334 40.787Z" fill="url(#paint11_linear_508_319)"/>
<path id="Path 853" d="M149.314 42.234C149.314 44.325 148.228 44.815 146.904 44.06C146.175 43.5807 145.579 42.9249 145.171 42.1536C144.763 41.3823 144.557 40.5204 144.571 39.648C144.571 37.719 145.595 37.041 146.981 37.83C147.712 38.3056 148.309 38.9595 148.718 39.73C149.126 40.5005 149.331 41.3622 149.314 42.234V42.234ZM145.287 40.034C145.265 40.6928 145.404 41.3471 145.693 41.9397C145.981 42.5323 146.411 43.0453 146.943 43.434C148.006 44.039 148.606 43.234 148.606 41.858C148.629 41.1973 148.49 40.541 148.201 39.9462C147.913 39.3514 147.483 38.8361 146.95 38.445C145.842 37.821 145.287 38.706 145.287 40.038V40.034Z" fill="url(#paint12_linear_508_319)"/>
<path id="Path 854" d="M151.242 40.358V46.433L150.572 46.051V39.976L151.242 40.358Z" fill="url(#paint13_linear_508_319)"/>
<path id="Path 855" d="M156.426 49.186C155.937 49.1306 155.468 48.9621 155.055 48.694C154.27 48.2269 153.62 47.5628 153.17 46.7673C152.72 45.9719 152.486 45.0728 152.491 44.159C152.491 42.259 153.591 41.596 155.201 42.512C155.663 42.7653 156.079 43.0938 156.433 43.484L156.271 44.032C155.97 43.6943 155.616 43.4076 155.224 43.183C154.007 42.49 153.199 42.94 153.199 44.535C153.185 45.2546 153.362 45.9652 153.712 46.594C154.063 47.2228 154.574 47.7474 155.193 48.114C155.524 48.3201 155.898 48.4468 156.286 48.484L156.426 49.186Z" fill="url(#paint14_linear_508_319)"/>
<path id="Path 856" d="M160.339 48.769L158.322 47.62V49.81L160.571 51.091V51.749L157.653 50.086V44.011L160.453 45.611V46.269L158.32 45.054V46.974L160.337 48.123L160.339 48.769Z" fill="url(#paint15_linear_508_319)"/>
</g>
</g>
<path id="Path 857" d="M185.687 41.621L182.948 43.149V151.596L185.687 150.068V41.621Z" fill="url(#paint16_linear_508_319)"/>
</g>
<g id="translate_2">
<g id="Group 514">
<path id="Path 858" d="M122.214 113.582C122.214 113.509 122.206 113.434 122.204 113.361C122.199 113.204 122.19 113.047 122.182 112.889C122.173 112.704 122.168 112.519 122.156 112.333C122.147 112.191 122.132 112.048 122.122 111.905C122.109 111.739 122.096 111.572 122.082 111.405C122.072 111.295 122.066 111.186 122.056 111.076C122.033 110.838 122.004 110.598 121.976 110.36C121.96 110.223 121.947 110.087 121.93 109.949C121.924 109.903 121.921 109.857 121.915 109.811C121.86 109.38 121.799 108.946 121.73 108.511C121.73 108.502 121.73 108.492 121.73 108.482C121.72 108.42 121.708 108.357 121.698 108.294C121.639 107.932 121.578 107.569 121.51 107.205C121.498 107.14 121.483 107.074 121.47 107.005C121.437 106.833 121.4 106.66 121.37 106.487C121.327 106.276 121.287 106.065 121.241 105.853C121.215 105.735 121.185 105.617 121.159 105.5C121.116 105.312 121.073 105.124 121.028 104.936C120.994 104.791 120.962 104.646 120.928 104.5C120.885 104.325 120.835 104.15 120.79 103.976C120.745 103.802 120.69 103.599 120.642 103.41C120.617 103.317 120.594 103.223 120.568 103.13C120.499 102.88 120.423 102.63 120.349 102.382C120.302 102.222 120.258 102.063 120.209 101.903C120.195 101.857 120.183 101.812 120.169 101.766C120.036 101.321 119.893 100.876 119.741 100.431L119.735 100.415C119.721 100.375 119.707 100.335 119.693 100.295C119.56 99.901 119.424 99.5079 119.282 99.1159C119.259 99.0539 119.235 98.9919 119.212 98.9289C119.158 98.7809 119.101 98.629 119.045 98.485C118.966 98.274 118.889 98.0619 118.807 97.8509C118.755 97.7159 118.698 97.582 118.645 97.451C118.578 97.287 118.512 97.123 118.445 96.959C118.396 96.84 118.351 96.719 118.301 96.6C118.201 96.361 118.101 96.124 117.995 95.886C117.94 95.759 117.887 95.631 117.831 95.504C117.811 95.459 117.793 95.414 117.773 95.37C117.589 94.9533 117.4 94.5377 117.205 94.123L117.179 94.0699C117.123 93.9509 117.064 93.8329 117.007 93.7149C116.855 93.3959 116.707 93.077 116.545 92.761C116.52 92.711 116.493 92.6609 116.468 92.6109C116.338 92.3519 116.203 92.095 116.068 91.838C115.959 91.629 115.855 91.418 115.744 91.211C115.723 91.173 115.701 91.136 115.681 91.098C115.322 90.4313 114.95 89.7689 114.566 89.1109C114.534 89.0549 114.504 88.998 114.472 88.943C114.372 88.776 114.272 88.612 114.172 88.443C114.011 88.174 113.849 87.906 113.684 87.643C113.537 87.406 113.384 87.171 113.236 86.936C113.067 86.673 112.899 86.41 112.727 86.15C112.67 86.064 112.616 85.976 112.559 85.891C112.422 85.691 112.281 85.485 112.142 85.282C112.042 85.142 111.952 85.002 111.855 84.863C111.55 84.4263 111.241 83.993 110.927 83.563L110.914 83.546C110.559 83.064 110.197 82.5889 109.828 82.1209L109.779 82.057C109.506 81.71 109.228 81.37 108.949 81.031C108.897 80.968 108.849 80.902 108.793 80.839L108.783 80.827C108.454 80.4323 108.121 80.043 107.783 79.659L107.731 79.602C107.631 79.486 107.525 79.374 107.422 79.26C107.208 79.021 106.995 78.78 106.778 78.546C106.737 78.502 106.695 78.46 106.654 78.416C106.508 78.26 106.359 78.107 106.212 77.953C106.049 77.782 105.888 77.608 105.722 77.44C105.661 77.378 105.598 77.318 105.536 77.256C105.376 77.095 105.214 76.9359 105.052 76.7779C104.912 76.6409 104.775 76.5 104.634 76.365C104.554 76.288 104.471 76.215 104.391 76.139C104.216 75.973 104.04 75.811 103.864 75.649C103.742 75.536 103.622 75.4199 103.499 75.3089C103.399 75.2219 103.299 75.1399 103.207 75.0539C103.03 74.8966 102.852 74.7413 102.673 74.588C102.565 74.495 102.459 74.398 102.35 74.307C102.241 74.216 102.113 74.1149 101.995 74.0169C101.821 73.8729 101.647 73.7306 101.472 73.5899C101.381 73.5169 101.292 73.441 101.201 73.369C101.053 73.252 100.901 73.142 100.753 73.027C100.605 72.912 100.429 72.777 100.266 72.655C100.2 72.605 100.134 72.555 100.066 72.504C99.866 72.356 99.666 72.216 99.46 72.073C99.323 71.973 99.187 71.873 99.05 71.781L98.9429 71.7049C98.5789 71.4556 98.2123 71.214 97.843 70.98L97.833 70.974L97.755 70.926C97.422 70.715 97.087 70.509 96.75 70.311L96.496 70.1629C96.2214 70.0043 95.9477 69.8513 95.675 69.704C95.575 69.648 95.468 69.5979 95.364 69.5429C95.224 69.4689 95.084 69.3963 94.944 69.3249C94.835 69.2699 94.725 69.209 94.617 69.155C94.443 69.069 94.27 68.992 94.096 68.91C93.972 68.852 93.848 68.791 93.725 68.735C93.674 68.712 93.625 68.685 93.571 68.662C93.2243 68.5066 92.88 68.3606 92.538 68.224C92.196 68.0873 91.8487 67.9567 91.496 67.832C91.451 67.816 91.407 67.8039 91.362 67.7879C91.237 67.7449 91.1139 67.707 90.9899 67.666C90.8139 67.608 90.637 67.546 90.462 67.493C90.375 67.467 90.289 67.446 90.202 67.421C90.05 67.377 89.902 67.336 89.747 67.295C89.63 67.264 89.511 67.2269 89.395 67.1949C89.279 67.1629 89.153 67.142 89.031 67.114C88.879 67.079 88.731 67.044 88.578 67.014C88.498 66.997 88.417 66.976 88.337 66.961C88.194 66.933 88.055 66.916 87.914 66.891C87.739 66.861 87.5639 66.83 87.3909 66.805C87.3299 66.796 87.267 66.783 87.206 66.774C87.062 66.755 86.921 66.746 86.779 66.73C86.592 66.709 86.406 66.688 86.221 66.673C86.167 66.673 86.111 66.66 86.057 66.656C85.931 66.647 85.809 66.65 85.685 66.644C85.465 66.634 85.245 66.6239 85.028 66.6219C84.967 66.6219 84.9039 66.6159 84.8439 66.6159C84.6039 66.6159 84.366 66.624 84.13 66.636L84.041 66.6419C83.862 66.6519 83.6831 66.6629 83.5061 66.6789C83.3931 66.6889 83.2829 66.706 83.1719 66.719C83.0879 66.729 83.004 66.738 82.921 66.749C82.621 66.789 82.3139 66.836 82.0209 66.896L81.994 66.9029C81.913 66.9199 81.835 66.9419 81.754 66.9599C81.508 67.0149 81.263 67.072 81.023 67.14C80.906 67.173 80.792 67.213 80.676 67.249C80.523 67.297 80.367 67.34 80.216 67.394C80.178 67.408 80.142 67.426 80.104 67.44C79.872 67.525 79.646 67.621 79.421 67.718C79.312 67.765 79.199 67.808 79.091 67.858C78.762 68.012 78.4391 68.178 78.1261 68.358L72.955 71.363C73.268 71.181 73.591 71.015 73.92 70.863C74.028 70.812 74.14 70.77 74.25 70.723C74.475 70.623 74.7011 70.5299 74.9331 70.4449C75.1211 70.3759 75.312 70.315 75.504 70.255C75.62 70.219 75.734 70.179 75.851 70.146C76.091 70.078 76.336 70.021 76.583 69.966C76.663 69.948 76.741 69.926 76.822 69.909C77.127 69.847 77.438 69.798 77.752 69.756C77.835 69.745 77.92 69.7359 78.004 69.7259C78.29 69.6929 78.579 69.666 78.873 69.649L78.962 69.643C79.262 69.628 79.562 69.627 79.862 69.629C80.079 69.629 80.299 69.64 80.518 69.651C80.696 69.659 80.873 69.666 81.054 69.68C81.235 69.694 81.425 69.716 81.611 69.737C81.811 69.759 82.018 69.781 82.224 69.811C82.397 69.836 82.572 69.8669 82.746 69.8969C82.966 69.9349 83.187 69.974 83.41 70.02C83.56 70.051 83.71 70.086 83.864 70.12C84.1006 70.1746 84.3391 70.234 84.5791 70.298C84.7301 70.338 84.879 70.3799 85.035 70.4239C85.296 70.4989 85.559 70.5819 85.822 70.6679C85.946 70.7089 86.07 70.747 86.195 70.79C86.584 70.924 86.9749 71.0679 87.3699 71.2259C87.7619 71.3829 88.158 71.556 88.557 71.737C88.681 71.793 88.806 71.8539 88.93 71.9129C89.2107 72.0463 89.4926 72.1843 89.776 72.327C89.916 72.3983 90.0563 72.471 90.197 72.545C90.572 72.745 90.949 72.945 91.328 73.165C91.749 73.408 92.167 73.665 92.582 73.926L92.665 73.977C93.072 74.236 93.477 74.506 93.879 74.784C94.016 74.879 94.152 74.978 94.289 75.076C94.558 75.267 94.8269 75.4589 95.0889 75.6579C95.2519 75.7799 95.414 75.905 95.576 76.03C95.817 76.215 96.056 76.402 96.295 76.593C96.471 76.733 96.6449 76.876 96.8179 77.02C97.0453 77.208 97.2714 77.3987 97.496 77.592C97.6747 77.7454 97.8523 77.9003 98.029 78.057C98.2497 78.2523 98.469 78.4506 98.687 78.652C98.864 78.814 99.04 78.977 99.215 79.143C99.436 79.353 99.656 79.566 99.874 79.781C100.036 79.94 100.198 80.099 100.359 80.261C100.586 80.49 100.811 80.724 101.035 80.961C101.183 81.115 101.335 81.2679 101.477 81.4239C101.735 81.6999 101.989 81.981 102.242 82.264C102.342 82.38 102.452 82.4939 102.555 82.6109C102.912 83.0169 103.265 83.429 103.613 83.847C103.666 83.911 103.713 83.977 103.77 84.041C104.065 84.3997 104.358 84.7623 104.647 85.129C105.018 85.6017 105.385 86.081 105.747 86.567V86.573L105.755 86.584C106.068 87.0086 106.376 87.4387 106.678 87.874C106.778 88.012 106.869 88.153 106.964 88.292C107.164 88.58 107.359 88.87 107.55 89.162C107.722 89.422 107.89 89.684 108.058 89.947C108.209 90.182 108.358 90.417 108.507 90.655C108.673 90.922 108.835 91.1909 108.996 91.4599C109.128 91.6809 109.261 91.901 109.391 92.123C109.775 92.7797 110.147 93.4423 110.507 94.1109C110.638 94.3559 110.766 94.603 110.894 94.85C111.022 95.097 111.164 95.365 111.294 95.624C111.478 95.99 111.656 96.359 111.833 96.724C111.89 96.843 111.949 96.9609 112.005 97.0799C112.228 97.5559 112.445 98.034 112.656 98.514C112.712 98.641 112.765 98.7689 112.82 98.8969C112.973 99.2529 113.123 99.61 113.27 99.968C113.337 100.132 113.403 100.296 113.47 100.46C113.607 100.805 113.74 101.15 113.87 101.497C113.926 101.645 113.983 101.797 114.037 101.943C114.203 102.397 114.363 102.852 114.518 103.308C114.532 103.348 114.547 103.389 114.56 103.429C114.726 103.924 114.884 104.42 115.033 104.916C115.082 105.077 115.127 105.239 115.174 105.4C115.274 105.741 115.374 106.082 115.465 106.423C115.516 106.613 115.565 106.802 115.614 106.992C115.697 107.311 115.776 107.63 115.853 107.949C115.898 108.138 115.941 108.326 115.984 108.514C116.059 108.843 116.129 109.172 116.195 109.501C116.23 109.674 116.267 109.846 116.295 110.019C116.378 110.448 116.454 110.876 116.523 111.303C116.533 111.366 116.546 111.428 116.556 111.491C116.633 111.98 116.7 112.468 116.756 112.954C116.773 113.092 116.786 113.229 116.802 113.367C116.841 113.716 116.877 114.067 116.908 114.411C116.922 114.578 116.935 114.744 116.948 114.911C116.973 115.24 116.993 115.568 117.008 115.895C117.015 116.052 117.024 116.21 117.03 116.367C117.047 116.831 117.058 117.294 117.056 117.753C117.056 118.235 117.042 118.707 117.02 119.172C117.014 119.304 117.003 119.433 116.996 119.564C116.978 119.883 116.956 120.199 116.929 120.51C116.913 120.69 116.893 120.867 116.874 121.044C116.846 121.308 116.815 121.569 116.78 121.826C116.754 122.015 116.725 122.202 116.696 122.388C116.659 122.625 116.618 122.859 116.575 123.088C116.536 123.296 116.494 123.501 116.451 123.704C116.408 123.907 116.361 124.113 116.31 124.322C116.252 124.561 116.19 124.797 116.126 125.03C116.076 125.212 116.026 125.392 115.97 125.57C115.885 125.849 115.793 126.121 115.698 126.39C115.639 126.558 115.582 126.73 115.519 126.89C115.487 126.973 115.454 127.054 115.419 127.135C115.308 127.414 115.191 127.686 115.069 127.953C115.045 128.005 115.022 128.06 114.998 128.112C114.842 128.445 114.678 128.768 114.506 129.081C114.333 129.394 114.151 129.696 113.963 129.99C113.925 130.049 113.885 130.104 113.846 130.162C113.702 130.379 113.554 130.591 113.402 130.796C113.341 130.878 113.279 130.959 113.216 131.04C113.071 131.227 112.923 131.408 112.77 131.585C112.713 131.652 112.656 131.721 112.597 131.785C112.388 132.018 112.174 132.244 111.953 132.459C111.923 132.489 111.89 132.516 111.859 132.545C111.666 132.73 111.467 132.907 111.264 133.077C111.191 133.139 111.116 133.198 111.042 133.257C110.869 133.396 110.692 133.53 110.512 133.657C110.438 133.71 110.365 133.764 110.289 133.816C110.039 133.987 109.789 134.152 109.523 134.304L114.694 131.304C114.956 131.152 115.21 130.987 115.46 130.816C115.535 130.765 115.609 130.71 115.683 130.657C115.863 130.528 116.039 130.395 116.212 130.257C116.287 130.197 116.361 130.138 116.435 130.076C116.635 129.906 116.833 129.729 117.029 129.545C117.06 129.515 117.093 129.488 117.124 129.458C117.345 129.243 117.559 129.017 117.768 128.784C117.827 128.718 117.883 128.649 117.941 128.584C118.093 128.407 118.241 128.226 118.386 128.04C118.449 127.959 118.511 127.878 118.572 127.795C118.725 127.59 118.872 127.379 119.015 127.162C119.053 127.104 119.094 127.048 119.132 126.989C119.143 126.972 119.155 126.955 119.167 126.938C119.344 126.661 119.513 126.376 119.676 126.081V126.073C119.837 125.781 119.991 125.481 120.138 125.173C120.148 125.152 120.157 125.13 120.167 125.109C120.191 125.057 120.214 125.002 120.239 124.95C120.36 124.683 120.477 124.411 120.588 124.133C120.62 124.051 120.654 123.97 120.688 123.888C120.712 123.827 120.737 123.768 120.76 123.706C120.799 123.606 120.83 123.489 120.867 123.383C120.962 123.114 121.054 122.843 121.139 122.564C121.162 122.49 121.189 122.421 121.212 122.346C121.243 122.246 121.267 122.129 121.296 122.023C121.363 121.79 121.424 121.555 121.48 121.316C121.504 121.216 121.533 121.126 121.555 121.027C121.577 120.928 121.598 120.806 121.621 120.698C121.664 120.495 121.706 120.289 121.745 120.081C121.765 119.974 121.79 119.871 121.809 119.763C121.831 119.637 121.846 119.505 121.867 119.378C121.897 119.192 121.925 119.005 121.951 118.816C121.964 118.716 121.982 118.627 121.994 118.529C122.014 118.367 122.027 118.198 122.045 118.029C122.063 117.86 122.084 117.676 122.1 117.496C122.107 117.423 122.116 117.354 122.122 117.281C122.142 117.04 122.153 116.792 122.168 116.547C122.175 116.417 122.186 116.29 122.192 116.159C122.192 116.127 122.192 116.095 122.198 116.059C122.215 115.649 122.225 115.233 122.227 114.81C122.227 114.785 122.227 114.761 122.227 114.736C122.23 114.357 122.226 113.973 122.214 113.582Z" fill="url(#paint17_linear_508_319)"/>
<g id="Group 513">
<path id="Path 859" d="M91.3171 73.169C105.581 81.404 117.105 101.369 117.059 117.752C117.013 134.135 105.413 140.752 91.149 132.518C76.885 124.284 65.363 104.324 65.41 87.9329C65.457 71.5419 77.0551 64.935 91.3171 73.169Z" fill="url(#paint18_linear_508_319)"/>
</g>
</g>
<g id="Group 515">
<path id="Path 860" d="M105.449 128.743C101.694 130.577 96.675 130.124 91.164 126.943C79.581 120.258 70.2249 104.043 70.2639 90.735C70.2859 82.678 73.751 77.529 79.05 76.209C74.911 78.224 72.314 83.019 72.296 89.997C72.257 103.306 81.6129 119.52 93.1959 126.205C97.7619 128.842 101.996 129.606 105.449 128.743Z" fill="url(#paint19_linear_508_319)"/>
</g>
<g id="Group 516">
<path id="Path 861" d="M112.207 114.95C112.19 121.928 109.587 126.727 105.449 128.743C101.996 129.606 97.7631 128.843 93.1931 126.205C81.6101 119.52 72.254 103.305 72.293 89.9969C72.31 83.0189 74.9079 78.2239 79.0469 76.2089C82.4999 75.3419 86.733 76.109 91.303 78.742C102.885 85.431 112.246 101.64 112.207 114.95Z" fill="url(#paint20_linear_508_319)"/>
</g>
<g id="Group 519">
<g id="Group 517">
<path id="Path 862" d="M91.67 123.372L93.799 122.135L93.817 115.749L91.688 116.986L91.67 123.372Z" fill="url(#paint21_linear_508_319)"/>
<path id="Path 863" d="M96.626 113.855C96.582 113.87 96.5339 113.88 96.4879 113.892C96.4419 113.904 96.378 113.92 96.32 113.93C96.286 113.936 96.25 113.94 96.215 113.945C96.144 113.954 96.072 113.961 95.998 113.965H95.903C95.797 113.965 95.688 113.965 95.574 113.958H95.565C95.453 113.95 95.336 113.935 95.216 113.917L95.106 113.899C95.011 113.883 94.914 113.863 94.814 113.841L94.703 113.816C94.566 113.783 94.426 113.746 94.281 113.702L94.251 113.692C94.1 113.646 93.951 113.592 93.787 113.537L93.813 104.257L91.684 105.494L91.6649 112.385C91.5289 112.302 91.391 112.22 91.265 112.135L91.179 112.078C90.973 111.94 90.776 111.799 90.588 111.654L90.5349 111.613C90.3349 111.458 90.146 111.3 89.968 111.139L89.9521 111.124C89.7694 110.958 89.597 110.788 89.435 110.615C89.36 110.534 89.29 110.455 89.223 110.377L89.1909 110.34C89.1289 110.267 89.071 110.195 89.017 110.124L88.9929 110.093C88.9396 110.022 88.8903 109.953 88.845 109.886C88.828 109.861 88.814 109.837 88.798 109.812C88.765 109.76 88.732 109.712 88.703 109.657L88.689 109.633C88.651 109.564 88.617 109.496 88.589 109.433C88.5467 109.336 88.5133 109.236 88.489 109.133L89.455 108.572C89.5334 108.525 89.6034 108.464 89.662 108.394C89.677 108.377 89.691 108.359 89.705 108.341C89.719 108.323 89.735 108.308 89.747 108.289C89.7699 108.253 89.7906 108.215 89.809 108.176C89.824 108.145 89.837 108.113 89.85 108.076V108.069C89.863 108.035 89.875 107.999 89.886 107.962C89.897 107.925 89.905 107.892 89.914 107.855C89.923 107.818 89.9299 107.782 89.9359 107.744C89.9359 107.728 89.936 107.712 89.943 107.696V107.68C89.943 107.663 89.948 107.646 89.951 107.628C89.956 107.588 89.96 107.546 89.964 107.504C89.968 107.462 89.9699 107.416 89.9719 107.37C89.9739 107.324 89.9719 107.27 89.9719 107.222V107.213C89.9719 107.158 89.9719 107.104 89.9719 107.05C89.9719 106.996 89.972 106.941 89.964 106.888C89.956 106.835 89.9571 106.788 89.9521 106.735C89.9471 106.682 89.9419 106.635 89.9359 106.589V106.574C89.9309 106.532 89.925 106.491 89.918 106.449C89.911 106.407 89.903 106.359 89.895 106.314C89.887 106.269 89.8779 106.226 89.8679 106.182C89.8579 106.138 89.849 106.096 89.838 106.054C89.827 106.012 89.823 105.995 89.815 105.966V105.956C89.815 105.947 89.815 105.938 89.808 105.929C89.797 105.889 89.785 105.849 89.773 105.809C89.761 105.769 89.749 105.732 89.736 105.693C89.723 105.654 89.711 105.619 89.697 105.583C89.683 105.547 89.671 105.513 89.657 105.478C89.643 105.443 89.63 105.41 89.616 105.378L89.611 105.366C89.599 105.338 89.587 105.31 89.575 105.282C89.563 105.254 89.544 105.214 89.529 105.182L89.477 105.074C89.4563 105.033 89.435 104.991 89.413 104.95C89.385 104.897 89.3553 104.843 89.324 104.79L89.31 104.766C89.2506 104.665 89.189 104.567 89.125 104.472C89.086 104.415 89.047 104.359 89.006 104.304L88.97 104.257L88.96 104.244L88.917 104.187L88.834 104.087L88.751 103.987C88.723 103.955 88.6939 103.923 88.6649 103.887L88.572 103.787L88.553 103.768L88.5449 103.76L88.4719 103.688C88.4359 103.654 88.4 103.62 88.364 103.588C88.328 103.556 88.288 103.52 88.249 103.488C88.21 103.456 88.169 103.421 88.128 103.388L88.083 103.354L88.067 103.342L88.001 103.291C87.957 103.259 87.9129 103.227 87.8679 103.197C87.8229 103.167 87.7751 103.135 87.7281 103.105C87.6811 103.075 87.628 103.044 87.58 103.014L87.5449 102.993L87.433 102.93C87.387 102.905 87.342 102.881 87.297 102.859L87.268 102.846L87.2429 102.834L87.168 102.799C87.127 102.781 87.086 102.763 87.046 102.747L86.995 102.728L86.97 102.719L86.929 102.703L86.8159 102.666L86.7281 102.642H86.716H86.705C86.668 102.633 86.632 102.625 86.596 102.618C86.56 102.611 86.523 102.605 86.487 102.6H86.464C86.434 102.6 86.405 102.593 86.376 102.591C86.347 102.589 86.298 102.591 86.261 102.591H86.223C86.194 102.591 86.165 102.591 86.137 102.591C86.109 102.591 86.069 102.6 86.037 102.605H86.012H86.001C85.9433 102.616 85.8865 102.632 85.831 102.651H85.8209C85.7499 102.676 85.6813 102.708 85.616 102.745L83.487 103.982C83.5523 103.944 83.621 103.913 83.692 103.888C83.7542 103.866 83.818 103.848 83.883 103.836H83.907C83.9689 103.826 84.0313 103.82 84.094 103.818H84.1179C84.1908 103.817 84.2637 103.821 84.336 103.83H84.349C84.4295 103.84 84.5094 103.856 84.588 103.876H84.6C84.679 103.896 84.759 103.922 84.841 103.952L84.866 103.962C84.946 103.993 85.028 104.028 85.112 104.068L85.138 104.08C85.228 104.124 85.3199 104.172 85.4149 104.227C85.5965 104.332 85.7712 104.449 85.938 104.576L85.953 104.588C86.1157 104.713 86.2699 104.849 86.4149 104.994L86.424 105.002C86.5696 105.149 86.7055 105.305 86.831 105.47L86.841 105.484C86.9701 105.654 87.0883 105.832 87.195 106.017C87.3026 106.203 87.3984 106.396 87.482 106.594V106.594C87.5615 106.787 87.6283 106.985 87.682 107.186V107.196C87.7358 107.396 87.7762 107.599 87.803 107.804V107.809C87.8298 108.019 87.8428 108.231 87.8419 108.443C87.8425 108.6 87.8318 108.756 87.81 108.911C87.81 108.916 87.81 108.921 87.81 108.926C87.7967 108.997 87.7793 109.067 87.758 109.136L86.407 109.922C86.3819 109.936 86.3606 109.956 86.345 109.98V109.987V109.995L86.339 110.008V110.02V110.031C86.339 110.031 86.339 110.038 86.339 110.041C86.3387 110.044 86.3387 110.048 86.339 110.051C86.339 110.051 86.339 110.057 86.339 110.061C86.3388 110.064 86.3388 110.067 86.339 110.07C86.3388 110.073 86.3388 110.076 86.339 110.079V110.079C86.339 110.09 86.339 110.101 86.339 110.113C86.339 110.125 86.339 110.137 86.339 110.149C86.339 110.161 86.339 110.173 86.339 110.185V110.221L86.344 110.258V110.263C86.344 110.273 86.344 110.284 86.349 110.295L86.357 110.334C86.357 110.347 86.363 110.36 86.366 110.373L86.377 110.414L86.3889 110.455C86.3889 110.468 86.397 110.482 86.402 110.495L86.416 110.537L86.432 110.579L86.449 110.621L86.464 110.657V110.662L86.485 110.709L86.511 110.762C86.521 110.784 86.5329 110.806 86.5449 110.828L86.563 110.86L86.576 110.884L86.6031 110.932C86.6241 110.967 86.648 111.004 86.671 111.039C86.694 111.074 86.701 111.088 86.718 111.113L86.729 111.131C86.763 111.18 86.798 111.231 86.836 111.281L86.865 111.319L86.89 111.351L86.932 111.406C86.964 111.447 86.998 111.489 87.032 111.531L87.062 111.566L87.093 111.602L87.151 111.67C87.197 111.723 87.2446 111.776 87.294 111.829L87.305 111.841C87.355 111.895 87.406 111.948 87.458 112.001C87.51 112.054 87.5716 112.115 87.643 112.184C87.701 112.24 87.761 112.295 87.822 112.35L87.8369 112.364L87.852 112.378C87.928 112.445 88.0063 112.511 88.0869 112.578C88.1676 112.645 88.2543 112.715 88.3469 112.79L88.404 112.833L88.4571 112.874C88.5161 112.919 88.574 112.965 88.635 113.009C88.739 113.085 88.8453 113.16 88.954 113.235L89.049 113.298L89.1339 113.354C89.1929 113.393 89.249 113.432 89.31 113.47C89.4433 113.553 89.5767 113.634 89.71 113.715L89.81 113.773L91.6649 112.695L91.659 114.755L91.745 114.786C91.875 114.832 92 114.873 92.124 114.91L92.154 114.92C92.28 114.958 92.4024 114.991 92.521 115.02L92.573 115.032L92.684 115.057C92.741 115.07 92.799 115.084 92.854 115.095C92.909 115.106 92.936 115.108 92.977 115.115L93.086 115.133L93.1599 115.145C93.2539 115.158 93.345 115.167 93.434 115.173H93.444C93.537 115.179 93.627 115.183 93.715 115.182H93.772H93.872C93.909 115.182 93.9469 115.182 93.9829 115.177C94.0189 115.172 94.053 115.167 94.083 115.162C94.113 115.157 94.155 115.153 94.189 115.147L94.244 115.139C94.283 115.131 94.318 115.118 94.356 115.109C94.394 115.1 94.45 115.086 94.494 115.072L94.534 115.061C94.6023 115.037 94.6692 115.008 94.734 114.976C94.769 114.959 94.804 114.94 94.834 114.921L96.963 113.684C96.929 113.704 96.8949 113.722 96.8629 113.739C96.7868 113.783 96.7076 113.822 96.626 113.855V113.855Z" fill="url(#paint22_linear_508_319)"/>
<path id="Path 864" d="M101.297 111.036C101.293 110.903 101.287 110.767 101.278 110.628C101.278 110.617 101.278 110.606 101.278 110.595V110.553C101.271 110.453 101.263 110.344 101.253 110.239C101.241 110.114 101.227 109.99 101.211 109.866C101.211 109.831 101.201 109.796 101.196 109.761L101.186 109.688C101.177 109.627 101.169 109.565 101.16 109.504C101.141 109.385 101.121 109.267 101.099 109.15C101.084 109.072 101.068 108.993 101.051 108.915C101.051 108.897 101.044 108.879 101.04 108.861C101.036 108.843 101.032 108.822 101.028 108.803C101.003 108.689 100.977 108.575 100.949 108.462C100.921 108.349 100.892 108.238 100.862 108.129L100.838 108.044C100.814 107.96 100.789 107.876 100.764 107.793C100.732 107.688 100.699 107.584 100.664 107.48C100.636 107.396 100.607 107.313 100.577 107.23L100.569 107.206L100.561 107.182C100.526 107.087 100.491 106.993 100.454 106.898C100.417 106.803 100.381 106.712 100.344 106.624C100.315 106.555 100.285 106.485 100.255 106.416L100.243 106.388L100.228 106.353C100.188 106.262 100.146 106.17 100.103 106.079C100.06 105.988 100.013 105.892 99.964 105.791C99.937 105.738 99.909 105.685 99.882 105.632L99.848 105.566C99.83 105.531 99.8129 105.496 99.7939 105.466C99.7079 105.303 99.6181 105.142 99.5241 104.981C99.4914 104.925 99.458 104.869 99.424 104.813C99.335 104.664 99.239 104.513 99.139 104.356L99.0389 104.207C98.9899 104.133 98.939 104.06 98.892 103.984L98.843 103.915C98.694 103.697 98.538 103.476 98.369 103.249L98.358 103.233C98.33 103.195 98.2969 103.154 98.2679 103.116C98.1509 102.96 98.0301 102.802 97.9041 102.64L97.8569 102.578C97.8179 102.528 97.773 102.478 97.733 102.425C97.619 102.282 97.502 102.137 97.38 101.99L97.2889 101.878C97.2559 101.839 97.219 101.797 97.189 101.758C97.0343 101.574 96.8746 101.387 96.71 101.198C96.671 101.153 96.637 101.111 96.597 101.066L96.546 101.009C96.346 100.78 96.1359 100.548 95.9189 100.309L95.599 99.952L95.499 99.841L95.324 99.6409L95.199 99.497L95.079 99.358L94.979 99.2399C94.934 99.1869 94.888 99.132 94.851 99.087L93.875 97.94L93.897 90.116L93.923 90.1359L94.1021 90.2819C94.3021 90.4449 94.492 90.6089 94.677 90.7759C94.867 90.9469 95.0491 91.121 95.2271 91.296L95.327 91.3959C95.4957 91.5646 95.6587 91.7354 95.816 91.908L95.886 91.9849C96.0433 92.1603 96.1954 92.3373 96.342 92.5159L96.4 92.588C96.556 92.781 96.706 92.976 96.848 93.173C96.96 93.328 97.061 93.4819 97.162 93.6359C97.241 93.7559 97.3149 93.875 97.3879 93.994C97.4609 94.113 97.5419 94.247 97.6119 94.373L97.656 94.452C97.7607 94.646 97.8574 94.8397 97.946 95.033L97.959 95.061C98.0497 95.261 98.1316 95.461 98.205 95.661V95.671C98.279 95.8743 98.344 96.0773 98.4 96.28V96.293C98.4547 96.493 98.5003 96.693 98.537 96.893V96.9119C98.573 97.1119 98.6 97.3096 98.618 97.505C98.618 97.512 98.618 97.5189 98.618 97.5259C98.635 97.7259 98.644 97.9259 98.644 98.1259C98.644 98.2259 98.6439 98.326 98.6329 98.42C98.6329 98.43 98.6329 98.4389 98.6329 98.4489C98.6259 98.5379 98.616 98.623 98.604 98.706L98.599 98.7399C98.586 98.8189 98.57 98.894 98.552 98.966C98.552 98.979 98.546 98.992 98.542 99.005C98.5237 99.0727 98.502 99.1395 98.4771 99.205L98.4609 99.243C98.4409 99.292 98.419 99.343 98.395 99.383C98.383 99.407 98.3699 99.4299 98.3569 99.4529C98.3439 99.4759 98.3229 99.5059 98.3049 99.5319C98.2718 99.5807 98.2355 99.6272 98.196 99.671C98.18 99.689 98.164 99.7079 98.147 99.7249C98.0909 99.781 98.0293 99.8313 97.963 99.8749L97.92 99.9009L100.049 98.664L100.092 98.638C100.158 98.594 100.22 98.5434 100.276 98.487C100.293 98.47 100.309 98.4509 100.325 98.4329C100.365 98.3892 100.402 98.3428 100.435 98.294C100.444 98.281 100.455 98.272 100.463 98.258C100.471 98.244 100.479 98.2279 100.487 98.2139C100.495 98.1999 100.513 98.168 100.525 98.144C100.537 98.12 100.544 98.111 100.553 98.093C100.562 98.075 100.578 98.034 100.591 98.003C100.596 97.99 100.602 97.978 100.607 97.965L100.614 97.9479C100.631 97.9033 100.646 97.8566 100.66 97.8079C100.66 97.7929 100.668 97.777 100.672 97.762L100.682 97.723C100.682 97.705 100.692 97.687 100.696 97.669C100.706 97.623 100.716 97.576 100.724 97.528C100.724 97.518 100.724 97.507 100.724 97.497L100.729 97.463C100.729 97.436 100.737 97.41 100.741 97.382C100.747 97.332 100.752 97.281 100.757 97.229C100.757 97.222 100.757 97.214 100.757 97.207C100.757 97.2 100.757 97.186 100.757 97.176C100.757 97.14 100.762 97.104 100.764 97.066C100.764 97.01 100.764 96.952 100.764 96.893V96.883C100.764 96.8117 100.764 96.7403 100.764 96.669C100.764 96.596 100.758 96.523 100.754 96.451C100.754 96.396 100.746 96.341 100.741 96.286C100.741 96.279 100.741 96.272 100.741 96.265C100.741 96.258 100.741 96.248 100.741 96.239C100.735 96.17 100.727 96.1009 100.718 96.0319C100.709 95.9629 100.7 95.896 100.689 95.832C100.681 95.78 100.672 95.7319 100.662 95.6769C100.662 95.6699 100.662 95.663 100.662 95.656V95.629C100.649 95.562 100.636 95.494 100.621 95.429C100.606 95.364 100.591 95.295 100.574 95.229C100.557 95.163 100.545 95.117 100.53 95.06V95.046V95.03C100.512 94.964 100.493 94.899 100.473 94.83C100.453 94.761 100.432 94.701 100.411 94.637C100.39 94.573 100.368 94.5119 100.345 94.4489L100.34 94.435V94.424C100.321 94.372 100.301 94.3189 100.281 94.2659C100.261 94.2129 100.234 94.146 100.208 94.085C100.182 94.024 100.157 93.964 100.13 93.904L100.094 93.825L100.081 93.7969L100.045 93.718C100.013 93.6513 99.9796 93.5847 99.945 93.518C99.905 93.438 99.864 93.3583 99.822 93.279L99.79 93.221L99.746 93.142C99.707 93.071 99.6691 93.001 99.6281 92.93C99.5961 92.874 99.556 92.818 99.523 92.763C99.451 92.644 99.376 92.524 99.297 92.404C99.265 92.356 99.2389 92.304 99.2059 92.26C99.1339 92.1533 99.0593 92.0467 98.9819 91.94L98.882 91.8079C98.8 91.6966 98.7157 91.5863 98.629 91.477C98.597 91.436 98.5631 91.3959 98.5291 91.3549L98.471 91.283L98.386 91.1829C98.3033 91.0843 98.2194 90.986 98.134 90.888C98.095 90.844 98.054 90.7999 98.015 90.7559L97.945 90.679C97.915 90.647 97.8869 90.6139 97.8569 90.5789C97.7563 90.4709 97.6536 90.3637 97.549 90.257L97.455 90.165L97.355 90.065C97.303 90.014 97.255 89.965 97.199 89.911C97.0703 89.7883 96.9389 89.6663 96.8049 89.545C96.6603 89.4117 96.5126 89.2827 96.3619 89.158C96.3189 89.122 96.273 89.086 96.23 89.05L96.052 88.905C95.99 88.855 95.9299 88.805 95.8669 88.755C95.7729 88.681 95.675 88.609 95.58 88.536C95.519 88.489 95.459 88.4429 95.397 88.3959L95.32 88.338C95.12 88.1926 94.9174 88.0486 94.712 87.906C94.4927 87.756 94.268 87.6077 94.038 87.461L93.928 87.3909L93.917 84.34L92.032 83.252L89.903 84.489L91.788 85.577V86.2C91.653 86.148 91.5189 86.1 91.3879 86.049L91.297 86.019L91.152 85.972C91.065 85.943 90.977 85.912 90.892 85.887C90.787 85.855 90.685 85.8289 90.583 85.8019L90.483 85.774L90.433 85.76C90.2857 85.7233 90.1416 85.69 90.001 85.66C89.96 85.652 89.922 85.647 89.882 85.64L89.756 85.619C89.701 85.61 89.644 85.599 89.589 85.591C89.4557 85.573 89.3223 85.5593 89.189 85.55H89.1541C89.0331 85.542 88.914 85.537 88.799 85.538C88.748 85.538 88.699 85.543 88.651 85.545L88.519 85.551C88.482 85.551 88.443 85.551 88.407 85.556C88.295 85.566 88.188 85.584 88.082 85.602C88.059 85.602 88.0349 85.607 88.0129 85.612H87.996C87.8358 85.6432 87.6782 85.6856 87.5241 85.739C87.3626 85.7953 87.206 85.8648 87.056 85.947L87.001 85.978L84.872 87.215L84.927 87.184C85.0769 87.1018 85.2335 87.0322 85.395 86.976C85.5555 86.9199 85.7199 86.8757 85.887 86.8439C85.91 86.8439 85.934 86.8379 85.958 86.8339C86.1023 86.8092 86.2479 86.7923 86.394 86.783L86.527 86.7769C86.6936 86.7703 86.8605 86.7719 87.027 86.7819H87.054C87.238 86.7949 87.429 86.82 87.625 86.851L87.751 86.872C87.946 86.907 88.145 86.949 88.351 87.002L88.4511 87.03C88.6351 87.0793 88.8244 87.136 89.019 87.2L89.165 87.248C89.4 87.329 89.641 87.418 89.889 87.519L91.7889 86.419L91.797 88.619C92.0637 88.787 92.3237 88.9573 92.577 89.13L92.5859 89.1359C92.7949 89.2789 92.995 89.425 93.194 89.571L91.773 90.397L91.7579 95.762C91.7049 95.7 91.65 95.637 91.599 95.576L91.447 95.392C91.3624 95.2887 91.2793 95.1864 91.198 95.085L91.048 94.894C90.97 94.794 90.894 94.6939 90.82 94.5939L90.692 94.424C90.556 94.238 90.424 94.055 90.302 93.874C90.264 93.818 90.229 93.764 90.192 93.708C90.135 93.621 90.076 93.5339 90.022 93.4479C89.984 93.3879 89.949 93.3299 89.913 93.2709C89.863 93.1889 89.813 93.108 89.765 93.028C89.696 92.909 89.6279 92.791 89.5649 92.675C89.5019 92.559 89.432 92.4239 89.372 92.3019L89.3521 92.2609C89.2961 92.1463 89.2436 92.0337 89.195 91.923L89.184 91.897C89.136 91.7864 89.0914 91.677 89.0501 91.569L89.037 91.536C88.997 91.429 88.961 91.324 88.928 91.221L88.92 91.197C88.886 91.0883 88.8563 90.982 88.8309 90.878V90.864C88.8063 90.7626 88.7857 90.6627 88.769 90.564V90.5419C88.753 90.4419 88.7399 90.347 88.7319 90.253V90.2349C88.7239 90.1349 88.72 90.044 88.72 89.952C88.72 89.86 88.72 89.7459 88.733 89.6519C88.7328 89.6486 88.7328 89.6454 88.733 89.642C88.741 89.5494 88.7526 89.4606 88.7679 89.3759C88.7679 89.3699 88.7679 89.363 88.7679 89.357C88.7824 89.2774 88.8012 89.1987 88.824 89.121C88.824 89.115 88.824 89.109 88.83 89.103C88.8497 89.0391 88.8728 88.9764 88.8991 88.915C88.9051 88.902 88.91 88.8879 88.916 88.8749C88.9453 88.8125 88.9787 88.7521 89.016 88.694L89.021 88.685C89.0733 88.6054 89.1337 88.5313 89.2011 88.4639L89.2531 88.414C89.3232 88.3482 89.4003 88.2902 89.483 88.241L87.354 89.478C87.2713 89.5272 87.1942 89.5851 87.124 89.6509L87.072 89.701C87.0045 89.7685 86.9441 89.843 86.892 89.923L86.886 89.934C86.8544 89.984 86.8257 90.0357 86.8001 90.0889C86.8001 90.0969 86.793 90.105 86.79 90.113L86.773 90.154C86.762 90.18 86.75 90.206 86.74 90.233C86.73 90.26 86.715 90.304 86.704 90.341L86.698 90.3599V90.369C86.686 90.411 86.6746 90.4543 86.6639 90.499C86.6569 90.53 86.651 90.5629 86.644 90.5989C86.644 90.6049 86.644 90.611 86.644 90.618V90.632C86.6367 90.6754 86.63 90.7193 86.624 90.764C86.624 90.804 86.6149 90.844 86.6119 90.885C86.6119 90.885 86.6119 90.89 86.6119 90.893V90.899C86.6079 90.945 86.605 90.992 86.603 91.04C86.603 91.088 86.603 91.14 86.603 91.187V91.196C86.603 91.23 86.603 91.264 86.603 91.296C86.603 91.328 86.603 91.369 86.608 91.405C86.613 91.441 86.608 91.453 86.614 91.477V91.493C86.614 91.501 86.614 91.5089 86.614 91.5159C86.614 91.5539 86.622 91.591 86.627 91.63C86.632 91.669 86.637 91.708 86.644 91.747C86.644 91.759 86.644 91.771 86.65 91.783V91.804C86.65 91.825 86.657 91.847 86.661 91.868C86.669 91.91 86.677 91.9519 86.687 91.9949C86.697 92.0379 86.703 92.067 86.712 92.103V92.1149V92.127C86.7234 92.173 86.7354 92.219 86.7481 92.265C86.7607 92.311 86.7747 92.3587 86.79 92.408L86.798 92.434L86.806 92.458C86.816 92.49 86.826 92.5219 86.837 92.5579C86.8537 92.6079 86.8714 92.658 86.89 92.708C86.898 92.731 86.907 92.7529 86.915 92.7759L86.927 92.809L86.947 92.862C86.968 92.914 86.989 92.9669 87.011 93.0209C87.033 93.0749 87.044 93.099 87.061 93.138L87.072 93.163L87.082 93.1879C87.1087 93.2479 87.1359 93.3083 87.1639 93.369C87.1839 93.412 87.206 93.4569 87.228 93.5009L87.249 93.544L87.264 93.575C87.307 93.66 87.351 93.747 87.398 93.835L87.442 93.9169C87.4974 94.0189 87.5553 94.122 87.616 94.226L87.6429 94.27C87.6899 94.35 87.743 94.432 87.791 94.514C87.827 94.573 87.862 94.631 87.9 94.69C87.955 94.776 88.013 94.864 88.071 94.952C88.103 95.001 88.133 95.052 88.171 95.098L88.184 95.116C88.307 95.297 88.438 95.48 88.575 95.666L88.614 95.721C88.642 95.759 88.674 95.798 88.702 95.836C88.776 95.9347 88.8519 96.0346 88.9299 96.1359L89.0031 96.236L89.08 96.331C89.1613 96.433 89.2446 96.536 89.33 96.64L89.4299 96.76L89.484 96.8229C89.6027 96.9649 89.7254 97.1083 89.8521 97.253L89.923 97.336L89.9559 97.373L91.772 96.3179L91.764 99.1879L92.741 100.335L92.802 100.408L92.869 100.487L92.969 100.605L93.089 100.744L93.214 100.888L93.254 100.934L93.389 101.087L93.489 101.198L93.809 101.555C94.027 101.793 94.235 102.026 94.437 102.255C94.491 102.317 94.542 102.377 94.596 102.438C94.7626 102.629 94.9243 102.818 95.0809 103.004L95.271 103.232C95.393 103.38 95.511 103.525 95.626 103.669C95.683 103.741 95.742 103.813 95.797 103.883C95.924 104.045 96.045 104.205 96.163 104.362C96.195 104.405 96.2299 104.449 96.2629 104.492C96.4309 104.72 96.5879 104.941 96.7369 105.159C96.8036 105.257 96.8703 105.354 96.937 105.451C96.97 105.501 97.004 105.551 97.037 105.602C97.137 105.757 97.237 105.909 97.322 106.059C97.4727 106.31 97.614 106.563 97.746 106.818L97.78 106.884C97.9087 107.134 98.029 107.386 98.141 107.641L98.152 107.667C98.266 107.929 98.371 108.193 98.467 108.459L98.475 108.481C98.5716 108.748 98.6589 109.019 98.7369 109.296C98.8149 109.573 98.8817 109.845 98.937 110.114L98.948 110.168C99.0013 110.425 99.0463 110.682 99.083 110.941L99.093 111.015C99.1284 111.278 99.1553 111.542 99.174 111.807V111.849C99.192 112.13 99.2021 112.413 99.2011 112.696C99.2001 112.979 99.1889 113.253 99.1689 113.514C99.1689 113.529 99.1689 113.545 99.1689 113.56C99.1489 113.815 99.1189 114.06 99.0809 114.291C99.0809 114.305 99.081 114.32 99.075 114.334C99.037 114.558 98.989 114.77 98.934 114.973C98.928 114.996 98.922 115.02 98.916 115.042C98.8643 115.224 98.8028 115.403 98.7319 115.578C98.7153 115.621 98.6979 115.662 98.6799 115.703C98.6229 115.833 98.56 115.955 98.494 116.073C98.467 116.122 98.441 116.173 98.412 116.222C98.3242 116.366 98.2263 116.504 98.119 116.634C98.096 116.661 98.071 116.685 98.048 116.712C97.9586 116.813 97.8631 116.908 97.762 116.997C97.727 117.027 97.693 117.058 97.662 117.086C97.5343 117.191 97.3985 117.286 97.256 117.37L99.385 116.133C99.5275 116.049 99.6633 115.954 99.791 115.849C99.827 115.82 99.861 115.79 99.891 115.76C99.9922 115.671 100.088 115.576 100.177 115.475C100.201 115.449 100.225 115.424 100.248 115.397C100.345 115.282 100.434 115.16 100.515 115.033C100.525 115.018 100.532 115 100.542 114.985C100.571 114.938 100.597 114.885 100.624 114.836C100.667 114.758 100.714 114.684 100.753 114.601C100.774 114.558 100.791 114.51 100.81 114.465C100.829 114.42 100.846 114.382 100.863 114.34C100.88 114.298 100.898 114.261 100.914 114.219C100.957 114.102 100.998 113.98 101.035 113.854C101.035 113.838 101.043 113.821 101.048 113.805C101.053 113.789 101.06 113.758 101.066 113.736C101.088 113.656 101.11 113.576 101.129 113.493C101.156 113.374 101.181 113.251 101.202 113.125C101.202 113.116 101.202 113.107 101.202 113.098C101.202 113.089 101.202 113.068 101.208 113.054C101.224 112.954 101.24 112.854 101.254 112.747C101.27 112.618 101.284 112.485 101.295 112.347C101.295 112.338 101.295 112.329 101.295 112.319C101.295 112.309 101.295 112.288 101.295 112.274C101.303 112.161 101.311 112.046 101.316 111.929C101.322 111.784 101.325 111.635 101.326 111.483C101.326 111.474 101.326 111.465 101.326 111.456C101.311 111.311 101.301 111.171 101.297 111.036Z" fill="url(#paint23_linear_508_319)"/>
</g>
<g id="Group 518">
<path id="Path 865" d="M98.703 109.28C99.0189 110.385 99.1771 111.53 99.173 112.68C99.1663 115.051 98.5153 116.61 97.22 117.356C95.9247 118.102 94.0804 117.979 91.687 116.988L91.669 123.374L89.7841 122.286L89.802 115.9C87.7807 114.545 86.0065 112.854 84.5561 110.9C83.4299 109.468 82.7814 107.72 82.7021 105.9C82.6528 105.545 82.6969 105.183 82.83 104.85C82.9631 104.516 83.1806 104.224 83.4611 104C83.776 103.855 84.1249 103.799 84.4693 103.84C84.8137 103.881 85.14 104.017 85.412 104.232C86.1502 104.662 86.7633 105.278 87.1906 106.018C87.6178 106.758 87.8445 107.596 87.848 108.451C87.8561 108.744 87.8124 109.037 87.719 109.315C87.6504 109.524 87.5083 109.702 87.319 109.815C87.1277 109.887 86.9218 109.911 86.719 109.886C86.451 109.871 86.319 109.94 86.319 110.092C86.4268 110.779 86.7753 111.404 87.302 111.858C88.0366 112.625 88.8811 113.278 89.808 113.796L89.8371 103.579L88.5 102.079C86.8851 100.391 85.5163 98.4841 84.434 96.414C83.6064 94.8041 83.1644 93.024 83.143 91.214C83.149 89.1754 83.7397 87.8314 84.9151 87.182C86.0904 86.5327 87.746 86.645 89.882 87.519L89.891 84.479L91.776 85.5669L91.787 88.618C93.7502 89.797 95.4673 91.344 96.844 93.174C97.9609 94.5883 98.5946 96.3237 98.652 98.125C98.6951 98.4511 98.6549 98.7826 98.5353 99.0889C98.4157 99.3952 98.2206 99.6664 97.968 99.877C97.686 100.017 97.3697 100.075 97.0563 100.041C96.7429 100.008 96.4455 99.8863 96.199 99.69C95.4286 99.2538 94.7738 98.6397 94.2891 97.899C93.8386 97.2442 93.5918 96.4707 93.58 95.6759C93.5665 95.4209 93.613 95.1663 93.7158 94.9325C93.8187 94.6987 93.9749 94.4924 94.172 94.33C94.572 94.016 94.764 93.762 94.765 93.565C94.7079 93.0189 94.4601 92.5104 94.0651 92.1289C93.5348 91.5391 92.9103 91.0414 92.2171 90.656L91.765 90.3949L91.74 99.175L92.7161 100.322C92.9334 100.589 93.289 100.996 93.783 101.544C95.0962 102.925 96.2707 104.433 97.2891 106.044C97.9012 107.055 98.3766 108.144 98.703 109.28V109.28ZM94.74 114.997C95.118 114.763 95.4195 114.425 95.6074 114.022C95.7954 113.619 95.8616 113.171 95.798 112.731C95.7399 111.56 95.3811 110.423 94.756 109.431C93.8999 107.998 92.8679 106.678 91.684 105.501L91.658 114.781C92.6172 115.254 93.7235 115.333 94.74 115V114.997ZM89.9301 97.359L89.9521 89.559C89.1619 89.1958 88.2634 89.1461 87.438 89.42C87.1344 89.5961 86.8901 89.8585 86.7359 90.1739C86.5817 90.4892 86.5246 90.8432 86.572 91.1909C86.6295 92.1544 86.9224 93.0891 87.4251 93.913C88.1292 95.1504 88.9676 96.3064 89.9251 97.36" fill="url(#paint24_linear_508_319)"/>
</g>
</g>
</g>
</g>
<g id="rotate">
<path id="Path 866" d="M167.884 119.784L165.59 123.634C165.317 123.38 164.971 123.218 164.601 123.169C164.231 123.12 163.855 123.188 163.525 123.362L154.891 127.908C154.751 127.983 154.621 128.075 154.505 128.184L157.032 124.931C157.198 124.698 157.416 124.506 157.668 124.371L166.302 119.825C166.545 119.698 166.814 119.628 167.088 119.621C167.362 119.614 167.635 119.669 167.884 119.784Z" fill="url(#paint25_linear_508_319)"/>
<path id="Path 867" d="M211.742 140.279H211.755L211.721 140.321C211.607 140.521 211.463 140.703 211.293 140.86L208.982 143.795C209.164 143.451 209.251 143.065 209.233 142.677C209.216 142.288 209.094 141.912 208.882 141.586L201.402 130.111C201.211 129.819 200.963 129.568 200.672 129.374C200.382 129.181 200.055 129.048 199.712 128.984C199.369 128.92 199.016 128.927 198.676 129.003C198.335 129.079 198.013 129.224 197.73 129.428L178.723 143.109C178.559 143.228 178.373 143.312 178.175 143.357C177.978 143.401 177.773 143.405 177.574 143.368L179.805 139.623C180.06 139.786 180.359 139.87 180.661 139.862C180.964 139.855 181.258 139.757 181.505 139.581L200.512 125.896C200.795 125.692 201.117 125.548 201.457 125.472C201.798 125.396 202.15 125.39 202.493 125.454C202.836 125.518 203.163 125.651 203.452 125.845C203.742 126.04 203.99 126.29 204.18 126.583L211.661 138.054C211.873 138.383 211.993 138.764 212.007 139.155C212.022 139.547 211.93 139.935 211.742 140.279Z" fill="url(#paint26_linear_508_319)"/>
<g id="Group 523">
<g id="Group 522">
<path id="Path 868" d="M208.983 143.795C208.801 144.14 208.531 144.43 208.199 144.635L176.69 164.13C176.44 164.285 176.16 164.389 175.869 164.435C175.578 164.481 175.281 164.468 174.995 164.398C174.708 164.328 174.439 164.201 174.202 164.026C173.965 163.85 173.766 163.629 173.616 163.375L154.155 130.526C153.99 130.249 153.9 129.933 153.893 129.61C153.886 129.288 153.963 128.969 154.117 128.685C154.216 128.496 154.348 128.327 154.507 128.185C154.623 128.077 154.753 127.984 154.893 127.909L163.527 123.363C163.941 123.144 164.425 123.094 164.875 123.225C165.325 123.356 165.707 123.656 165.94 124.063L176.525 142.625C176.63 142.81 176.772 142.97 176.944 143.096C177.115 143.222 177.31 143.311 177.518 143.356C177.726 143.401 177.94 143.402 178.148 143.359C178.356 143.315 178.553 143.229 178.725 143.104L197.732 129.423C198.015 129.219 198.337 129.074 198.678 128.998C199.018 128.922 199.371 128.915 199.714 128.979C200.058 129.043 200.384 129.176 200.675 129.369C200.965 129.563 201.213 129.814 201.404 130.106L208.885 141.581C209.098 141.907 209.22 142.285 209.237 142.675C209.254 143.064 209.166 143.451 208.983 143.795V143.795Z" fill="url(#paint27_linear_508_319)"/>
</g>
</g>
<path id="Path 869" d="M179.801 139.622L177.57 143.367C177.352 143.328 177.145 143.242 176.964 143.115C176.783 142.987 176.633 142.821 176.523 142.629L165.938 124.067C165.847 123.904 165.73 123.758 165.59 123.635L167.884 119.785C168.235 119.939 168.526 120.202 168.715 120.535L179.3 139.101C179.422 139.313 179.594 139.492 179.801 139.622V139.622Z" fill="url(#paint28_linear_508_319)"/>
<path id="Path 870" d="M154.017 129.1C154.116 128.911 154.248 128.742 154.407 128.6C154.523 128.492 154.653 128.399 154.793 128.324L163.427 123.778C163.841 123.559 164.325 123.509 164.775 123.64C165.225 123.771 165.607 124.071 165.84 124.478L176.425 143.04C176.53 143.225 176.673 143.385 176.844 143.511C177.015 143.637 177.21 143.726 177.418 143.771C177.626 143.816 177.84 143.817 178.048 143.774C178.256 143.73 178.453 143.644 178.625 143.519L197.632 129.838C197.915 129.634 198.237 129.489 198.578 129.413C198.918 129.337 199.271 129.33 199.614 129.394C199.957 129.458 200.284 129.591 200.575 129.784C200.865 129.978 201.113 130.229 201.304 130.521L208.784 141.997C209.07 142.435 209.188 142.961 209.115 143.479C209.224 143.166 209.26 142.831 209.219 142.502C209.179 142.172 209.063 141.857 208.881 141.579L201.401 130.104C201.21 129.812 200.962 129.561 200.672 129.367C200.381 129.173 200.054 129.04 199.711 128.976C199.367 128.913 199.015 128.919 198.674 128.995C198.333 129.072 198.011 129.217 197.728 129.421L178.719 143.111C178.547 143.235 178.35 143.322 178.142 143.366C177.934 143.409 177.72 143.408 177.512 143.363C177.304 143.318 177.109 143.229 176.938 143.103C176.767 142.977 176.624 142.817 176.519 142.632L165.934 124.07C165.701 123.663 165.319 123.363 164.869 123.232C164.419 123.101 163.935 123.151 163.521 123.37L154.887 127.916C154.747 127.991 154.617 128.084 154.501 128.192C154.342 128.334 154.21 128.503 154.111 128.692C153.997 128.904 153.926 129.135 153.899 129.374C153.931 129.28 153.97 129.188 154.017 129.1Z" fill="url(#paint29_linear_508_319)"/>
</g>
<g id="Group 527">
<path id="Path 871" d="M55.222 175.566L55.182 175.946L6.672 147.638C4.73884 147.045 3.04711 145.847 1.84595 144.221C0.6448 142.594 -0.00228045 140.625 6.03874e-06 138.603V134.748L16.8 144.422L17.059 144.572L48.421 162.636V166.491C48.4182 168.536 49.0799 170.527 50.3065 172.164C51.5331 173.801 53.2581 174.995 55.222 175.566V175.566Z" fill="url(#paint30_linear_508_319)"/>
<path id="Path 872" d="M79.923 83.848C79.3604 83.5956 78.7484 83.4729 78.132 83.4888C77.5157 83.5047 76.9108 83.6589 76.362 83.94C74.351 84.956 72.6198 86.4497 71.32 88.29H71.314L71.279 88.296L71.302 88.313C71.129 88.555 70.968 88.803 70.812 89.051C69.4713 91.2353 68.7614 93.7481 68.761 96.311V164.227C68.7609 166.516 68.1018 168.757 66.8625 170.682C65.6232 172.607 63.856 174.134 61.772 175.082C60.3341 175.741 58.7535 176.027 57.1759 175.915C55.5983 175.803 54.0743 175.295 52.7441 174.44C51.4139 173.584 50.3203 172.408 49.564 171.019C48.8076 169.63 48.4128 168.073 48.416 166.491V162.636L17.054 144.572C17.146 144.472 17.238 144.372 17.325 144.272C17.7416 143.81 18.1192 143.315 18.454 142.791C19.6948 140.867 20.3545 138.627 20.354 136.338V68.422C20.3542 65.8591 21.0644 63.3464 22.406 61.1626C23.7475 58.9789 25.6679 57.2096 27.954 56.051C28.5319 55.7553 29.1718 55.6011 29.821 55.601C30.0647 55.6005 30.3078 55.6237 30.547 55.67H30.559L32.979 57.053L79.923 83.848Z" fill="url(#paint31_linear_508_319)"/>
<path id="Path 873" d="M82.384 87.644V94.691L71.304 88.312C71.304 88.307 71.3099 88.3 71.3149 88.289H71.321C72.6208 86.4487 74.352 84.9551 76.363 83.939C76.9118 83.6581 77.5167 83.5039 78.1331 83.488C78.7494 83.4721 79.3614 83.5947 79.924 83.847L80.575 84.221C81.1138 84.592 81.5589 85.0832 81.875 85.656C82.2121 86.2641 82.3874 86.9487 82.384 87.644V87.644Z" fill="url(#paint32_linear_508_319)"/>
<path id="Path 874" d="M80.575 84.2249L79.924 83.851C80.1521 83.9553 80.37 84.0804 80.575 84.2249V84.2249Z" fill="url(#paint33_linear_508_319)"/>
<g id="Group 525">
<path id="Path 875" d="M46.787 84.993L26.759 73.681C26.487 73.5211 26.2567 73.2991 26.0869 73.0332C25.9171 72.7673 25.8126 72.465 25.782 72.151C25.782 71.613 26.222 71.422 26.759 71.725L46.787 83.037C47.0591 83.1968 47.2897 83.4186 47.4596 83.6846C47.6296 83.9505 47.7343 84.2529 47.765 84.567C47.761 85.106 47.321 85.293 46.787 84.993Z" fill="url(#paint34_linear_508_319)"/>
<path id="Path 876" d="M59.233 96.824L26.755 78.387C26.483 78.2271 26.2527 78.0051 26.0829 77.7392C25.9131 77.4733 25.8086 77.171 25.778 76.857C25.778 76.319 26.218 76.1281 26.755 76.4321L59.233 94.8689C59.5051 95.0287 59.7356 95.2507 59.9056 95.5166C60.0756 95.7826 60.1803 96.0849 60.211 96.399C60.211 96.936 59.771 97.128 59.233 96.824Z" fill="#BCBDC1"/>
<path id="Path 877" d="M59.233 101.528L26.755 83.091C26.483 82.9311 26.2527 82.7091 26.0829 82.4432C25.9131 82.1773 25.8086 81.875 25.778 81.561C25.778 81.023 26.218 80.8319 26.755 81.1359L59.233 99.5729C59.5051 99.7327 59.7356 99.9546 59.9056 100.221C60.0756 100.486 60.1803 100.789 60.211 101.103C60.211 101.64 59.771 101.832 59.233 101.528Z" fill="#BCBDC1"/>
<path id="Path 878" d="M59.233 106.233L26.755 87.796C26.483 87.6361 26.2527 87.4142 26.0829 87.1483C25.9131 86.8823 25.8086 86.5801 25.778 86.2661C25.778 85.7281 26.218 85.537 26.755 85.84L59.233 104.277C59.5051 104.437 59.7356 104.659 59.9056 104.925C60.0756 105.191 60.1803 105.493 60.211 105.807V105.807C60.211 106.345 59.771 106.537 59.233 106.233Z" fill="#BCBDC1"/>
<path id="Path 879" d="M42.452 101.458L26.752 92.5C26.48 92.3401 26.2497 92.1182 26.0799 91.8523C25.9101 91.5864 25.8056 91.284 25.775 90.9699C25.775 90.4319 26.215 90.241 26.752 90.545L42.452 99.503C42.7242 99.6628 42.9546 99.8847 43.1246 100.151C43.2946 100.417 43.3992 100.719 43.43 101.033V101.033C43.429 101.571 42.987 101.762 42.452 101.458Z" fill="#BCBDC1"/>
</g>
<g id="Group 526">
<path id="Path 880" d="M46.788 118.049L26.76 106.737C26.488 106.577 26.2577 106.355 26.0879 106.089C25.9181 105.823 25.8136 105.521 25.783 105.207C25.783 104.669 26.223 104.478 26.76 104.782L46.788 116.094C47.0602 116.254 47.2907 116.476 47.4606 116.742C47.6306 117.007 47.7353 117.31 47.766 117.624V117.624C47.762 118.165 47.322 118.353 46.788 118.049Z" fill="url(#paint35_linear_508_319)"/>
<path id="Path 881" d="M59.234 129.878L26.756 111.441C26.484 111.281 26.2537 111.059 26.0839 110.793C25.9141 110.527 25.8096 110.225 25.779 109.911V109.911C25.779 109.373 26.219 109.182 26.756 109.486L59.234 127.923C59.5061 128.083 59.7367 128.305 59.9066 128.571C60.0766 128.836 60.1813 129.139 60.212 129.453V129.453C60.212 129.99 59.772 130.182 59.234 129.878Z" fill="#BCBDC1"/>
<path id="Path 882" d="M59.234 134.582L26.756 116.145C26.484 115.985 26.2537 115.763 26.0839 115.497C25.9141 115.231 25.8096 114.929 25.779 114.615V114.615C25.779 114.077 26.219 113.886 26.756 114.19L59.234 132.627C59.5061 132.787 59.7367 133.009 59.9066 133.275C60.0766 133.541 60.1813 133.843 60.212 134.157V134.157C60.212 134.694 59.772 134.885 59.234 134.582Z" fill="#BCBDC1"/>
<path id="Path 883" d="M59.234 139.287L26.756 120.85C26.484 120.69 26.2537 120.468 26.0839 120.202C25.9141 119.936 25.8096 119.634 25.779 119.32V119.32C25.779 118.782 26.219 118.591 26.756 118.895L59.234 137.332C59.5061 137.492 59.7367 137.714 59.9066 137.98C60.0766 138.246 60.1813 138.548 60.212 138.862V138.862C60.212 139.399 59.772 139.594 59.234 139.287Z" fill="#BCBDC1"/>
<path id="Path 884" d="M42.453 134.512L26.753 125.554C26.481 125.394 26.2507 125.172 26.0809 124.906C25.9111 124.64 25.8066 124.338 25.776 124.024C25.776 123.486 26.216 123.295 26.753 123.599L42.453 132.557C42.7252 132.717 42.9556 132.939 43.1256 133.205C43.2956 133.471 43.4002 133.773 43.431 134.087C43.43 134.624 42.988 134.816 42.453 134.512Z" fill="#BCBDC1"/>
<path id="Path 885" d="M59.084 156.1L46.646 149C46.4305 148.873 46.248 148.697 46.1133 148.487C45.9786 148.276 45.8956 148.037 45.871 147.788V147.788C45.871 147.362 46.22 147.21 46.646 147.451L59.084 154.551C59.2993 154.678 59.4816 154.854 59.6161 155.064C59.7506 155.275 59.8335 155.514 59.858 155.763V155.763C59.862 156.189 59.514 156.341 59.084 156.1Z" fill="#BCBDC1"/>
<path id="Path 886" d="M38.55 145.526L26.113 138.426C25.8975 138.299 25.715 138.123 25.5803 137.913C25.4456 137.702 25.3626 137.463 25.338 137.214V137.214C25.338 136.788 25.687 136.636 26.113 136.877L38.551 143.977C38.7664 144.104 38.9489 144.28 39.0836 144.49C39.2183 144.701 39.3013 144.94 39.326 145.189C39.326 145.615 38.977 145.767 38.55 145.526Z" fill="#BCBDC1"/>
</g>
</g>
<g id="Group 531">
<path id="Path 887" d="M47.117 50.872C47.117 50.872 28.761 52.404 27.217 54.951C25.673 57.498 30.3661 63.796 32.7791 68.822C34.3089 71.9744 36.0666 75.0111 38.038 77.908C38.038 77.908 38.595 78.308 39.908 76.847C40.7203 75.931 41.3859 74.8947 41.881 73.775L36.781 60.52L60.663 57.245C60.663 57.245 50.798 55.102 47.117 50.872Z" fill="url(#paint36_linear_508_319)"/>
<path id="Path 888" d="M38.5341 77.907C38.3456 79.5306 37.6704 81.0592 36.597 82.292C34.775 84.444 34.4061 85.144 35.9921 86.029C37.5781 86.914 39.338 86.361 41.139 83.411C42.94 80.461 46.257 78.757 45.66 76.936C45.063 75.115 41.7321 74.1059 41.7321 74.1059C40.8869 75.5434 39.8058 76.8284 38.5341 77.907V77.907Z" fill="#3E3E3E"/>
<path id="Path 889" d="M63.9 54.846C63.9 54.846 67.4001 60.1609 60.3001 63.7649C53.2001 67.3689 45.1201 71.138 45.1201 71.138C45.1201 71.138 46.62 73.997 46.387 80.028C46.154 86.059 46.301 90.679 46.301 90.679C46.301 90.679 46.962 92.216 43.919 92.2C40.876 92.184 40.7531 91.585 40.7531 91.585C40.7531 91.585 39.453 77.485 38.4 73.259C37.347 69.033 36.237 65.35 38.035 62.627C39.833 59.904 51.578 54.495 51.578 54.495C51.578 54.495 59.073 57.375 63.9 54.846Z" fill="url(#paint37_linear_508_319)"/>
<g id="Group 530">
<path id="Path 890" d="M52.039 25.141C52.039 25.141 48.039 28.575 46.72 32.262C45.401 35.949 44.635 41.685 43.898 42.662C43.161 43.639 38.9981 45.907 38.9981 45.907C38.9981 45.907 40.898 46.276 41.21 47.487C41.3947 48.0104 41.4666 48.5669 41.421 49.12C41.421 49.12 46.636 46.539 47.421 44.906C48.206 43.273 50.621 39.006 50.621 39.006L52.039 25.141Z" fill="url(#paint38_linear_508_319)"/>
<path id="Path 891" d="M52.039 25.141C51.0892 26.0701 50.2294 27.087 49.471 28.178C48.556 29.61 46.835 32.447 47.116 33.264C47.397 34.081 48.457 35.524 48.528 35.946C48.599 36.368 47.903 51.665 47.903 51.665C47.903 51.665 49.55 54.77 55.603 55.724C61.735 56.69 64.803 55.297 64.803 55.297C63.5952 52.3274 63.3572 49.052 64.123 45.939C65.461 41.012 67.134 33.988 65.797 32.13C64.46 30.272 54.151 24.191 52.039 25.141Z" fill="url(#paint39_linear_508_319)"/>
<g id="Group 528">
<path id="Path 892" d="M53.146 14.21C53.146 14.21 47.728 15.533 49.865 21.767C50.433 23.426 48.473 24.393 49.35 26.103C50.227 27.813 55.95 28.219 55.959 28.167C55.968 28.115 57.116 17.054 57.116 17.054L53.146 14.21Z" fill="#3E3E3E"/>
<path id="Path 893" d="M52.909 16.013C52.909 16.013 51.1281 16.648 51.2551 21.361C51.3371 24.442 52.455 25.6 53.055 26.072C53.4746 26.3693 53.968 26.5451 54.481 26.58L54.228 28.399C54.228 28.399 53.975 29.748 56.344 30.288C58.713 30.828 60.3981 28.288 60.3981 28.288C60.1567 27.0214 60.1533 25.7209 60.3881 24.453C60.7961 22.577 61.222 17.835 59.317 16.77C57.412 15.705 52.909 16.013 52.909 16.013Z" fill="#FFBDBD"/>
<path id="Path 894" d="M54.478 26.579C55.2934 26.6073 56.0974 26.3808 56.778 25.931C57.557 25.238 57.791 25.055 57.791 25.055C57.4584 25.7295 57.0266 26.3504 56.51 26.897C55.642 27.821 55.868 30.158 55.868 30.158C55.868 30.158 54.087 29.809 54.222 28.689L54.478 26.579Z" fill="#EAA2A2"/>
<path id="Path 895" d="M51.842 17.259C51.842 17.259 51.902 18.913 54.535 19.891C57.119 20.852 58.174 21.203 58.174 21.203C58.174 21.203 58.515 19.95 59.174 20.53C60.15 21.39 57.868 24.048 58.502 25.666C59.136 27.284 59.331 28.466 62.83 30.001C66.329 31.536 66.93 35.767 66.93 35.767C66.93 35.767 71.236 36.24 72.463 33.64C73.732 30.95 72.39 28.227 68.424 27.177C64.458 26.127 63.332 24.586 63.843 21.977C64.471 18.77 63.759 14.671 59.132 13.116C54.505 11.561 51.776 14.781 51.842 17.259Z" fill="#3E3E3E"/>
</g>
<g id="Group 529">
<path id="Path 896" d="M29.578 36.661L47.96 47.153V62.941L29.578 52.449L28.848 37.019L29.578 36.661Z" fill="#C6C6C6"/>
<path id="Path 897" d="M28.849 37.014L47.231 47.506V63.294L28.849 52.802V37.014Z" fill="#EFEFEF"/>
<path id="Path 898" d="M47.231 63.295L58.643 55.687L47.231 49.002V63.295Z" fill="#B2B1B1"/>
<path id="Path 899" d="M58.647 55.687V56.482L47.235 63.295V47.507L47.965 47.149V62.215L58.647 55.687Z" fill="#C6C6C6"/>
<path id="Path 900" d="M47.961 53.625L52.466 56.386L47.961 58.996V53.625Z" fill="#827F7F"/>
</g>
<g id="translate_1">
<path id="Path 901" d="M65.791 32.5909C64.643 32.2009 62.596 33.4779 62.491 37.3229C62.386 41.1679 62.491 46.4089 62.491 46.4089L53.691 52.124C53.691 52.124 55.535 52.282 56.114 53.546C56.3948 54.1074 56.6241 54.6931 56.799 55.296C56.799 55.296 66.965 49.648 67.334 48.226C67.703 46.804 68.143 33.3889 65.791 32.5909Z" fill="url(#paint40_linear_508_319)"/>
<path id="Path 902" d="M54.466 52.287C54.466 52.287 52.408 53.321 51.044 54.213C50.0306 54.9878 49.3391 56.1096 49.102 57.363C49.7011 58.0055 50.4481 58.4919 51.278 58.78C51.778 58.78 53.091 56.89 54.141 56.26C54.9798 55.6887 55.7513 55.0245 56.441 54.28C56.441 54.28 56.571 52.67 54.466 52.287Z" fill="#FFBDBD"/>
</g>
</g>
<path id="Path 903" d="M46.274 91.41C46.274 91.41 47.461 93.736 46.981 94.363C46.501 94.99 41.9451 97.463 40.7571 98.899C40.1386 99.5294 39.3065 99.9056 38.4247 99.9533C37.5428 100.001 36.675 99.717 35.992 99.157C34.738 98.125 34.826 97.239 37.087 95.433C38.4729 94.3167 39.7068 93.0236 40.7571 91.587C40.7571 91.587 43.904 92.987 46.274 91.41Z" fill="#3E3E3E"/>
</g>
</g>
</g>
<defs>
<linearGradient id="paint0_linear_508_319" x1="153.103" y1="165.559" x2="153.103" y2="193.865" gradientUnits="userSpaceOnUse">
<stop stop-color="#09C957"/>
<stop offset="1" stop-color="#42D17C"/>
</linearGradient>
<linearGradient id="paint1_linear_508_319" x1="151.047" y1="189.255" x2="177.936" y2="189.255" gradientUnits="userSpaceOnUse">
<stop stop-color="#09C957"/>
<stop offset="1" stop-color="#045224"/>
</linearGradient>
<linearGradient id="paint2_linear_508_319" x1="139.656" y1="180.917" x2="139.656" y2="200" gradientUnits="userSpaceOnUse">
<stop stop-color="#09C957"/>
<stop offset="1" stop-color="#045224"/>
</linearGradient>
<linearGradient id="paint3_linear_508_319" x1="77.226" y1="-5.72205e-05" x2="77.226" y2="53.613" gradientUnits="userSpaceOnUse">
<stop stop-color="#09C957"/>
<stop offset="1" stop-color="#045224"/>
</linearGradient>
<linearGradient id="paint4_linear_508_319" x1="83.5802" y1="4.92169" x2="61.3604" y2="25.9737" gradientUnits="userSpaceOnUse">
<stop stop-color="#DADBDF"/>
<stop offset="1" stop-color="white"/>
</linearGradient>
<linearGradient id="paint5_linear_508_319" x1="110.136" y1="75.103" x2="185.687" y2="75.103" gradientUnits="userSpaceOnUse">
<stop stop-color="#09C957"/>
<stop offset="1" stop-color="#045224"/>
</linearGradient>
<linearGradient id="paint6_linear_508_319" x1="135.184" y1="117.262" x2="193.372" y2="68.2873" gradientUnits="userSpaceOnUse">
<stop stop-color="#F9F9FB"/>
<stop offset="1" stop-color="#EAEDF2"/>
</linearGradient>
<linearGradient id="paint7_linear_508_319" x1="118.446" y1="62.4285" x2="176.273" y2="62.4285" gradientUnits="userSpaceOnUse">
<stop stop-color="#09C957"/>
<stop offset="1" stop-color="#045224"/>
</linearGradient>
<linearGradient id="paint8_linear_508_319" x1="118.446" y1="96.896" x2="176.273" y2="96.896" gradientUnits="userSpaceOnUse">
<stop stop-color="#09C957"/>
<stop offset="1" stop-color="#045224"/>
</linearGradient>
<linearGradient id="paint9_linear_508_319" x1="133.83" y1="29.687" x2="134.872" y2="29.7997" gradientUnits="userSpaceOnUse">
<stop stop-color="#09C957"/>
<stop offset="1" stop-color="#045224"/>
</linearGradient>
<linearGradient id="paint10_linear_508_319" x1="142.371" y1="30.956" x2="147.317" y2="33.3775" gradientUnits="userSpaceOnUse">
<stop stop-color="#09C957"/>
<stop offset="1" stop-color="#045224"/>
</linearGradient>
<linearGradient id="paint11_linear_508_319" x1="148.038" y1="33.747" x2="153.003" y2="36.7221" gradientUnits="userSpaceOnUse">
<stop stop-color="#09C957"/>
<stop offset="1" stop-color="#045224"/>
</linearGradient>
<linearGradient id="paint12_linear_508_319" x1="153.86" y1="37.5074" x2="158.785" y2="41.0443" gradientUnits="userSpaceOnUse">
<stop stop-color="#09C957"/>
<stop offset="1" stop-color="#045224"/>
</linearGradient>
<linearGradient id="paint13_linear_508_319" x1="151.884" y1="39.976" x2="152.926" y2="40.0887" gradientUnits="userSpaceOnUse">
<stop stop-color="#09C957"/>
<stop offset="1" stop-color="#045224"/>
</linearGradient>
<linearGradient id="paint14_linear_508_319" x1="160.209" y1="42.1047" x2="164.849" y2="44.7973" gradientUnits="userSpaceOnUse">
<stop stop-color="#09C957"/>
<stop offset="1" stop-color="#045224"/>
</linearGradient>
<linearGradient id="paint15_linear_508_319" x1="163.366" y1="44.011" x2="167.343" y2="45.5742" gradientUnits="userSpaceOnUse">
<stop stop-color="#09C957"/>
<stop offset="1" stop-color="#045224"/>
</linearGradient>
<linearGradient id="paint16_linear_508_319" x1="175.747" y1="71.5342" x2="185.726" y2="71.5498" gradientUnits="userSpaceOnUse">
<stop stop-color="#09C957"/>
<stop offset="1" stop-color="#045224"/>
</linearGradient>
<linearGradient id="paint17_linear_508_319" x1="93.2063" y1="77.6491" x2="111.368" y2="102.729" gradientUnits="userSpaceOnUse">
<stop stop-color="#DCB274"/>
<stop offset="1" stop-color="#BC782E"/>
</linearGradient>
<linearGradient id="paint18_linear_508_319" x1="65.4098" y1="102.843" x2="117.059" y2="102.843" gradientUnits="userSpaceOnUse">
<stop stop-color="#DCB274"/>
<stop offset="1" stop-color="#FFDC96"/>
</linearGradient>
<linearGradient id="paint19_linear_508_319" x1="104.992" y1="134.43" x2="66.4104" y2="109.716" gradientUnits="userSpaceOnUse">
<stop stop-color="#DCB274"/>
<stop offset="1" stop-color="#BC782E"/>
</linearGradient>
<linearGradient id="paint20_linear_508_319" x1="103.266" y1="119.77" x2="78.9021" y2="98.2011" gradientUnits="userSpaceOnUse">
<stop stop-color="#DCB274"/>
<stop offset="1" stop-color="#FFDC96"/>
</linearGradient>
<linearGradient id="paint21_linear_508_319" x1="91.67" y1="119.56" x2="93.817" y2="119.56" gradientUnits="userSpaceOnUse">
<stop stop-color="#DCB274"/>
<stop offset="1" stop-color="#BC782E"/>
</linearGradient>
<linearGradient id="paint22_linear_508_319" x1="92.6372" y1="118.569" x2="89.1554" y2="102.499" gradientUnits="userSpaceOnUse">
<stop stop-color="#DCB274"/>
<stop offset="1" stop-color="#BC782E"/>
</linearGradient>
<linearGradient id="paint23_linear_508_319" x1="90.7954" y1="85.4015" x2="109.453" y2="98.3877" gradientUnits="userSpaceOnUse">
<stop stop-color="#DCB274"/>
<stop offset="1" stop-color="#BC782E"/>
</linearGradient>
<linearGradient id="paint24_linear_508_319" x1="93.0716" y1="118.434" x2="85.5195" y2="109.117" gradientUnits="userSpaceOnUse">
<stop stop-color="#DCB274"/>
<stop offset="1" stop-color="#FFDC96"/>
</linearGradient>
<linearGradient id="paint25_linear_508_319" x1="168.887" y1="121.89" x2="159.625" y2="127.459" gradientUnits="userSpaceOnUse">
<stop stop-color="#09C957"/>
<stop offset="1" stop-color="#045224"/>
</linearGradient>
<linearGradient id="paint26_linear_508_319" x1="177.574" y1="134.602" x2="212.009" y2="134.602" gradientUnits="userSpaceOnUse">
<stop stop-color="#09C957"/>
<stop offset="1" stop-color="#045224"/>
</linearGradient>
<linearGradient id="paint27_linear_508_319" x1="153.892" y1="143.808" x2="209.239" y2="143.808" gradientUnits="userSpaceOnUse">
<stop stop-color="#09C957"/>
<stop offset="1" stop-color="#045224"/>
</linearGradient>
<linearGradient id="paint28_linear_508_319" x1="165.59" y1="131.576" x2="179.801" y2="131.576" gradientUnits="userSpaceOnUse">
<stop stop-color="#09C957"/>
<stop offset="1" stop-color="#045224"/>
</linearGradient>
<linearGradient id="paint29_linear_508_319" x1="153.899" y1="133.483" x2="209.235" y2="133.483" gradientUnits="userSpaceOnUse">
<stop stop-color="white"/>
<stop offset="1" stop-color="#7C96D2"/>
</linearGradient>
<linearGradient id="paint30_linear_508_319" x1="0" y1="155.347" x2="55.222" y2="155.347" gradientUnits="userSpaceOnUse">
<stop stop-color="#09C957"/>
<stop offset="1" stop-color="#045224"/>
</linearGradient>
<linearGradient id="paint31_linear_508_319" x1="34.1543" y1="164.386" x2="98.5205" y2="83.0045" gradientUnits="userSpaceOnUse">
<stop stop-color="#D1D2D7"/>
<stop offset="1" stop-color="white"/>
</linearGradient>
<linearGradient id="paint32_linear_508_319" x1="71.304" y1="89.0888" x2="82.3841" y2="89.0888" gradientUnits="userSpaceOnUse">
<stop stop-color="#09C957"/>
<stop offset="1" stop-color="#045224"/>
</linearGradient>
<linearGradient id="paint33_linear_508_319" x1="79.924" y1="84.038" x2="80.575" y2="84.038" gradientUnits="userSpaceOnUse">
<stop stop-color="#6ACCBE"/>
<stop offset="1" stop-color="#309E98"/>
</linearGradient>
<linearGradient id="paint34_linear_508_319" x1="36.7735" y1="71.581" x2="36.7735" y2="85.1359" gradientUnits="userSpaceOnUse">
<stop stop-color="#09C957"/>
<stop offset="1" stop-color="#045224"/>
</linearGradient>
<linearGradient id="paint35_linear_508_319" x1="25.783" y1="111.416" x2="47.766" y2="111.416" gradientUnits="userSpaceOnUse">
<stop stop-color="#09C957"/>
<stop offset="1" stop-color="#045224"/>
</linearGradient>
<linearGradient id="paint36_linear_508_319" x1="43.7874" y1="50.872" x2="43.7874" y2="77.9581" gradientUnits="userSpaceOnUse">
<stop stop-color="#09C957"/>
<stop offset="1" stop-color="#045224"/>
</linearGradient>
<linearGradient id="paint37_linear_508_319" x1="50.9225" y1="54.495" x2="50.9225" y2="92.2001" gradientUnits="userSpaceOnUse">
<stop stop-color="#09C957"/>
<stop offset="1" stop-color="#045224"/>
</linearGradient>
<linearGradient id="paint38_linear_508_319" x1="45.5185" y1="25.141" x2="45.5185" y2="49.12" gradientUnits="userSpaceOnUse">
<stop stop-color="white"/>
<stop offset="1" stop-color="#D1D0CF"/>
</linearGradient>
<linearGradient id="paint39_linear_508_319" x1="47.0854" y1="40.553" x2="66.2882" y2="40.553" gradientUnits="userSpaceOnUse">
<stop stop-color="white"/>
<stop offset="1" stop-color="#D1D0CF"/>
</linearGradient>
<linearGradient id="paint40_linear_508_319" x1="60.6597" y1="32.5239" x2="60.6597" y2="55.296" gradientUnits="userSpaceOnUse">
<stop stop-color="white"/>
<stop offset="1" stop-color="#D1D0CF"/>
</linearGradient>
<clipPath id="clip0_508_319">
<rect width="212.007" height="200" fill="white"/>
</clipPath>
</defs>
</svg>
