<svg xmlns="http://www.w3.org/2000/svg" xmlns:xlink="http://www.w3.org/1999/xlink" width="100.001" height="100" viewBox="0 0 100.001 100">
  <defs>
    <linearGradient id="linear-gradient" x1="0.5" x2="0.5" y2="1" gradientUnits="objectBoundingBox">
      <stop offset="0" stop-color="#09c957"/>
      <stop offset="1" stop-color="#045224"/>
    </linearGradient>
  </defs>
  <g id="team" transform="translate(0 -0.002)">
    <path id="Path_284" data-name="Path 284" d="M101.121,30.285c4.862-.177,4.662-7.494-.2-7.5,4.221,0,4.112-6.252.063-6.252H98.859c4.591,0,4.929-7.086-.158-7.086-7.1,0-13.154-.275-16.014,1.746a9.39,9.39,0,0,1-5.4,1.8H30.283V11.56c-.177-4.862-7.494-4.662-7.5.2,0-4.221-6.252-4.112-6.252-.063v2.122c0-4.591-7.086-4.929-7.086.158,0,7.1-.275,13.154,1.746,16.014a9.39,9.39,0,0,1,1.8,5.4V82.4H11.558c-4.862.177-4.662,7.494.2,7.5-4.221,0-4.112,6.252-.063,6.252h2.122c-4.591,0-4.929,7.086.158,7.086,7.1,0,13.154.275,16.014-1.746a9.39,9.39,0,0,1,5.4-1.8h47v1.434c.177,4.862,7.5,4.662,7.5-.2,0,4.221,6.252,4.112,6.252.063V98.861c0,4.591,7.086,4.929,7.086-.158,0-7.1.275-13.154-1.746-16.014a9.39,9.39,0,0,1-1.8-5.4V30.285Zm-57.7,51.691A8.712,8.712,0,0,1,36.1,78.153a7.636,7.636,0,0,0-5.4-3.324v-31.4a8.71,8.71,0,0,1,3.822-7.321,7.636,7.636,0,0,0,3.324-5.4h31.4a8.71,8.71,0,0,1,7.321,3.822,7.635,7.635,0,0,0,5.4,3.324v31.4a8.71,8.71,0,0,1-3.822,7.321,7.639,7.639,0,0,0-3.324,5.4Z" transform="translate(-6.339 -6.339)" fill="rgba(9,201,87,0.2)"/>
    <g id="Group_211" data-name="Group 211" transform="translate(1.672 3.102)">
      <path id="Path_285" data-name="Path 285" d="M186.909,17.158a1.667,1.667,0,0,1-2.118,2.093,4.478,4.478,0,0,0-1.4-.209c-7.105,0-13.172-.275-16.035,1.749a9.4,9.4,0,0,1-5.4,1.8h-45.4a1.67,1.67,0,0,1-1.671-1.669v-2.5h47.069a9.4,9.4,0,0,0,5.4-1.8c2.863-2.024,8.929-1.749,16.035-1.749A3.447,3.447,0,0,1,186.909,17.158Z" transform="translate(-92.709 -14.856)" fill="#fff"/>
      <path id="Path_286" data-name="Path 286" d="M232.619,364.8a1.876,1.876,0,0,1-1.876,1.875s-31.128,0-31.25-.007a1.875,1.875,0,0,1,.11-3.747h33.017Z" transform="translate(-158.224 -290.392)" fill="#fff"/>
      <path id="Path_287" data-name="Path 287" d="M36.359,332.274a2.37,2.37,0,0,1,.409,1.958,7.576,7.576,0,0,1-7.345,5.725c-11.928,0-13.64,3.538-13.045,14.616a2.368,2.368,0,0,1-2.367,2.493,3.55,3.55,0,1,1-.185-7.095H11.7c-4.05,0-4.171-6.26.063-6.26-4.87,0-5.071-7.329-.2-7.506H30.736v-7.579a7.646,7.646,0,0,1,5.4,3.328q.106.163.219.32Z" transform="translate(-8.01 -263.277)" fill="#fff"/>
    </g>
    <path id="Path_288" data-name="Path 288" d="M343.709,185.615c0,4.87-7.332,5.071-7.509.2V166.646h-7.576a7.649,7.649,0,0,1,3.328-5.406,8.722,8.722,0,0,0,3.827-7.331V114.886h17.737v47.069a9.4,9.4,0,0,0,1.8,5.4c2.024,2.863,1.749,8.929,1.749,16.035,0,5.094-7.1,4.756-7.1.159v2.124C349.969,189.727,343.709,189.849,343.709,185.615Z" transform="translate(-260.175 -91.038)" fill="rgba(9,201,87,0.2)"/>
    <path id="Path_289" data-name="Path 289" d="M371.19,394.2c0,3.98-6.1,4.368-6.26.035V381.4a3.13,3.13,0,0,1,6.26,0Z" transform="translate(-288.881 -299.457)" fill="#fff"/>
    <path id="Path_290" data-name="Path 290" d="M353.517,114.886v3.354a1.447,1.447,0,0,1-.859,1.327,17.7,17.7,0,0,0-10.618,16.214v21.226a8.694,8.694,0,0,1-3.827,7.313,7.145,7.145,0,0,0-1.776,1.642,1.444,1.444,0,0,1-1.145.556h-6.668a7.628,7.628,0,0,1,3.328-5.393,8.694,8.694,0,0,0,3.827-7.313V114.886h17.737Z" transform="translate(-260.175 -90.91)" fill="#fff"/>
    <path id="Path_291" data-name="Path 291" d="M28.221,11.767c0-4.87,7.329-5.071,7.506-.2V30.738h7.579a7.646,7.646,0,0,1-3.328,5.4,8.722,8.722,0,0,0-3.827,7.331V82.5H18.414V35.427a9.4,9.4,0,0,0-1.8-5.4c-2.024-2.863-1.749-8.929-1.749-16.035,0-5.094,7.095-4.756,7.095-.159V11.7c0-4.05,6.26-4.171,6.26.063Z" transform="translate(-11.754 -6.339)" fill="rgba(9,201,87,0.2)"/>
    <path id="Path_292" data-name="Path 292" d="M35.728,11.565v.369a1.663,1.663,0,0,1-1.36,1.641C14.651,17.117,21.888,32.8,22.875,34.2a9.4,9.4,0,0,1,1.8,5.4V80.825A1.671,1.671,0,0,1,23.005,82.5H18.414V35.427a9.4,9.4,0,0,0-1.8-5.4c-2.024-2.863-1.749-8.929-1.749-16.035,0-5.094,7.095-4.756,7.095-.159V11.7c0-4.05,6.26-4.171,6.26.063,0-4.87,7.329-5.071,7.506-.2Z" transform="translate(-11.754 -6.339)" fill="#fff"/>
    <g id="Group_212" data-name="Group 212" transform="translate(0 0.002)">
      <path id="Path_293" data-name="Path 293" d="M95.017,70.953V33a1.667,1.667,0,1,0-3.335,0V70.953a11.02,11.02,0,0,0,2.1,6.36c1.492,2.112,1.47,7.285,1.447,12.762q-.005,1.124-.006,2.291a2.074,2.074,0,0,1-.561,1.581,1.923,1.923,0,0,1-3.191-1.423,1.667,1.667,0,0,0-3.335,0v2.122a1.46,1.46,0,0,1-2.918,0V92.31a1.667,1.667,0,0,0-3.335,0c0,3.132,0,2.03,0,2.273A2.021,2.021,0,0,1,79.8,96.666a1.92,1.92,0,0,1-2.08-1.914V75.637a1.667,1.667,0,0,0-1.667-1.667H70.7a5.686,5.686,0,0,1,2.019-2.332,10.433,10.433,0,0,0,4.581-8.72v-37.3H94.844c5.146-.188,6.634-6.225,3.584-9.311A5,5,0,0,0,97.1,9.173a5.178,5.178,0,0,0-4.739-7.73c-7.406,0-13.62-.321-16.978,2.051a7.707,7.707,0,0,1-4.436,1.492H33.644a1.667,1.667,0,1,0,0,3.335H70.951a11.019,11.019,0,0,0,6.36-2.1C79.424,4.725,84.6,4.749,90.074,4.771q1.124.005,2.291.006c1.894,0,2.041,1.4,2.041,1.827a1.817,1.817,0,0,1-1.883,1.925,1.667,1.667,0,0,0,0,3.335h2.122a1.342,1.342,0,0,1,1.4,1.469,1.329,1.329,0,0,1-1.4,1.449H92.309a1.667,1.667,0,0,0,0,3.335h2.273A2.021,2.021,0,0,1,96.665,20.2a1.92,1.92,0,0,1-1.914,2.079H75.636a1.667,1.667,0,0,0-1.667,1.667V29.3a5.683,5.683,0,0,1-2.332-2.019,10.432,10.432,0,0,0-8.72-4.581h-37.3s0-17.522,0-17.542C25.425.015,19.389-1.476,16.3,1.574A5,5,0,0,0,9.171,2.9a5.176,5.176,0,0,0-7.73,4.738c0,7.369-.321,13.62,2.051,16.978a7.707,7.707,0,0,1,1.492,4.436V65.526a1.667,1.667,0,0,0,3.335,0V29.052a11.02,11.02,0,0,0-2.1-6.36c-1.492-2.112-1.47-7.285-1.447-12.762q.005-1.124.006-2.291a2.074,2.074,0,0,1,.561-1.581A1.923,1.923,0,0,1,8.527,7.48a1.667,1.667,0,1,0,3.335,0V5.358a1.342,1.342,0,0,1,1.469-1.4,1.329,1.329,0,0,1,1.449,1.4V7.7a1.667,1.667,0,1,0,3.335,0c0-3.132,0-2.03,0-2.273A2.021,2.021,0,0,1,20.2,3.339a1.922,1.922,0,0,1,2.08,1.914V24.368a1.667,1.667,0,0,0,1.667,1.667H29.3a5.686,5.686,0,0,1-2.019,2.332,10.433,10.433,0,0,0-4.581,8.72v21.89a1.667,1.667,0,0,0,3.335,0V37.088A7.069,7.069,0,0,1,29.1,31.164a9.146,9.146,0,0,0,3.759-5.128h30.06A7.069,7.069,0,0,1,68.84,29.1a9.146,9.146,0,0,0,5.128,3.758V62.918A7.069,7.069,0,0,1,70.9,68.842a9.146,9.146,0,0,0-3.759,5.128H37.086a7.069,7.069,0,0,1-5.924-3.064,9.272,9.272,0,0,0-6.571-4.067A1.668,1.668,0,0,0,22.7,68.491v5.9H5.157C.01,74.579-1.477,80.616,1.573,83.7A5,5,0,0,0,2.9,90.832a5.174,5.174,0,0,0,4.739,7.73c7.3,0,13.61.328,16.978-2.051a7.707,7.707,0,0,1,4.436-1.492H67.2a1.667,1.667,0,0,0,0-3.335H29.05a11.019,11.019,0,0,0-6.36,2.1c-2.112,1.492-7.285,1.47-12.762,1.446q-1.124,0-2.291-.006c-1.894,0-2.041-1.4-2.041-1.827a1.817,1.817,0,0,1,1.883-1.925,1.667,1.667,0,0,0,0-3.335H5.356a1.46,1.46,0,0,1,0-2.918H7.693a1.667,1.667,0,0,0,0-3.335H5.421A2.021,2.021,0,0,1,3.337,79.8a1.92,1.92,0,0,1,1.914-2.079H24.366a1.667,1.667,0,0,0,1.667-1.667V70.7a5.686,5.686,0,0,1,2.332,2.02,10.432,10.432,0,0,0,8.72,4.581h37.3s0,17.522,0,17.542c.187,5.137,6.221,6.637,9.311,3.584a5,5,0,0,0,7.131-1.325,5.176,5.176,0,0,0,7.73-4.738c0-7.369.321-13.62-2.051-16.978a7.707,7.707,0,0,1-1.492-4.436Z" transform="translate(0 -0.002)" fill="url(#linear-gradient)"/>
    </g>
  </g>
</svg>
