<svg xmlns="http://www.w3.org/2000/svg" width="21.61" height="15.195" viewBox="0 0 21.61 15.195">
  <path id="FontAwsome_youtube_" data-name="FontAwsome (youtube)" d="M36.092,66.377a2.715,2.715,0,0,0-1.911-1.923C32.5,64,25.738,64,25.738,64s-6.758,0-8.443.455a2.715,2.715,0,0,0-1.911,1.923,30.574,30.574,0,0,0,0,10.471A2.675,2.675,0,0,0,17.3,78.74c1.685.454,8.443.454,8.443.454s6.758,0,8.443-.454a2.675,2.675,0,0,0,1.911-1.892,30.573,30.573,0,0,0,0-10.471ZM23.528,74.826V68.4l5.648,3.213Z" transform="translate(-14.933 -64)" fill="#fff"/>
</svg>
